<?xml version="1.0" encoding="UTF-8"?>
<svg width="669px" height="737px" viewBox="0 0 669 737" version="1.1" xmlns="http://www.w3.org/2000/svg" xmlns:xlink="http://www.w3.org/1999/xlink">
    <!-- Generator: Sketch 53.1 (72631) - https://sketchapp.com -->
    <title>abridor</title>
    <desc>Created with Sketch.</desc>
    <g id="Page-1" stroke="none" stroke-width="1" fill="none" fill-rule="evenodd">
        <g id="abridor" transform="translate(-23.000000, -52.000000)" fill="#1A1919">
            <g transform="translate(23.611871, 52.705133)">
                <path d="M58.6723287,198.075867 C61.2163287,199.038867 63.8063287,199.902867 66.2803287,201.022867 C67.1153287,201.399867 67.5443287,202.897867 68.3473287,203.087867 C79.4043287,205.704867 89.4653287,214.020867 101.195329,211.353867 C107.060329,210.020867 112.594329,208.905867 118.572329,208.909867 C121.037329,208.910867 123.441329,206.873867 125.991329,206.384867 C127.815329,206.034867 129.837329,206.718867 131.770329,206.941867 C131.913329,207.665867 132.056329,208.390867 132.199329,209.116867 C129.678329,210.202867 127.252329,211.814867 124.620329,212.289867 C110.226329,214.891867 95.8523287,213.664867 81.5093287,211.553867 C75.1073287,210.611867 60.8453287,203.532867 58.0673287,199.841867 C58.2683287,199.252867 58.4703287,198.664867 58.6723287,198.075867" id="Fill-1"></path>
                <path d="M47.7123287,94.3985665 C41.8673287,104.204567 36.0233287,114.009567 30.1133287,123.925567 C26.8603287,121.292567 27.6523287,118.634567 29.1603287,116.082567 C34.0953287,107.734567 38.3403287,98.7875665 46.6213287,93.2265665 C46.9853287,93.6175665 47.3483287,94.0075665 47.7123287,94.3985665" id="Fill-3"></path>
                <path d="M249.442829,271.628567 C250.979829,273.109567 252.521829,274.355567 253.775829,275.843567 C263.722829,287.649567 273.609829,299.506567 283.526829,311.337567 C298.665829,329.397567 313.815829,347.447567 328.954829,365.506567 C329.594829,366.269567 330.571829,367.012567 330.710829,367.874567 C330.945829,369.328567 330.634829,370.870567 330.553829,372.375567 C329.314829,371.753567 327.704829,371.440567 326.894829,370.462567 C317.147829,358.709567 307.683829,346.718567 297.819829,335.064567 C284.629829,319.478567 271.123829,304.158567 257.819829,288.667567 C254.468829,284.765567 251.285829,280.709567 248.230829,276.573567 C247.571829,275.682567 247.677829,274.135567 247.693829,272.894567 C247.698829,272.539567 248.623829,272.196567 249.442829,271.628567" id="Fill-5"></path>
                <path d="M458.411029,436.867367 C459.757029,438.120367 460.384029,438.628367 460.922029,439.217367 C473.012029,452.428367 485.359029,465.415367 497.084029,478.942367 C505.656029,488.834367 513.398029,499.444367 521.525029,509.722367 C526.267029,515.719367 531.074029,521.665367 535.771029,527.695367 C536.772029,528.980367 537.628029,530.467367 538.151029,531.997367 C538.390029,532.696367 537.873029,533.941367 537.288029,534.529367 C536.923029,534.896367 535.562029,534.792367 535.046029,534.389367 C533.760029,533.388367 532.585029,532.186367 531.566029,530.905367 C515.855029,511.131367 500.452029,491.103367 484.370029,471.637367 C476.666029,462.311367 467.666029,454.060367 459.322029,445.258367 C458.094029,443.962367 456.821029,442.415367 456.391029,440.768367 C456.143029,439.818367 457.542029,438.437367 458.411029,436.867367" id="Fill-7"></path>
                <path d="M384.500929,524.305867 C386.106929,525.209867 388.116929,525.764867 389.256929,527.075867 C398.187929,537.347867 407.063929,547.670867 415.740929,558.157867 C431.746929,577.498867 448.854929,595.764867 467.518929,612.577867 C468.672929,613.616867 468.718929,615.884867 469.279929,617.580867 C467.449929,617.075867 465.026929,617.150867 463.877929,615.977867 C445.539929,597.269867 425.870929,579.835867 409.750929,558.996867 C402.339929,549.415867 394.315929,540.311867 386.642929,530.931867 C385.354929,529.356867 384.435929,527.478867 383.345929,525.740867 C383.730929,525.262867 384.115929,524.784867 384.500929,524.305867" id="Fill-9"></path>
                <path d="M425.042929,484.804867 C425.938929,486.475867 426.489929,488.506867 427.790929,489.759867 C435.563929,497.244867 443.593929,504.464867 451.312929,512.003867 C452.561929,513.223867 452.684929,515.595867 453.327929,517.435867 C451.612929,516.860867 449.529929,516.724867 448.238929,515.643867 C429.009929,499.544867 413.603929,479.997867 398.653929,460.070867 C397.751929,458.867867 397.977929,456.819867 397.678929,455.164867 C399.485929,455.237867 401.951929,454.574867 402.992929,455.504867 C408.777929,460.670867 414.259929,466.180867 419.746929,471.671867 C421.382929,473.308867 422.926929,475.129867 424.101929,477.110867 C425.337929,479.196867 426.080929,481.574867 427.039929,483.824867 C426.373929,484.150867 425.707929,484.477867 425.042929,484.804867" id="Fill-11"></path>
                <path d="M412.631829,511.265767 C414.179829,512.349767 416.031829,513.171767 417.224829,514.560767 C424.580829,523.125767 431.647829,531.941767 439.079829,540.438767 C448.476829,551.180767 458.049829,561.772767 467.699829,572.288767 C475.218829,580.481767 482.971829,588.458767 490.614829,596.536767 C491.069829,597.015767 491.738829,597.482767 491.858829,598.049767 C492.162829,599.497767 492.212829,600.998767 492.363829,602.478767 C491.013829,602.218767 489.232829,602.419767 488.383829,601.624767 C483.184829,596.756767 478.035829,591.810767 473.191829,586.592767 C469.720829,582.855767 466.865829,578.553767 463.535829,574.674767 C447.419829,555.898767 431.224829,537.188767 415.094829,518.422767 C413.640829,516.731767 412.451829,514.810767 411.140829,512.996767 L412.631829,511.265767 Z" id="Fill-13"></path>
                <path d="M400.278229,490.953267 C398.926229,489.915267 397.322229,489.087267 396.262229,487.807267 C380.381229,468.628267 364.527229,449.425267 348.828229,430.096267 C347.618229,428.605267 347.614229,426.137267 347.049229,424.123267 C348.928229,425.052267 351.384229,425.505267 352.600229,426.980267 C367.585229,445.152267 382.429229,463.440267 397.188229,481.797267 C399.076229,484.144267 400.279229,487.043267 401.799229,489.686267 C401.292229,490.108267 400.785229,490.531267 400.278229,490.953267" id="Fill-15"></path>
                <path d="M300.479429,374.298067 C284.300429,353.618067 267.116429,333.705067 252.623429,311.738067 C253.179429,311.144067 253.736429,310.550067 254.293429,309.956067 C255.705429,310.883067 257.483429,311.523067 258.473429,312.782067 C272.921429,331.168067 287.294429,349.613067 301.565429,368.138067 C302.540429,369.403067 302.560429,371.405067 303.024429,373.066067 C302.175429,373.477067 301.327429,373.887067 300.479429,374.298067" id="Fill-17"></path>
                <path d="M285.948629,295.373267 C280.649629,290.501267 274.959629,285.985267 270.127629,280.687267 C257.494629,266.836267 245.202629,252.674267 232.908629,238.520267 C232.076629,237.563267 232.357629,235.640267 232.120629,234.165267 C233.642629,234.636267 235.697629,234.629267 236.607629,235.647267 C249.438629,250.001267 262.112629,264.495267 274.827629,278.953267 C278.538629,283.172267 282.281629,287.364267 285.949629,291.621267 C286.580629,292.353267 286.906629,293.350267 287.373629,294.224267 C286.898629,294.607267 286.423629,294.990267 285.948629,295.373267" id="Fill-19"></path>
                <path d="M467.280229,529.883967 C470.287229,532.248967 472.926229,534.323967 475.967229,536.716967 C478.031229,530.899967 480.662229,530.879967 484.091229,534.982967 C484.919229,535.974967 486.839229,536.825967 488.045229,536.601967 C495.198229,535.269967 497.490229,541.049967 500.713229,545.161967 C503.312229,548.478967 499.892229,550.480967 497.842229,551.887967 C496.735229,552.648967 493.757229,552.149967 492.617229,551.117967 C489.445229,548.247967 486.910229,544.687967 483.892229,541.625967 C481.919229,539.622967 479.780229,538.762967 477.924229,542.200967 C477.559229,542.874967 474.752229,543.227967 474.270229,542.677967 C471.454229,539.459967 468.951229,535.959967 466.478229,532.458967 C466.225229,532.100967 466.878229,531.101967 467.280229,529.883967" id="Fill-21"></path>
                <path d="M391.209929,443.129067 C389.834929,442.202067 388.176929,441.522067 387.128929,440.312067 C377.131929,428.779067 367.236929,417.157067 357.317929,405.557067 C357.103929,405.306067 356.845929,405.032067 356.771929,404.730067 C356.345929,402.991067 355.968929,401.241067 355.574929,399.495067 C357.106929,400.152067 359.082929,400.409067 360.098929,401.533067 C365.541929,407.561067 370.815929,413.745067 376.013929,419.987067 C380.894929,425.849067 385.642929,431.823067 390.366929,437.812067 C391.305929,439.002067 391.876929,440.483067 392.616929,441.829067 C392.146929,442.263067 391.678929,442.695067 391.209929,443.129067" id="Fill-23"></path>
                <path d="M339.304629,471.797067 C337.826629,470.964067 335.838629,470.493067 334.950629,469.242067 C325.347629,455.724067 315.892629,442.099067 306.479629,428.446067 C305.556629,427.109067 305.183629,425.392067 304.555629,423.851067 C305.078629,423.460067 305.601629,423.069067 306.124629,422.679067 C307.896629,424.524067 309.922629,426.188067 311.399629,428.245067 C320.399629,440.773067 329.291629,453.378067 338.165629,465.995067 C339.122629,467.356067 339.732629,468.962067 340.502629,470.454067 C340.103629,470.901067 339.703629,471.349067 339.304629,471.797067" id="Fill-25"></path>
                <path d="M430.169829,548.807767 C431.445829,549.697767 432.949829,550.382767 433.964829,551.508767 C443.633829,562.242767 453.278829,572.997767 462.741829,583.911767 C463.751829,585.076767 463.556829,587.285767 463.920829,589.009767 C462.342829,588.438767 460.211829,588.335767 459.271829,587.224767 C449.494829,575.681767 439.899829,563.983767 430.294829,552.295767 C429.726829,551.603767 429.503829,550.626767 429.119829,549.783767 C429.470829,549.457767 429.819829,549.132767 430.169829,548.807767" id="Fill-27"></path>
                <path d="M456.277329,477.390767 C457.400329,478.169767 458.774329,478.743767 459.607329,479.759767 C467.908329,489.883767 476.192329,500.024767 484.262329,510.330767 C485.241329,511.580767 484.931329,513.838767 485.219329,515.629767 C483.562329,514.938767 481.298329,514.717767 480.342329,513.483767 C472.244329,503.035767 464.366329,492.415767 456.481329,481.803767 C455.769329,480.845767 455.469329,479.580767 454.979329,478.458767 C455.412329,478.103767 455.844329,477.746767 456.277329,477.390767" id="Fill-29"></path>
                <path d="M252.283629,342.948367 C254.153629,345.031367 256.194629,346.988367 257.853629,349.228367 C260.774629,353.172367 263.581629,356.936367 269.344629,356.604367 C270.425629,356.542367 271.811629,358.058367 272.701629,359.139367 C274.799629,361.688367 276.895629,364.290367 278.544629,367.130367 C279.170629,368.209367 278.569629,370.001367 278.528629,371.469367 C277.390629,370.775367 276.006629,370.297367 275.178629,369.337367 C274.122629,368.113367 273.529629,366.494367 272.714629,365.058367 C271.414629,362.768367 269.928629,362.397367 267.413629,363.708367 C266.236629,364.322367 263.441629,363.852367 262.655629,362.861367 C258.550629,357.688367 254.815629,352.217367 251.067629,346.770367 C250.612629,346.109367 250.851629,344.968367 250.769629,344.050367 C251.274629,343.682367 251.779629,343.315367 252.283629,342.948367" id="Fill-31"></path>
                <path d="M426.137629,446.179867 C415.623629,436.859867 407.028629,425.802867 398.303629,414.862867 C398.640629,414.354867 398.978629,413.847867 399.315629,413.339867 C400.757629,413.898867 402.661629,414.049867 403.569629,415.078867 C411.451629,424.023867 419.173629,433.109867 426.876629,442.208867 C427.435629,442.868867 427.476629,443.965867 427.758629,444.859867 C427.217629,445.298867 426.677629,445.739867 426.137629,446.179867" id="Fill-33"></path>
                <path d="M365.886629,348.951867 C366.932629,349.839867 368.151629,350.588867 368.997629,351.636867 C376.085629,360.408867 383.160629,369.190867 390.064629,378.106867 C390.840629,379.108867 390.523629,380.955867 390.712629,382.411867 C389.332629,381.785867 387.502629,381.527867 386.643629,380.474867 C379.717629,371.987867 372.914629,363.396867 366.238629,354.710867 C365.226629,353.394867 365.062629,351.427867 364.505629,349.761867 C364.965629,349.491867 365.426629,349.221867 365.886629,348.951867" id="Fill-35"></path>
                <path d="M412.758729,529.113467 C408.175729,529.432467 388.573729,506.403467 388.432729,500.958467 C392.516729,501.106467 410.262729,521.452467 412.758729,529.113467" id="Fill-37"></path>
                <path d="M465.262629,474.231667 C463.916629,473.284667 462.282629,472.575667 461.271629,471.350667 C455.902629,464.844667 450.610629,458.268667 445.495629,451.561667 C444.606629,450.393667 444.696629,448.478667 444.333629,446.908667 C445.771629,447.374667 447.729629,447.396667 448.562629,448.376667 C454.351629,455.182667 459.956629,462.148667 465.483629,469.171667 C466.278629,470.182667 466.334629,471.773667 466.733629,473.095667 C466.242629,473.474667 465.752629,473.853667 465.262629,474.231667" id="Fill-39"></path>
                <path d="M492.927729,587.075367 C492.102729,586.739367 491.043729,586.625367 490.489729,586.035367 C483.455729,578.572367 476.484729,571.050367 469.530729,563.512367 C468.751729,562.669367 467.942729,561.724367 467.567729,560.677367 C467.173729,559.575367 467.284729,558.292367 467.174729,557.089367 C468.416729,557.465367 470.120729,557.447367 470.828729,558.278367 C476.827729,565.317367 482.646729,572.512367 488.518729,579.659367 C490.258729,581.777367 491.997729,583.896367 493.738729,586.015367 C493.467729,586.368367 493.197729,586.721367 492.927729,587.075367" id="Fill-41"></path>
                <path d="M323.953529,431.081267 C318.151529,428.885267 300.199529,404.615267 301.054529,397.939267 C309.672529,409.336267 317.484529,419.664267 325.295529,429.992267 C324.848529,430.355267 324.400529,430.719267 323.953529,431.081267" id="Fill-43"></path>
                <path d="M417.173729,449.033367 C418.328729,449.696367 419.761729,450.116367 420.593729,451.063367 C426.065729,457.288367 431.511729,463.544367 436.699729,470.003367 C437.701729,471.251367 437.528729,473.442367 437.898729,475.198367 C436.338729,474.316367 434.383729,473.773367 433.285729,472.494367 C428.315729,466.704367 423.563729,460.726367 418.791729,454.767367 C417.713729,453.421367 416.877729,451.881367 415.929729,450.429367 C416.344729,449.964367 416.758729,449.499367 417.173729,449.033367" id="Fill-45"></path>
                <path d="M535.910129,563.813667 C531.386129,562.101667 515.093129,540.671667 515.044129,536.369667 C520.229129,537.136667 536.972129,559.157667 535.910129,563.813667" id="Fill-47"></path>
                <path d="M337.887629,449.729667 C340.470629,452.661667 342.110629,454.490667 343.714629,456.348667 C348.564629,461.963667 353.516629,467.497667 358.157629,473.280667 C359.267629,474.664667 359.322629,476.895667 359.862629,478.736667 C358.158629,478.135667 355.780629,478.049667 354.862629,476.848667 C349.039629,469.230667 343.522629,461.377667 337.980629,453.548667 C337.627629,453.049667 337.916629,452.095667 337.887629,449.729667" id="Fill-49"></path>
                <path d="M361.935529,467.014867 C356.736529,466.329867 341.690529,449.160867 342.492529,444.827867 C347.469529,446.109867 362.220529,462.943867 361.935529,467.014867" id="Fill-51"></path>
                <path d="M331.848129,405.949367 C330.262129,405.957367 328.365129,406.528367 327.752129,405.882367 C322.770129,400.627367 317.978129,395.186367 313.287129,389.668367 C312.789129,389.082367 313.059129,387.513367 313.478129,386.643367 C313.641129,386.303367 315.613129,386.241367 316.051129,386.713367 C321.190129,392.240367 326.202129,397.886367 331.211129,403.534367 C331.500129,403.859367 331.473129,404.466367 331.848129,405.949367" id="Fill-53"></path>
                <path d="M230.705029,315.681767 C229.475029,314.471767 228.013029,313.419767 227.055029,312.022767 C223.607029,306.992767 220.181029,301.933767 217.096029,296.680767 C216.362029,295.431767 216.986029,293.384767 216.985029,291.704767 C218.354029,292.528767 220.219029,293.027767 221.005029,294.231767 C224.160029,299.064767 227.029029,304.087767 229.896029,309.101767 C230.845029,310.760767 231.472029,312.603767 232.246029,314.362767 C231.732029,314.802767 231.219029,315.241767 230.705029,315.681767" id="Fill-55"></path>
                <path d="M215.615629,226.319467 C223.494629,232.298467 228.632629,240.420467 233.810629,249.238467 C228.817629,248.384467 215.426629,231.839467 215.615629,226.319467" id="Fill-57"></path>
                <path d="M498.557529,638.520667 C507.018529,639.799667 513.272529,642.556667 517.857529,649.262667 C516.399529,649.169667 514.775529,649.462667 513.515529,648.916667 C509.158529,647.023667 504.863529,644.956667 500.699529,642.672667 C499.797529,642.178667 499.538529,640.511667 498.557529,638.520667" id="Fill-59"></path>
                <path d="M523.598529,638.249167 C519.226529,633.454167 515.679529,629.710167 512.354529,625.779167 C511.802529,625.126167 511.781529,623.053167 512.274529,622.700167 C513.163529,622.065167 514.768529,621.805167 515.826529,622.150167 C519.038529,623.198167 524.173529,632.658167 523.598529,638.249167" id="Fill-61"></path>
                <path d="M290.667429,400.683767 C286.030429,400.673767 279.595429,392.327767 279.269429,386.348767 C283.516429,386.596767 289.500429,393.955767 290.667429,400.683767" id="Fill-63"></path>
                <path d="M360.858329,502.559767 C359.834329,501.767767 358.818329,501.174767 358.050329,500.351767 C355.561329,497.680767 353.067329,495.002767 350.793329,492.154767 C350.132329,491.328767 350.203329,489.916767 349.939329,488.774767 C351.022329,488.815767 352.505329,488.413767 353.121329,488.970767 C356.560329,492.083767 359.847329,495.374767 363.026329,498.755767 C363.492329,499.250767 363.370329,500.673767 363.018329,501.435767 C362.762329,501.990767 361.680329,502.163767 360.858329,502.559767" id="Fill-65"></path>
                <path d="M526.767529,602.465067 C529.793529,605.414067 532.868529,608.324067 535.795529,611.375067 C536.151529,611.745067 535.994529,613.292067 535.591529,613.555067 C534.866529,614.028067 533.400529,614.410067 532.900529,614.010067 C529.716529,611.463067 526.666529,608.738067 523.702529,605.937067 C523.311529,605.568067 523.342529,604.119067 523.738529,603.703067 C524.312529,603.100067 525.395529,602.981067 526.767529,602.465067" id="Fill-67"></path>
                <path d="M353.103429,371.730667 C349.568429,368.382667 345.963429,365.103667 342.562429,361.623667 C341.940429,360.986667 342.150429,359.536667 341.976429,358.461667 C342.870429,358.319667 344.185429,357.728667 344.589429,358.107667 C347.894429,361.207667 351.109429,364.416667 354.144429,367.779667 C354.712429,368.408667 354.353429,369.875667 354.422429,370.956667 C353.983429,371.213667 353.542429,371.471667 353.103429,371.730667" id="Fill-69"></path>
                <path d="M492.236229,502.367367 C495.487229,506.433367 498.737229,510.501367 502.538229,515.256367 C496.143229,515.556367 490.695229,508.873367 492.236229,502.367367" id="Fill-71"></path>
                <path d="M540.194329,551.082167 C545.444329,553.410167 548.965329,558.929167 548.051329,563.399167 C543.288329,561.707167 539.522329,555.805167 540.194329,551.082167" id="Fill-73"></path>
                <path d="M365.698229,384.320467 C362.598229,381.410467 360.354229,379.303467 357.622229,376.738467 C362.868229,375.782467 365.271229,377.940467 365.698229,384.320467" id="Fill-75"></path>
                <path d="M285.930629,281.219367 C287.874629,282.847367 289.818629,284.475367 292.200629,286.470367 C287.431629,287.976367 286.605629,287.358367 285.930629,281.219367" id="Fill-77"></path>
                <path d="M594.811429,692.662267 C593.104429,694.248267 591.840429,696.314267 590.172429,696.721267 C588.497429,697.129267 585.682429,696.499267 584.641429,695.257267 C579.435429,689.038267 574.621429,682.489267 569.741429,676.002267 C568.958429,674.962267 568.003429,673.614267 568.071429,672.464267 C568.215429,669.966267 568.970429,667.505267 569.475429,665.028267 C571.712429,665.578267 574.649429,665.420267 576.056429,666.810267 C580.249429,670.957267 583.924429,675.644267 587.635429,680.255267 C589.385429,682.431267 590.832429,684.865267 592.270429,687.270267 C593.150429,688.742267 593.751429,690.382267 594.811429,692.662267" id="Fill-79"></path>
                <path d="M605.557529,667.869267 C606.244529,667.319267 606.930529,666.769267 607.618529,666.220267 C606.000529,664.337267 604.382529,662.454267 602.765529,660.571267 C602.376529,660.917267 601.988529,661.263267 601.599529,661.608267 L605.557529,667.869267 Z M488.265529,443.330267 C486.228529,447.352267 486.958529,449.567267 490.295529,450.074267 C491.006529,450.182267 491.918529,448.963267 492.737529,448.355267 C491.246529,446.680267 489.756529,445.005267 488.265529,443.330267 L488.265529,443.330267 Z M650.792529,637.340267 C649.415529,640.480267 648.596529,643.512267 652.410529,645.243267 C653.232529,645.616267 655.897529,644.247267 656.041529,643.395267 C656.666529,639.733267 654.922529,637.512267 650.792529,637.340267 L650.792529,637.340267 Z M451.254529,407.833267 C451.382529,401.711267 446.047529,397.783267 441.502529,400.002267 C440.740529,400.375267 440.016529,401.273267 439.776529,402.079267 C439.655529,402.484267 440.542529,403.494267 441.174529,403.768267 C444.339529,405.144267 447.571529,406.367267 451.254529,407.833267 L451.254529,407.833267 Z M385.298529,348.746267 C387.671529,346.591267 389.911529,345.537267 390.231529,344.067267 C390.963529,340.697267 388.798529,337.994267 385.575529,337.826267 C383.897529,337.738267 380.477529,340.505267 380.657529,341.448267 C381.087529,343.710267 383.179529,345.656267 385.298529,348.746267 L385.298529,348.746267 Z M619.786529,596.042267 C620.551529,603.971267 627.751529,612.727267 633.641529,612.376267 C630.143529,605.811267 626.052529,600.509267 619.786529,596.042267 L619.786529,596.042267 Z M607.619529,681.332267 L606.971529,683.189267 C608.999529,684.389267 611.811529,687.098267 612.919529,686.524267 C617.675529,684.057267 621.967529,680.676267 626.312529,677.471267 C626.780529,677.125267 626.494529,675.760267 626.559529,674.868267 C625.498529,674.827267 624.168529,674.361267 623.430529,674.829267 C621.640529,675.964267 620.058529,677.462267 618.516529,678.942267 C615.453529,681.883267 612.388529,684.602267 607.619529,681.332267 L607.619529,681.332267 Z M518.358529,480.010267 C518.759529,479.606267 519.161529,479.204267 519.562529,478.801267 C519.499529,475.399267 511.047529,464.691267 507.928529,464.247267 C505.036529,463.834267 504.477529,466.190267 505.723529,467.574267 C509.669529,471.958267 514.109529,475.898267 518.358529,480.010267 L518.358529,480.010267 Z M256.111529,223.635267 C255.741529,224.061267 255.370529,224.488267 255.000529,224.914267 C256.018529,229.651267 281.289529,247.652267 286.399529,245.999267 C275.895529,238.243267 266.003529,230.939267 256.111529,223.635267 L256.111529,223.635267 Z M570.527529,640.441267 C564.544529,639.515267 549.578529,647.482267 546.935529,652.728267 C553.281529,656.196267 566.376529,649.533267 570.527529,640.441267 L570.527529,640.441267 Z M357.233529,319.814267 C359.703529,318.646267 362.304529,318.151267 362.526529,317.136267 C362.846529,315.673267 361.832529,313.463267 360.682529,312.230267 C358.211529,309.578267 355.438529,307.139267 352.488529,305.035267 C351.083529,304.034267 348.991529,303.998267 347.209529,303.525267 C346.829529,305.703267 345.355529,308.827267 346.270529,309.888267 C349.423529,313.541267 353.411529,316.473267 357.233529,319.814267 L357.233529,319.814267 Z M593.711529,565.632267 C593.101529,566.052267 592.491529,566.473267 591.881529,566.892267 C592.467529,568.498267 592.712529,570.360267 593.697529,571.663267 C598.479529,577.995267 603.293529,584.320267 608.479529,590.316267 C609.900529,591.960267 612.642529,592.459267 614.779529,593.483267 C615.283529,592.809267 615.787529,592.136267 616.291529,591.462267 C609.572529,582.155267 602.402529,573.237267 593.711529,565.632267 L593.711529,565.632267 Z M522.409529,481.107267 L521.237529,482.897267 C522.093529,484.627267 522.743529,486.503267 523.847529,488.057267 C526.581529,491.907267 529.542529,495.595267 532.375529,499.376267 C534.980529,502.851267 537.247529,506.632267 540.194529,509.782267 C543.098529,512.889267 546.552529,515.530267 550.007529,518.044267 C551.224529,518.930267 553.154529,518.835267 554.758529,519.187267 C554.580529,517.682267 554.525529,516.148267 554.172529,514.686267 C553.991529,513.935267 553.338529,513.260267 552.793529,512.642267 C544.287529,503.005267 535.816529,493.335267 527.184529,483.811267 C526.017529,482.524267 524.021529,481.990267 522.409529,481.107267 L522.409529,481.107267 Z M621.694529,634.790267 C616.016529,629.421267 614.556529,621.522267 606.177529,619.993267 C605.066529,619.790267 604.312529,617.704267 603.365529,616.513267 C602.044529,614.852267 600.697529,613.214267 599.362529,611.565267 C597.598529,613.002267 594.825529,614.115267 594.244529,615.930267 C591.640529,624.061267 587.945529,631.454267 582.612529,638.159267 C580.567529,640.731267 581.190529,643.372267 584.749529,644.898267 C586.811529,645.783267 588.843529,647.115267 590.394529,648.723267 C592.572529,650.979267 594.197529,653.760267 596.236529,656.165267 C597.748529,657.950267 599.194529,659.509267 602.109529,657.539267 C603.197529,656.804267 606.401529,657.846267 607.707529,659.071267 C610.460529,661.653267 612.487529,664.994267 615.061529,667.795267 C615.753529,668.548267 617.343529,668.474267 618.522529,668.781267 C618.558529,667.598267 618.949529,666.278267 618.556529,665.262267 C617.817529,663.347267 616.625529,661.606267 615.621529,659.794267 C615.990529,659.358267 616.357529,658.922267 616.724529,658.486267 C618.165529,659.351267 619.515529,660.501267 621.074529,661.003267 C622.687529,661.522267 624.642529,661.848267 626.162529,661.364267 C626.758529,661.175267 627.183529,658.288267 626.651529,657.088267 C624.396529,651.994267 622.232529,646.740267 619.095529,642.194267 C616.705529,638.731267 615.199529,636.557267 621.694529,634.790267 L621.694529,634.790267 Z M515.073529,664.403267 C516.823529,671.288267 522.395529,675.021267 526.918529,679.417267 C531.515529,683.886267 536.578529,687.883267 541.528529,691.976267 C543.121529,693.295267 544.882529,694.921267 546.775529,695.265267 C551.045529,696.039267 552.989529,698.656267 554.172529,702.403267 C556.064529,708.395267 564.093529,711.696267 569.467529,708.253267 C573.463529,705.692267 575.795529,706.097267 577.421529,710.539267 C578.570529,713.676267 580.882529,714.239267 583.318529,712.370267 C590.554529,706.815267 597.749529,701.189267 604.679529,695.262267 C606.949529,693.320267 608.460529,690.295267 605.816529,687.315267 C601.961529,682.972267 598.028529,678.693267 594.022529,674.488267 C587.620529,667.766267 580.973529,661.271267 574.759529,654.383267 C572.351529,651.714267 570.372529,652.013267 567.869529,653.609267 C565.228529,655.295267 562.789529,657.776267 559.906529,658.514267 C551.814529,660.583267 543.590529,662.316267 535.318529,663.445267 C528.858529,664.327267 522.247529,664.107267 515.073529,664.403267 L515.073529,664.403267 Z M323.790529,303.807267 C323.370529,304.209267 322.950529,304.610267 322.530529,305.012267 C320.535529,303.663267 318.212529,302.625267 316.600529,300.917267 C307.481529,291.252267 298.516529,281.441267 289.556529,271.627267 C288.815529,270.815267 288.638529,269.512267 287.965529,268.611267 C285.552529,265.386267 283.234529,262.055267 280.513529,259.102267 C277.065529,255.359267 272.044529,252.547267 269.916529,248.240267 C267.276529,242.894267 262.977529,240.095267 258.847529,236.619267 C255.217529,233.564267 250.942529,230.532267 248.932529,226.503267 C246.847529,222.319267 244.695529,220.153267 240.178529,219.922267 C238.563529,219.839267 236.888529,219.282267 235.403529,218.591267 C226.532529,214.463267 217.529529,216.265267 209.291529,219.505267 C197.046529,224.323267 190.294529,241.497267 194.609529,255.285267 C197.621529,264.909267 200.556529,274.757267 205.199529,283.629267 C214.111529,300.660267 223.419529,317.592267 233.987529,333.626267 C256.275529,367.444267 279.251529,400.818267 302.420529,434.043267 C312.079529,447.894267 323.211529,460.711267 333.195529,474.348267 C342.016529,486.398267 350.238529,498.890267 358.609529,511.265267 C384.622529,549.723267 416.269529,583.420267 447.874529,617.162267 C451.134529,620.641267 454.144529,623.917267 459.618529,623.395267 C461.049529,623.259267 462.804529,624.887267 464.172529,625.998267 C470.733529,631.326267 476.800529,637.378267 483.810529,642.010267 C495.792529,649.929267 509.136529,654.549267 523.583529,655.986267 C534.711529,657.094267 535.351529,656.821267 538.782529,646.251267 C540.052529,642.336267 539.501529,639.095267 536.964529,636.018267 C533.896529,632.298267 530.783529,628.610267 527.828529,624.801267 C526.847529,623.535267 526.296529,621.935267 525.548529,620.489267 C525.956529,620.155267 526.364529,619.821267 526.771529,619.486267 C528.014529,620.365267 529.421529,621.082267 530.467529,622.152267 C533.251529,625.006267 535.806529,628.082267 538.587529,630.938267 C542.796529,635.263267 546.964529,635.085267 550.215529,630.248267 C552.321529,627.115267 554.160529,624.394267 558.621529,626.460267 C559.009529,626.640267 561.734529,623.813267 561.468529,623.029267 C560.003529,618.705267 558.154529,614.473267 556.024529,610.426267 C554.391529,607.324267 555.576529,606.290267 558.714529,605.454267 C559.407529,609.893267 561.921529,612.361267 566.168529,611.623267 C568.371529,611.240267 570.339529,609.508267 572.413529,608.385267 C566.934529,605.130267 560.917529,604.995267 561.654529,596.574267 C562.018529,592.411267 562.468529,591.361267 566.281529,591.378267 C569.042529,591.390267 571.553529,589.349267 569.747529,587.015267 C566.207529,582.440267 569.788529,577.368267 567.706529,572.812267 C566.963529,571.187267 567.233529,568.765267 567.835529,566.973267 C568.261529,565.706267 569.904529,564.611267 571.256529,564.023267 C571.702529,563.830267 573.382529,565.310267 573.738529,566.299267 C574.887529,569.490267 575.627529,572.825267 576.637529,576.070267 C577.120529,577.622267 578.781529,579.517267 578.319529,580.533267 C575.618529,586.471267 580.049529,589.290267 583.368529,592.205267 C586.021529,594.536267 587.609529,596.137267 584.743529,599.377267 C584.028529,600.184267 584.566529,602.100267 584.529529,603.508267 C585.924529,603.363267 587.541529,603.623267 588.675529,603.001267 C592.212529,601.061267 593.319529,598.229267 591.696529,594.195267 C590.668529,591.642267 590.473529,588.752267 589.938529,586.007267 C589.341529,582.944267 589.319529,579.643267 588.114529,576.848267 C583.397529,565.906267 578.615529,554.970267 573.239529,544.344267 C570.486529,538.903267 566.799529,533.794267 562.757529,529.223267 C561.279529,527.550267 557.078529,526.690267 554.958529,527.545267 C551.625529,528.889267 553.509529,531.913267 554.904529,534.278267 C556.337529,536.710267 557.867529,539.136267 558.871529,541.749267 C559.352529,543.001267 558.719529,544.681267 558.590529,546.166267 C557.199529,545.344267 554.991529,544.831267 554.542529,543.650267 C550.225529,532.271267 543.001529,522.825267 535.596529,513.368267 C527.735529,503.329267 520.530529,492.779267 512.964529,482.507267 C510.009529,478.495267 506.861529,474.625267 503.784529,470.703267 C500.738529,466.819267 498.439529,461.305267 494.444529,459.443267 C487.511529,456.214267 483.250529,450.807267 478.414529,445.620267 C476.996529,444.099267 475.209529,442.295267 473.339529,441.937267 C466.748529,440.676267 462.050529,436.945267 457.668529,432.162267 C456.116529,430.468267 453.126529,429.211267 450.830529,429.268267 C446.867529,429.367267 444.177529,427.928267 441.735529,425.126267 C437.489529,420.256267 433.268529,415.349267 428.779529,410.708267 C417.806529,399.362267 406.678529,388.167267 395.633529,376.890267 C393.878529,375.098267 392.069529,373.446267 394.136529,370.455267 C394.714529,369.618267 393.850529,367.239267 392.981529,366.058267 C391.116529,363.524267 388.827529,361.298267 386.686529,358.969267 C386.025529,358.250267 385.401529,357.317267 384.559529,356.973267 C379.334529,354.834267 377.204529,350.174267 374.526529,345.707267 C371.941529,341.397267 368.796529,337.240267 365.164529,333.788267 C360.517529,329.371267 355.316529,325.466267 350.027529,321.812267 C341.651529,316.027267 338.056529,306.710267 333.218529,298.592267 C328.846529,291.254267 322.628529,286.359267 316.634529,280.985267 C313.345529,278.037267 309.652529,275.359267 305.724529,273.391267 C304.013529,272.533267 301.254529,273.764267 298.970529,274.046267 C299.883529,276.016267 300.373529,278.383267 301.783529,279.890267 C308.127529,286.675267 314.763529,293.186267 321.211529,299.876267 C322.280529,300.985267 322.941529,302.487267 323.790529,303.807267 L323.790529,303.807267 Z M186.312529,244.690267 C187.185529,241.213267 188.163529,237.011267 189.299529,232.851267 C193.868529,216.112267 206.813529,209.872267 219.558529,209.408267 C223.348529,209.269267 227.163529,210.119267 230.975529,210.210267 C232.685529,210.251267 235.109529,210.075267 235.931529,209.011267 C236.688529,208.029267 236.099529,205.579267 235.475529,204.030267 C231.078529,193.126267 226.421529,182.327267 222.107529,171.392267 C221.366529,169.513267 221.613529,167.118267 221.834529,165.006267 C222.753529,156.223267 224.105529,147.477267 224.776529,138.678267 C225.287529,131.958267 224.380529,125.096267 225.241529,118.444267 C226.492529,108.773267 229.776529,99.2872665 230.288529,89.6222665 C230.706529,81.7342665 228.402529,73.6882665 227.156529,65.7362665 C226.771529,63.2862665 225.570529,60.9402665 225.371529,58.4952665 C225.261529,57.1372665 226.446529,55.6742665 227.047529,54.2582665 C228.467529,54.9202665 230.741529,55.2402665 231.166529,56.3012665 C233.867529,63.0462665 237.288529,69.7832665 238.361529,76.8432665 C240.949529,93.8752665 239.119529,110.993267 237.068529,128.009267 C235.274529,142.894267 235.743529,157.601267 238.743529,172.369267 C241.769529,187.266267 246.964529,201.201267 256.282529,213.112267 C260.784529,218.867267 267.147529,223.208267 272.840529,227.983267 C289.627529,242.062267 306.890529,255.602267 323.245529,270.162267 C345.332529,289.826267 367.069529,309.912267 388.352529,330.442267 C405.081529,346.580267 421.078529,363.494267 437.074529,380.373267 C459.710529,404.261267 482.053529,428.427267 504.510529,452.484267 C521.053529,470.206267 538.004529,487.573267 553.929529,505.834267 C561.733529,514.782267 567.180529,525.743267 574.491529,535.175267 C581.883529,544.711267 590.295529,553.454267 598.201529,562.597267 C616.016529,583.201267 633.832529,603.806267 651.566529,624.480267 C657.075529,630.903267 662.428529,637.471267 667.564529,644.192267 C668.316529,645.177267 668.127529,648.127267 667.246529,648.925267 C652.114529,662.646267 637.239529,676.708267 621.417529,689.601267 C603.402529,704.283267 586.736529,720.836267 565.856529,731.770267 C562.772529,733.386267 559.443529,736.641267 556.697529,736.203267 C553.892529,735.755267 551.539529,731.803267 549.209529,729.188267 C541.356529,720.374267 533.226529,711.769267 525.898529,702.533267 C515.882529,689.910267 506.316529,676.917267 496.931529,663.815267 C492.019529,656.957267 485.549529,652.517267 478.330529,648.554267 C472.834529,645.536267 467.484529,641.986267 462.752529,637.885267 C423.367529,603.748267 390.600529,563.667267 359.588529,522.063267 C347.380529,505.686267 335.582529,489.003267 323.632529,472.434267 C308.280529,451.150267 292.735529,430.001267 277.691529,408.501267 C261.321529,385.104267 245.052529,361.619267 229.438529,337.716267 C213.988529,314.061267 200.058529,289.552267 189.570529,263.124267 C185.660529,253.272267 177.599529,246.011267 167.570529,241.694267 C159.385529,238.171267 151.237529,234.404267 142.749529,231.797267 C137.146529,230.077267 130.985529,229.884267 125.049529,229.643267 C120.955529,229.478267 116.827529,230.519267 112.699529,230.813267 C105.943529,231.295267 99.0355287,232.672267 92.4385287,231.799267 C68.2145287,228.595267 45.4685287,220.918267 27.2405287,203.981267 C15.4885287,193.062267 7.6255287,178.713267 3.2825287,163.613267 C-0.719471303,149.698267 -1.5214713,134.519267 3.4715287,120.320267 C8.5425287,105.896267 16.0865287,92.7092665 27.3515287,81.9552665 C49.8735287,60.4542665 73.0545287,39.7302665 99.3265287,22.8432665 C112.578529,14.3262665 126.253529,6.7992665 141.416529,1.5622665 C148.140529,-0.759733496 153.741529,0.145266504 159.906529,0.317266504 C162.395529,0.386266504 164.896529,1.2252665 167.353529,1.0772665 C180.372529,0.292266504 189.948529,7.2732665 199.578529,14.6202665 C209.217529,21.9752665 217.748529,30.1912665 223.353529,41.0752665 C224.390529,43.0892665 227.018529,45.7712665 223.593529,47.3442665 C222.345529,47.9172665 218.802529,45.9792665 217.846529,44.3072665 C211.294529,32.8482665 201.583529,24.7772665 191.028529,17.2722665 C178.303529,8.2242665 163.646529,6.1602665 149.183529,7.5702665 C139.163529,8.5482665 128.945529,13.0442665 119.953529,18.0232665 C85.9665287,36.8432665 56.7725287,62.0692665 29.2755287,89.2122665 C22.2845287,96.1132665 17.6735287,105.029267 13.6935287,114.372267 C10.2805287,122.385267 8.1495287,130.304267 7.5975287,138.806267 C7.4385287,141.259267 7.7885287,143.746267 7.9355287,146.217267 C8.6665287,158.504267 12.5805287,169.692267 18.4375287,180.530267 C24.8535287,192.404267 33.0865287,202.455267 44.8245287,208.962267 C52.6975287,213.327267 61.9115287,215.367267 69.5485287,220.042267 C76.6975287,224.418267 84.6445287,222.894267 91.9355287,225.444267 C95.2055287,226.588267 99.3685287,225.193267 103.124529,224.917267 C103.610529,224.881267 104.079529,224.522267 104.559529,224.516267 C116.309529,224.378267 128.188529,223.168267 139.765529,224.528267 C147.902529,225.484267 155.793529,229.570267 163.490529,232.952267 C171.000529,236.251267 178.124529,240.431267 186.312529,244.690267 L186.312529,244.690267 Z" id="Fill-81"></path>
                <path d="M140.388629,36.1964665 C140.141629,35.2714665 139.895629,34.3464665 139.649629,33.4224665 C137.941629,33.9084665 136.234629,34.3954665 134.527629,34.8824665 C134.804629,35.7244665 135.176629,37.3164665 135.345629,37.2944665 C137.045629,37.0794665 138.712629,36.6004665 140.388629,36.1964665 M115.200629,48.1134665 C114.852629,47.4534665 114.505629,46.7934665 114.159629,46.1334665 C112.056629,47.0034665 109.825629,47.6504665 107.878629,48.7854665 C103.081629,51.5834665 98.3876287,54.5614665 93.7156287,57.5654665 C92.2676287,58.4954665 90.8946287,59.6314665 89.7796287,60.9244665 C89.5046287,61.2434665 90.3846287,63.2824665 90.7126287,63.2774665 C92.4606287,63.2494665 94.5026287,63.3074665 95.8906287,62.4454665 C100.669629,59.4794665 105.273629,56.2174665 109.830629,52.9134665 C111.764629,51.5114665 113.418629,49.7254665 115.200629,48.1134665 M204.710629,114.744467 C204.596629,114.723467 204.483629,114.703467 204.369629,114.682467 C204.522629,113.358467 204.710629,112.037467 204.822629,110.710467 C205.997629,96.6524665 205.210629,82.8634665 198.161629,70.2134665 C195.012629,64.5624665 191.846629,58.7344665 187.621629,53.9234665 C183.672629,49.4254665 178.864629,44.4774665 173.459629,42.7144665 C162.326629,39.0844665 150.252629,38.5594665 139.400629,43.6764665 C127.746629,49.1724665 116.608629,55.8864665 105.700629,62.7884665 C98.4426287,67.3804665 91.7176287,72.9314665 85.2486287,78.6154665 C79.8306287,83.3764665 75.3936287,89.2434665 70.0516287,94.1034665 C61.2526287,102.108467 53.6356287,111.719467 50.9516287,122.699467 C46.8286287,139.575467 48.0516287,156.940467 59.8286287,171.467467 C66.6186287,179.841467 73.4966287,188.430467 85.6916287,189.183467 C87.4436287,189.291467 89.0936287,190.568467 90.8666287,190.925467 C93.3446287,191.424467 95.9856287,192.134467 98.3976287,191.752467 C104.601629,190.770467 110.713629,189.211467 116.871629,187.927467 C125.764629,186.073467 131.153629,179.688467 131.641629,170.816467 C132.240629,159.955467 133.330629,158.761467 144.478629,155.469467 C149.540629,153.974467 152.591629,151.577467 154.676629,147.087467 C157.254629,141.537467 161.797629,139.384467 167.586629,140.597467 C171.659629,141.450467 175.747629,142.235467 179.846629,142.947467 C191.407629,144.955467 199.586629,139.529467 202.240629,127.976467 C203.244629,123.607467 203.897629,119.157467 204.710629,114.744467 M85.2336287,64.2064665 C83.7886287,65.2014665 82.3096287,66.1504665 80.9096287,67.2044665 C79.5846287,68.1994665 78.4976287,69.7554665 77.0296287,70.2594665 C74.7296287,71.0484665 72.1976287,71.1604665 69.7636287,71.5584665 C70.9846287,69.7944665 72.2236287,68.0424665 73.4206287,66.2604665 C75.6916287,62.8794665 78.9986287,61.5454665 82.8396287,60.4554665 C84.8856287,59.8754665 86.2936287,57.1084665 88.0346287,55.3734665 C89.5576287,53.8564665 91.1126287,51.1674665 92.7066287,51.1274665 C101.520629,50.9054665 107.549629,44.9884665 114.541629,41.1354665 C121.300629,37.4114665 127.383629,32.8594665 135.227629,30.7354665 C140.463629,29.3164665 147.492629,28.8974665 150.399629,22.0974665 C150.821629,21.1094665 153.562629,20.9284665 155.273629,20.7134665 C158.858629,20.2634665 162.471629,20.0304665 166.074629,19.7264665 C167.392629,19.6154665 169.022629,19.0244665 169.972629,19.5764665 C172.207629,20.8764665 175.510629,22.4854665 175.854629,24.4184665 C176.465629,27.8544665 172.787629,28.0914665 170.154629,28.2794665 C167.005629,28.5064665 163.819629,28.2814665 160.682629,28.5884665 C159.574629,28.6964665 158.562629,29.7944665 157.506629,30.4404665 C158.206629,31.4714665 158.686629,32.8934665 159.659629,33.4424665 C161.049629,34.2264665 162.808629,34.7674665 164.394629,34.7294665 C179.003629,34.3834665 188.017629,43.3164665 195.726629,53.9234665 C204.020629,65.3344665 209.466629,78.1264665 211.704629,92.1154665 C212.196629,95.1914665 211.893629,98.4434665 211.615629,101.583467 C210.999629,108.553467 209.571629,115.503467 209.570629,122.462467 C209.568629,131.831467 204.607629,139.361467 200.865629,147.107467 C198.873629,151.228467 193.421629,154.140467 188.923629,156.371467 C186.983629,157.333467 183.013629,155.872467 180.828629,154.307467 C176.859629,151.465467 173.329629,149.154467 169.192629,152.952467 C168.436629,152.613467 167.986629,152.561467 167.864629,152.334467 C166.595629,149.967467 166.120629,146.509467 162.056629,147.959467 C159.172629,148.987467 156.007629,156.084467 157.052629,159.670467 C158.022629,163.001467 159.641629,166.140467 160.645629,169.464467 C161.009629,170.667467 160.924629,172.849467 160.175629,173.398467 C157.213629,175.568467 153.940629,177.331467 150.691629,179.074467 C150.200629,179.337467 148.602629,178.752467 148.576629,178.464467 C148.451629,177.078467 148.274629,175.443467 148.874629,174.293467 C151.096629,170.039467 149.725629,166.504467 145.089629,165.261467 C141.029629,164.174467 138.301629,165.648467 138.056629,169.833467 C137.847629,173.401467 138.085629,177.205467 139.128629,180.596467 C141.850629,189.452467 139.813629,194.067467 130.984629,197.071467 C123.764629,199.527467 116.569629,202.086467 109.243629,204.175467 C106.815629,204.868467 104.007629,204.329467 101.379629,204.206467 C90.6576287,203.701467 80.2336287,201.753467 70.6806287,196.669467 C62.5306287,192.332467 56.3016287,185.800467 50.3326287,178.780467 C39.9896287,166.616467 37.0606287,151.869467 34.8026287,136.913467 C33.9946287,131.571467 35.1916287,126.342467 38.8336287,121.461467 C42.9356287,115.962467 45.6616287,109.440467 49.0226287,103.384467 C54.9086287,92.7794665 64.2716287,85.5324665 73.5196287,78.2054665 C77.1356287,75.3404665 81.0866287,72.8894665 84.6166287,69.9274665 C85.8246287,68.9134665 86.2106287,66.9194665 86.9726287,65.3734665 C86.3926287,64.9844665 85.8136287,64.5954665 85.2336287,64.2064665" id="Fill-83"></path>
                <path d="M211.343229,147.173967 C211.365229,151.555967 211.483229,155.771967 211.346229,159.979967 C211.307229,161.187967 210.867229,162.730967 210.038229,163.506967 C206.249229,167.050967 206.533229,171.189967 208.048229,175.464967 C209.208229,178.737967 209.179229,181.458967 206.496229,184.123967 C205.565229,185.048967 205.005229,187.488967 205.581229,188.475967 C206.189229,189.516967 208.322229,189.931967 209.848229,190.102967 C211.674229,190.307967 213.562229,189.964967 215.618229,190.539967 C212.513229,194.887967 208.121229,196.440967 203.196229,196.761967 C201.561229,196.868967 199.863229,196.557967 198.240229,196.215967 C189.718229,194.416967 183.859229,200.020967 177.401229,203.815967 C176.892229,204.114967 177.013229,206.515967 177.622229,207.407967 C178.280229,208.370967 180.160229,208.442967 180.964229,209.373967 C182.523229,211.178967 183.702229,213.312967 185.039229,215.309967 C183.062229,216.542967 181.227229,218.250967 179.074229,218.896967 C175.760229,219.891967 172.197229,220.752967 168.798229,220.569967 C165.189229,220.375967 161.601229,219.046967 158.094229,217.930967 C155.621229,217.144967 153.298229,215.886967 149.849229,214.375967 C154.257229,214.020967 157.723229,213.872967 161.142229,213.392967 C162.280229,213.232967 163.298229,212.222967 164.370229,211.601967 C163.476229,210.523967 162.763229,208.805967 161.653229,208.491967 C158.652229,207.641967 155.491229,207.298967 152.373229,206.933967 C150.627229,206.730967 148.840229,206.883967 147.071229,206.876967 C146.817229,206.389967 146.563229,205.902967 146.308229,205.416967 C147.768229,204.260967 149.525229,203.325967 150.605229,201.884967 C151.684229,200.444967 153.117229,198.069967 152.610229,196.842967 C150.158229,190.908967 151.498229,187.637967 157.720229,185.095967 C161.051229,183.734967 164.446229,182.162967 167.207229,179.936967 C168.551229,178.853967 169.617229,175.438967 168.898229,174.129967 C165.829229,168.542967 170.452229,163.955967 170.339229,158.842967 C170.334229,158.600967 173.065229,157.674967 173.778229,158.159967 C175.659229,159.440967 177.258229,161.215967 178.740229,162.986967 C182.206229,167.126967 183.816229,166.904967 188.139229,163.445967 C194.981229,157.973967 202.225229,153.001967 209.351229,147.889967 C210.162229,147.307967 211.304229,147.186967 211.343229,147.173967" id="Fill-85"></path>
                <path d="M331.624929,344.326627 C327.135929,344.418367 304.818929,320.093367 301.598929,311.457367 C303.455929,312.195367 304.850929,312.372367 305.682929,313.151367 C307.977929,315.300367 309.766929,318.073367 312.268929,319.895367 C314.724929,321.685367 317.915929,322.431367 320.584929,323.978367 C322.323929,324.986367 325.114929,326.729367 325.009929,327.932367 C324.524929,333.510367 326.951929,337.473367 330.518929,341.210367 C331.183929,341.907367 331.241929,343.184367 331.624929,344.326627" id="Fill-87"></path>
                <path d="M506.134729,572.918167 C505.020729,571.792167 503.965729,570.357167 503.675729,570.499167 C502.572729,571.034167 501.249729,571.936167 500.927729,572.982167 C500.697729,573.727167 501.942729,574.925167 502.529729,575.920167 C503.571729,575.053167 504.612729,574.186167 506.134729,572.918167 M520.648729,576.735167 C517.848729,574.327167 516.134729,572.582167 514.106729,571.357167 C513.742729,571.139167 511.048729,573.696167 511.178729,573.912167 C512.427729,575.972167 513.909729,577.963167 515.697729,579.557167 C516.026729,579.850167 518.029729,578.265167 520.648729,576.735167 M526.911729,576.439167 C526.517729,580.690167 518.150729,590.005167 513.871729,591.165167 C511.628729,591.773167 509.245729,592.684167 507.050729,592.420167 C505.023729,592.177167 502.440729,591.026167 501.381729,589.429167 C499.276729,586.249167 498.109729,582.459167 496.446729,578.972167 C493.589729,572.981167 497.186729,565.455167 504.133729,563.027167 C513.173729,559.869167 523.830729,565.242167 526.605729,574.386167 C526.842729,575.167167 526.852729,576.017167 526.911729,576.439167" id="Fill-89"></path>
            </g>
        </g>
    </g>
</svg>