<?xml version="1.0" encoding="iso-8859-1"?>
<!-- Generator: Adobe Illustrator 19.0.0, SVG Export Plug-In . SVG Version: 6.00 Build 0)  -->
<svg version="1.1" id="Capa_1" xmlns="http://www.w3.org/2000/svg" xmlns:xlink="http://www.w3.org/1999/xlink" x="0px" y="0px"
	 viewBox="0 0 464 464" style="enable-background:new 0 0 464 464;" xml:space="preserve">
<path style="fill:#CD8E5E;" d="M0,64v136h464V64H0z M288,152H176c-13.255,0-24-10.745-24-24s10.745-24,24-24h112
	c13.255,0,24,10.745,24,24S301.255,152,288,152z"/>
<path style="fill:#77BD63;" d="M56,0h32c8.837,0,16,7.163,16,16v24H40V16C40,7.163,47.163,0,56,0z"/>
<path style="fill:#5E9F51;" d="M112,160l16,48H16l16-48l8-128h64L112,160z"/>
<path style="fill:#77BD63;" d="M216,0h32c8.837,0,16,7.163,16,16v24h-64V16C200,7.163,207.163,0,216,0z"/>
<path style="fill:#5E9F51;" d="M272,160l16,48H176l16-48l8-128h64L272,160z"/>
<path style="fill:#77BD63;" d="M376,0h32c8.837,0,16,7.163,16,16v24h-64V16C360,7.163,367.163,0,376,0z"/>
<path style="fill:#5E9F51;" d="M432,160l16,48H336l16-48l8-128h64L432,160z"/>
<path style="fill:#FFC261;" d="M0,192h464v272H0V192z"/>
<ellipse style="fill:#FFDB8B;" cx="232" cy="288" rx="160" ry="48"/>
<g>
</g>
<g>
</g>
<g>
</g>
<g>
</g>
<g>
</g>
<g>
</g>
<g>
</g>
<g>
</g>
<g>
</g>
<g>
</g>
<g>
</g>
<g>
</g>
<g>
</g>
<g>
</g>
<g>
</g>
</svg>
