<?xml version="1.0" encoding="UTF-8"?>
<svg width="513px" height="513px" viewBox="0 0 513 513" version="1.1" xmlns="http://www.w3.org/2000/svg" xmlns:xlink="http://www.w3.org/1999/xlink">
    <!-- Generator: Sketch 49.3 (51167) - http://www.bohemiancoding.com/sketch -->
    <title>hoodie</title>
    <desc>Created with Sketch.</desc>
    <defs></defs>
    <g id="Welcome" stroke="none" stroke-width="1" fill="none" fill-rule="evenodd">
        <g id="Desktop-HD" transform="translate(-859.000000, -454.000000)" fill-rule="nonzero">
            <g id="hoodie" transform="translate(859.000000, 454.000000)">
                <path d="M369.155,43.387 C339.714,13.052 298.356,-2.694 256.195,0.379 C214.069,-2.682 172.738,12.992 143.235,43.216 C129.639,59.292 124.315,80.786 128.835,101.349 C130.314,107.282 136.323,110.893 142.256,109.414 C142.594,109.33 142.928,109.23 143.256,109.114 C147.186,107.714 151.33,107.014 155.501,107.045 L184.92,139.792 C220.432,179.162 281.135,182.29 320.505,146.778 C322.952,144.571 325.284,142.239 327.491,139.792 L356.888,107.045 C361.057,107.001 365.201,107.687 369.133,109.072 C374.649,111.141 380.797,108.347 382.867,102.831 C383.046,102.355 383.19,101.867 383.299,101.37 C387.913,80.894 382.68,59.438 369.155,43.387 Z" id="Shape" fill="#CCCED7"></path>
                <g id="Group" transform="translate(0.000000, 126.000000)" fill="#1B5E56">
                    <path d="M127.234,136.629 L69.848,10.336 C67.392,4.981 61.06,2.631 55.706,5.087 C54.16,5.796 52.807,6.864 51.758,8.202 C45.494,16.142 41.623,25.703 40.601,35.765 L0.194,374.453 C-0.169,377.478 0.778,380.513 2.797,382.794 C4.842,385.097 7.782,386.403 10.861,386.378 L85.528,386.378 C90.903,386.426 95.475,382.468 96.195,377.141 L128.195,142.474 C128.433,140.475 128.1,138.448 127.234,136.629 Z" id="Shape"></path>
                    <path d="M471.811,35.787 C470.599,23.614 465.218,12.234 456.579,3.574 C454.086,1.027 450.468,-0.075 446.979,0.651 C443.476,1.346 440.553,3.749 439.192,7.051 L385.005,136.971 C384.274,138.722 384.031,140.639 384.301,142.518 L416.301,377.185 C417.035,382.455 421.541,386.377 426.861,386.38 L501.528,386.38 C504.578,386.381 507.482,385.076 509.507,382.796 C511.557,380.529 512.535,377.492 512.195,374.455 L471.811,35.787 Z" id="Shape"></path>
                </g>
                <path d="M456.728,129.829 C452.463,125.319 447.4,121.638 441.795,118.97 L396.568,97.231 C391.405,95.354 387.651,93.711 384.557,92.346 C381.464,90.981 378.882,89.893 376.642,89.167 C368.789,86.461 360.489,85.288 352.194,85.711 C349.172,85.719 346.293,86.997 344.258,89.231 L311.661,125.498 C284.055,156.131 236.842,158.585 206.209,130.979 C204.288,129.248 202.459,127.419 200.728,125.498 L168.088,89.231 C166.063,87.007 163.202,85.731 160.195,85.711 C152.304,85.347 144.41,86.38 136.878,88.762 C133.294,89.914 130.776,91.023 127.747,92.346 C124.718,93.669 121.006,95.354 114.819,97.658 L70.275,118.991 C62.955,122.57 56.565,127.798 51.608,134.266 C49.254,137.387 48.796,141.545 50.413,145.103 L106.861,269.348 L106.861,480.377 C106.861,484.414 109.14,488.105 112.749,489.913 C114.584,490.83 158.808,512.377 256.194,512.377 C353.58,512.377 397.805,490.83 399.639,489.913 C403.248,488.105 405.527,484.414 405.527,480.377 L405.527,269.177 L458.86,141.177 C460.436,137.305 459.602,132.867 456.728,129.829 Z" id="Shape" fill="#396D67"></path>
                <g id="Group" transform="translate(139.000000, 85.000000)" fill="#CCCED7">
                    <path d="M21.194,107.379 C15.303,107.379 10.527,102.603 10.527,96.712 C10.186,88.433 8.56,80.257 5.706,72.477 C-3.397,50.639 -1.038,25.703 11.999,5.96 C14.866,0.814 21.362,-1.034 26.508,1.832 C31.654,4.699 33.502,11.195 30.636,16.341 C30.55,16.495 30.461,16.647 30.367,16.797 C20.459,31.391 18.843,50.085 26.1,66.162 C29.609,75.98 31.553,86.289 31.86,96.711 C31.861,102.603 27.086,107.379 21.194,107.379 Z" id="Shape"></path>
                    <path d="M213.194,107.379 C207.303,107.39 202.519,102.622 202.508,96.731 C202.503,93.891 203.631,91.166 205.642,89.16 C212.17,82.632 210.058,73.032 205.813,56.605 C200.239,41.068 199.269,24.253 203.018,8.178 C205.023,2.639 211.139,-0.226 216.678,1.779 C221.888,3.665 224.787,9.227 223.348,14.578 C221.054,26.866 222.131,39.546 226.463,51.271 C234.711,68.601 232.491,89.1 220.724,104.263 C218.726,106.258 216.018,107.378 213.194,107.379 Z" id="Shape"></path>
                </g>
            </g>
        </g>
    </g>
</svg>