<svg xmlns="http://www.w3.org/2000/svg" viewBox="0 0 290.41 390.07"><defs><style>.cls-1{fill:none;stroke:#000;stroke-linecap:round;stroke-linejoin:round;stroke-width:4px;}</style></defs><title>Recurso 2</title><g id="Capa_2" data-name="Capa 2"><g id="Capa_2-2" data-name="Capa 2"><path class="cls-1" d="M288.41,2A78.26,78.26,0,0,0,255,50.07c-2.55,11.45-2.87,24.3-10.74,33-2.3,2.54-5.14,4.57-7.36,7.18-3,3.52-4.7,7.91-6.36,12.21-7.26,18.78-14.63,39-10.14,58.59.79,3.47,2,6.94,1.73,10.5-.69,10.64-12.46,16.16-21.51,21.79-14.87,9.25-26.44,26.34-23.4,43.58.76,4.31,2.4,8.71,1.28,12.94-3,11.5-21.68,10.69-27.38,21.12-3.42,6.25-1.7,15.78-8,19.19-2.12,1.15-4.68,1.2-6.85,2.24-3.9,1.86-5.68,6.36-8.66,9.49-9.13,9.6-27,4.56-36.54,13.72-2.09,2-3.59,4.52-5.56,6.64-2.63,2.83-6,4.83-9.3,6.85A388.8,388.8,0,0,0,2,388.07"/></g></g></svg>