<?xml version="1.0" encoding="UTF-8"?>
<svg width="215px" height="288px" viewBox="0 0 215 288" version="1.1" xmlns="http://www.w3.org/2000/svg" xmlns:xlink="http://www.w3.org/1999/xlink">
    <!-- Generator: Sketch 51.1 (57501) - http://www.bohemiancoding.com/sketch -->
    <title>camino-patagonia (1)</title>
    <desc>Created with Sketch.</desc>
    <defs></defs>
    <g id="Page-1" stroke="none" stroke-width="1" fill="none" fill-rule="evenodd" stroke-linecap="round" stroke-linejoin="round">
        <g id="Desktop-Copy-3" transform="translate(-664.000000, -612.000000)" stroke="#000000" stroke-width="4">
            <g id="camino-patagonia-(1)" transform="translate(666.000000, 614.000000)">
                <path d="M211,0 C198.523231,8.16382398 189.700916,20.8385394 186.386649,35.3611521 C184.508048,43.783977 184.272302,53.2366669 178.474425,59.6365426 C176.780001,61.505012 174.687755,62.9983164 173.052268,64.9182791 C170.842149,67.5076541 169.589749,70.7370166 168.366817,73.9001735 C163.01833,87.7150776 157.588806,102.589271 160.896617,117.000026 C161.478615,119.55262 162.370029,122.105214 162.171118,124.724014 C161.662791,132.550988 152.99176,136.611599 146.32457,140.753128 C135.36975,147.557593 126.84606,160.129303 129.085646,172.811355 C129.645543,175.981869 130.853741,179.218587 130.02863,182.330251 C127.818512,190.789857 114.056842,190.194006 109.857617,197.866501 C107.338082,202.464113 108.605216,209.474551 103.963968,211.983008 C102.402151,212.828969 100.516183,212.86575 98.9175308,213.630792 C96.0443769,214.999042 94.73304,218.309322 92.5376558,220.611806 C85.8115289,227.673738 72.6465906,223.966224 65.6184142,230.704484 C64.0786984,232.175719 62.9736392,234.029477 61.5223281,235.588986 C59.584791,237.670785 57.1020914,239.142021 54.6709612,240.627969 C34.7441008,252.804932 16.3840584,267.370477 0,284" id="Shape"></path>
            </g>
        </g>
    </g>
</svg>