<?xml version="1.0" encoding="UTF-8"?>
<svg width="356px" height="845px" viewBox="0 0 356 845" version="1.1" xmlns="http://www.w3.org/2000/svg" xmlns:xlink="http://www.w3.org/1999/xlink">
    <!-- Generator: Sketch 51.1 (57501) - http://www.bohemiancoding.com/sketch -->
    <title>crawler copy</title>
    <desc>Created with Sketch.</desc>
    <defs></defs>
    <g id="Page-1" stroke="none" stroke-width="1" fill="none" fill-rule="evenodd">
        <g id="Artboard-3" transform="translate(-992.000000, -196.000000)" fill="#FFFFFF">
            <g id="crawler-copy" transform="translate(992.000000, 196.000000)">
                <path d="M133.02,45.0117 C134.409,45.2007 135.368,45.4267 136.333,45.4487 C151.972,45.8037 167.614,46.4657 183.25,46.3687 C196.377,46.2877 209.498,45.3207 222.62,44.7367 C225.994,44.5867 227.952,43.1647 225.938,39.7647 C225.374,38.8127 223.143,38.4707 221.683,38.4837 C202.543,38.6507 183.407,39.0427 164.268,39.1247 C157.126,39.1557 149.985,38.4687 142.838,38.2167 C138.272,38.0557 134.145,38.7817 133.02,45.0117 M167.702,5.7857 C166.676,7.3767 165.922,8.5457 165.067,9.8737 C164.207,9.1617 163.409,8.5017 162.561,7.7987 C162.092,8.9717 161.719,9.9067 161.146,11.3427 C159.89,9.3077 159.028,7.9097 157.904,6.0907 C157.129,8.2607 156.598,9.7507 155.849,11.8507 C154.825,10.1827 154.141,9.0707 153.407,7.8767 C152.627,9.2447 151.96,10.4167 151.077,11.9687 C150.226,10.1167 149.645,8.8517 148.816,7.0467 C147.74,8.8717 146.978,10.1637 145.928,11.9447 C145.009,10.2897 144.322,9.0517 143.399,7.3907 C141.809,9.8317 141.02,11.0437 140.821,11.3487 L126.866,11.3487 C126.713,11.9907 126.561,12.6317 126.409,13.2727 C128.983,14.1887 131.557,15.8937 134.132,15.8967 C156.583,15.9167 179.035,15.6137 201.486,15.4757 C203.273,15.4647 205.063,15.9707 206.852,16.2367 C206.829,16.7557 206.806,17.2757 206.784,17.7947 C181.16,18.8457 155.413,18.0457 129.94,21.6977 C151.791,22.1057 173.633,20.3327 195.411,22.6067 C181.959,24.0587 168.514,24.7597 155.069,25.4637 C146.926,25.8897 138.776,26.2007 130.649,26.8197 C128.059,27.0157 124.594,27.0617 125.549,31.3407 L229.192,31.3407 C228.516,27.7337 228.496,24.7647 227.378,22.2907 C225.46,18.0437 223.006,14.0967 228.049,9.5567 C225.267,9.0987 223.2,8.0737 222.133,8.7137 C219.018,10.5817 216.321,12.5667 213.648,8.2707 C212.944,9.2717 212.254,10.2547 211.534,11.2807 C210.849,10.2547 210.331,9.4797 209.781,8.6567 C208.965,9.8407 208.299,10.8067 207.407,12.1037 C206.6,10.4527 206.047,9.3237 205.28,7.7527 C204.507,9.0847 203.94,10.0637 203.317,11.1357 C202.509,10.0907 201.931,9.3427 201.319,8.5507 C200.369,9.6727 199.543,10.6457 198.354,12.0517 C197.39,9.8327 196.702,8.2477 195.782,6.1297 C194.848,8.6277 194.217,10.3137 193.09,13.3257 C192.258,10.0047 191.824,8.2667 191.187,5.7267 C189.763,8.0747 188.884,9.5247 187.819,11.2817 C186.997,9.2037 186.396,7.6847 185.434,5.2527 C184.096,7.7817 183.317,9.2547 182.22,11.3257 C181.194,9.0187 180.452,7.3477 179.153,4.4257 C178.108,7.7497 177.543,9.5427 176.702,12.2227 C175.442,9.6007 174.583,7.8117 173.342,5.2297 C172.475,7.3917 171.918,8.7767 171.187,10.5987 C170.062,9.0457 169.137,7.7667 167.702,5.7857 M11.625,428.8937 C11.213,428.8347 10.8,428.7757 10.387,428.7157 C9.993,435.8507 9.182,442.9907 9.276,450.1177 C9.689,481.2467 10.633,512.3707 10.84,543.4997 C10.958,561.1337 9.566,578.7767 9.655,596.4097 C9.877,640.2097 10.512,684.0087 11.118,727.8057 C11.189,732.9387 11.922,738.0857 12.672,743.1787 C14.883,758.1747 21.33,771.7537 27.581,785.3037 C29.438,789.3267 33.212,792.6157 36.56,795.7597 C39.57,798.5857 43.242,800.6977 46.548,803.2197 C62.913,815.7067 81.337,824.2007 101.28,828.3947 C119.44,832.2117 137.957,835.0657 156.457,836.3787 C189.332,838.7127 222.227,838.9057 255.022,833.5517 C281.2,829.2797 303.731,818.9927 322.154,799.5457 C335.887,785.0477 346.782,769.7517 347.145,748.6067 C347.798,710.5327 351.128,672.5447 349.301,634.3767 C348.02,607.6087 348.532,580.7547 348.184,553.9397 C347.819,525.6267 347.045,497.3147 347.067,469.0017 C347.092,437.2037 347.519,405.3997 348.352,373.6127 C348.756,358.1697 347.569,342.9647 339.532,329.7527 C323.983,304.1947 307.707,279.0567 291.037,254.2117 C280.385,238.3387 267.927,223.6757 257.31,207.7807 C247.662,193.3367 242.024,177.4287 239.495,159.7067 C236.271,137.1087 229.479,115.0317 224.55,92.6577 C222.302,82.4517 220.814,72.0767 219.02,61.7717 C218.46,58.5607 218.1,55.1627 213.597,55.5457 C210.834,55.7817 208.1,56.3577 205.141,56.8127 C206.297,66.8237 207.346,76.5597 208.561,86.2757 C210.706,103.4317 213.051,120.5647 215.127,137.7297 C217.004,153.2377 218.43,168.8017 220.445,184.2897 C221.821,194.8677 226.913,204.0927 232.236,213.1617 C233.241,214.8737 233.666,216.9237 234.36,218.8187 C233.836,219.0177 233.313,219.2177 232.79,219.4177 C228.244,211.0517 221.913,203.1577 219.546,194.2157 C215.413,178.5937 213.443,162.3657 211.127,146.3117 C210.097,139.1667 210.836,131.7817 210.071,124.5807 C207.665,101.9647 204.924,79.3847 202.368,57.2527 L158.036,57.2527 C158.558,63.7717 158.714,69.2737 159.62,74.6487 C159.86,76.0757 162.24,77.8167 163.916,78.2027 C168.833,79.3337 172.81,77.4767 176.287,73.6847 C180.34,69.2637 184.911,65.3187 189.258,61.1667 C189.59,61.5047 189.922,61.8427 190.255,62.1807 C185.282,67.4097 180.307,72.6397 175.333,77.8687 C175.657,78.2057 175.981,78.5427 176.305,78.8807 C183.216,72.3597 190.127,65.8397 197.04,59.3187 L198.452,60.8407 C192.439,66.4977 186.426,72.1557 179.665,78.5187 C187.505,78.2407 189.065,70.3717 195.803,67.9427 C192.407,71.8827 189.862,74.8347 186.995,78.1607 C188.747,78.1607 190.282,78.6337 190.906,78.0807 C193.899,75.4267 196.646,72.4947 200.024,69.1177 C198.277,72.9787 196.838,76.1587 195.399,79.3397 C195.682,79.8957 195.964,80.4507 196.248,81.0077 C184.59,81.7997 172.932,82.5927 160.81,83.4157 C161.594,102.6537 162.374,121.7477 163.198,141.9097 C167.15,136.6947 169.766,131.8757 176.274,131.5647 C174.844,134.3317 173.264,137.1807 170.87,138.8927 C165.776,142.5327 162.624,147.6567 163.874,151.9497 C170.992,143.5257 178.061,135.1607 185.129,126.7967 C185.514,127.0897 185.9,127.3827 186.286,127.6767 C185.041,129.7557 183.977,131.9727 182.518,133.8867 C178.985,138.5207 175.643,143.3897 171.543,147.4817 C164.182,154.8277 161.391,163.3957 161.917,173.6477 C162.182,178.8067 160.999,184.0407 160.471,189.2407 C160.032,189.2157 159.59,189.1907 159.15,189.1657 C158.975,187.3877 158.621,185.6057 158.656,183.8317 C158.926,170.1827 159.767,156.5257 159.474,142.8907 C159.075,124.2627 157.803,105.6547 156.97,87.0337 C156.821,83.7067 155.456,82.0367 152.03,81.3427 C146.727,80.2677 141.545,78.5977 136.313,77.1807 C136.442,76.5257 136.57,75.8707 136.698,75.2157 C142.588,75.9727 148.48,76.7307 154.766,77.5387 L154.766,57.2937 C148.124,57.7717 141.831,58.0357 135.602,58.8157 C134.169,58.9947 132.594,60.7257 131.733,62.1377 C130.45,64.2377 129.827,66.7277 128.774,68.9827 C125.698,75.5777 120.678,80.0637 113.491,81.3647 C101.079,83.6107 88.604,85.5147 76.14,87.4587 C57.634,90.3447 41.608,97.8237 33.131,115.2777 C28.577,124.6547 26.135,135.3197 24.254,145.6787 C20.372,167.0737 17.291,188.6237 14.322,210.1697 C13.173,218.5027 11.977,227.1627 13.041,235.3837 C14.393,245.8147 17.367,256.1777 20.815,266.1657 C27.098,284.3707 27.641,303.0257 25.805,321.7387 C25.061,329.3167 19.979,336.4857 19.32,344.0527 C17.707,362.5767 16.96,381.2247 16.924,399.8237 C16.893,416.2807 18.395,432.7347 19.019,449.1977 C19.405,459.3477 19.284,469.5157 19.616,479.6677 C20.707,512.9367 22.68,546.1967 22.88,579.4677 C23.205,633.2727 22.263,687.0847 22.27,740.8947 C22.27,745.8407 25.11,750.8417 26.913,755.7127 C27.885,758.3377 29.454,760.7427 30.753,763.2467 C30.165,763.5967 29.575,763.9467 28.985,764.2967 C25.78,759.8747 20.627,756.3597 20.276,750.4557 C18.658,723.2237 16.737,695.9727 16.38,668.7087 C15.887,630.9747 17.049,593.2197 16.807,555.4787 C16.676,534.8847 15.07,514.3017 14.206,493.7097 C13.297,472.1067 12.482,450.4987 11.625,428.8937 M118.428,39.6417 C116.161,33.0767 118.663,27.5507 120.789,22.2747 C121.879,19.5697 122.321,17.6407 121.047,14.9667 C117.479,7.4687 117.995,7.0377 125.979,5.4247 C147.155,1.1457 168.54,0.4337 190.064,0.4897 C203.306,0.5227 216.309,1.1667 228.942,5.4137 C230.186,5.8317 231.427,6.2567 233.25,6.8747 C227.985,13.3907 234.397,18.8187 234.363,24.8957 C234.349,27.3347 235.528,29.7667 235.64,32.2267 C235.709,33.7507 234.844,35.3367 234.307,36.8637 C233.833,38.2157 233.217,39.5177 232.69,40.8527 C231.296,44.3727 229.57,47.8077 228.629,51.4467 C227.706,55.0247 226.682,58.9557 227.248,62.4847 C234.088,105.1657 246.528,146.5847 256.068,188.6627 C258.521,199.4827 264.448,208.6387 271.047,217.6377 C294.564,249.7027 318.779,281.2497 339.465,315.3757 C349.166,331.3807 354.233,348.1337 354.727,366.2137 C355.339,388.6497 354.331,411.1257 354.245,433.5857 C354.125,464.3837 354.09,495.1837 354.246,525.9817 C354.457,568.1277 354.967,610.2727 355.182,652.4177 C355.305,676.5487 355.586,700.6967 354.889,724.8097 C354.284,745.7797 353.065,767.0937 342.086,785.7047 C332.279,802.3327 319.265,816.2677 301.383,824.9577 C277.526,836.5527 252.254,841.6257 225.93,843.7087 C194.866,846.1677 164.147,843.1177 133.278,840.9787 C111.321,839.4557 91.36,831.1647 70.508,825.7887 C54.93,821.7737 43.666,811.9747 32.679,801.9927 C25.252,795.2447 18.481,786.2307 15.093,776.8957 C7.582,756.2017 3.897,734.5427 3.953,712.1967 C4.069,665.5537 3.307,618.9087 2.956,572.2657 C2.588,523.6227 2.333,474.9807 1.918,426.3387 C1.778,409.8547 1.78,393.3467 0.856,376.8987 C-0.337,355.6337 4.303,335.5467 11.933,316.0577 C17.776,301.1327 18.229,286.3717 13.383,271.2247 C7.338,252.3327 4.291,233.0957 7.089,213.2187 C8.549,202.8467 10.161,192.4827 11.143,182.0627 C13.053,161.7937 17.93,142.1397 22.844,122.4847 C27.332,104.5317 37.778,91.1167 55.184,84.6727 C70.24,79.0977 85.925,75.2237 101.329,70.5877 C105.935,69.2007 110.565,67.8807 115.12,66.3427 C121.018,64.3507 123.697,56.4407 119.581,51.8777 C115.659,47.5287 114.934,43.6297 118.428,39.6417" id="Fill-2768"></path>
                <path d="M307.4634,349.8877 C308.0264,349.9797 308.5904,350.0727 309.1534,350.1647 C311.1624,340.3537 313.2614,330.5597 315.0744,320.7117 C315.3194,319.3847 314.1374,317.7937 313.6144,316.3247 C313.1784,316.4127 312.7404,316.5007 312.3034,316.5897 C310.9464,327.7217 306.4514,338.4507 307.4634,349.8877 M209.2964,287.0077 C216.1174,279.0487 221.7954,271.9357 228.0354,265.3577 C230.9734,262.2607 230.6064,260.2627 227.2154,257.0197 C221.1154,266.0337 215.1764,274.7487 209.3544,283.5417 C208.9104,284.2127 209.2964,285.4327 209.2964,287.0077 M285.1274,272.3497 C284.3994,272.5027 283.6684,272.6567 282.9384,272.8087 C282.1994,283.1567 281.3914,293.4997 280.8184,303.8577 C280.7524,305.0527 282.0074,306.3227 282.6494,307.5567 C285.0414,297.8567 286.4884,288.5827 287.3774,279.2567 C287.5884,277.0457 285.9284,274.6567 285.1274,272.3497 M314.4594,475.8067 C314.8814,475.9077 315.3034,476.0067 315.7264,476.1077 C318.5044,466.0977 321.3184,456.0987 324.0524,446.0767 C326.7374,436.2347 329.3424,426.3697 331.9814,416.5147 C331.5674,416.4247 331.1544,416.3357 330.7404,416.2457 C325.3134,432.3597 319.6944,448.4117 314.6134,464.6337 C313.5474,468.0397 314.4594,472.0667 314.4594,475.8067 M314.6024,590.1117 C319.7934,577.4247 324.9844,564.7397 330.1764,552.0537 C329.6444,551.8257 329.1114,551.5987 328.5804,551.3707 C325.3424,558.9147 322.1044,566.4597 318.8654,574.0047 C318.4104,573.8197 317.9554,573.6337 317.5004,573.4497 C321.8084,563.0637 326.1144,552.6767 330.4224,542.2907 C329.8294,542.0927 329.2364,541.8957 328.6454,541.6977 C323.4124,557.6397 310.5774,571.0497 314.6024,590.1117 M330.1994,350.0947 C329.3794,350.0537 328.5594,350.0117 327.7384,349.9707 C322.9254,366.4497 318.0614,382.9127 313.3674,399.4257 C312.8464,401.2637 313.2974,403.3777 313.2974,405.3647 C314.8174,403.8117 315.5094,402.1777 316.0704,400.5007 C320.2764,387.9547 324.6474,375.4597 328.5294,362.8147 C329.7664,358.7837 329.6804,354.3467 330.1994,350.0947 M332.0924,397.8787 C331.6564,397.8287 331.2224,397.7787 330.7874,397.7287 C330.5104,398.1187 330.1294,398.4717 329.9734,398.9057 C324.7314,413.4137 319.2464,427.8437 314.4694,442.5047 C313.2514,446.2437 314.2864,450.7177 314.2864,454.8537 C315.5744,454.2257 316.0024,453.5437 316.2454,452.8007 C321.3404,437.1967 326.4964,421.6097 331.4104,405.9477 C332.1994,403.4347 331.8934,400.5767 332.0924,397.8787 M330.9844,365.1587 C330.5464,365.0277 330.1094,364.8967 329.6714,364.7657 C324.3044,382.5307 318.9374,400.2937 313.5704,418.0577 C314.0844,418.2257 314.6004,418.3937 315.1134,418.5617 C319.9204,404.9007 324.7274,391.2397 329.5324,377.5777 C329.6854,380.4657 329.3304,383.2417 328.4704,385.8527 C323.9044,399.7107 319.1564,413.5097 314.6084,427.3737 C313.6924,430.1687 313.3644,433.1577 312.7664,436.0557 C313.2864,436.1647 313.8084,436.2737 314.3284,436.3827 C320.5454,412.8027 336.0174,391.4687 330.9844,365.1587 M317.1274,321.6847 C314.8954,332.7207 312.9804,342.1797 310.9534,352.1907 C312.6144,351.8127 314.2624,351.7627 314.3494,351.3677 C315.8914,344.3957 317.2444,337.3797 318.6394,330.3737 C318.8804,330.3817 319.1214,330.3897 319.3634,330.3967 C319.0624,336.6767 318.7604,342.9567 318.4244,349.9577 C319.5784,346.7097 320.5044,344.1067 321.4304,341.5027 C321.3654,357.2827 312.2524,371.3197 313.4634,387.2627 C314.2684,386.6897 314.7774,386.0377 315.0054,385.3007 C319.0494,372.1657 323.1244,359.0387 327.0034,345.8547 C327.5344,344.0487 327.6944,341.6397 326.9284,340.0347 C324.1664,334.2607 320.9364,328.7107 317.1274,321.6847 M316.2744,557.8647 C315.8884,557.6987 315.5024,557.5337 315.1174,557.3677 C315.8654,555.4537 316.5584,553.5167 317.3704,551.6307 C321.0444,543.0987 324.9054,534.6427 328.3624,526.0247 C329.5614,523.0377 329.7874,519.6607 330.4574,516.4627 L328.9104,516.0297 C325.1954,524.4297 321.4804,532.8297 317.7654,541.2307 C319.8814,526.1497 330.6844,513.7377 330.2604,498.2907 C325.6294,509.2147 321.2154,520.4107 316.1714,531.3167 C310.7364,543.0687 313.9734,555.0697 313.4174,566.9607 L314.7624,567.2277 C320.0004,555.4457 325.2384,543.6617 330.4774,531.8797 C330.0404,531.6857 329.6044,531.4917 329.1684,531.2967 C324.8694,540.1527 320.5714,549.0077 316.2744,557.8647 M289.9024,278.5087 C289.1044,280.4297 288.6404,281.1217 288.5354,281.8637 C287.3394,290.4157 286.1114,298.9657 285.1214,307.5427 C284.9484,309.0357 285.4734,310.8817 286.2914,312.1737 C292.1434,321.4087 298.1474,330.5487 304.1364,339.6977 C304.4514,340.1807 305.0704,340.4647 306.3154,341.4447 C307.8954,331.7837 309.4844,322.8177 310.7284,313.8027 C310.9574,312.1427 309.7884,310.2887 309.2644,308.5247 C308.8644,308.5847 308.4654,308.6467 308.0654,308.7067 C307.4064,314.8407 306.7464,320.9757 306.0884,327.1097 C305.3934,323.5757 304.7754,319.9857 305.5134,316.6997 C307.3914,308.3397 305.9654,301.1087 300.5634,294.3377 C296.8044,289.6267 293.7794,284.3297 289.9024,278.5087 M231.9224,264.8597 C223.6644,271.0157 212.1004,287.4907 213.5224,290.9897 C217.9394,285.0707 222.3424,279.1697 226.7464,273.2687 C227.2684,273.6597 227.7894,274.0517 228.3114,274.4427 C225.6064,278.3227 223.1234,282.3867 220.1214,286.0227 C217.7634,288.8807 217.5744,291.3067 219.1604,294.6197 C222.5114,301.6177 225.6004,308.7547 228.4794,315.9617 C230.8854,321.9827 232.8384,328.1837 235.3974,335.4547 C239.2014,323.5297 242.7004,312.7017 246.0574,301.8297 C246.4224,300.6497 246.3104,299.0737 245.8344,297.9207 C241.3424,287.0417 236.7234,276.2147 231.9224,264.8597 M247.8524,303.2127 C244.7194,312.5837 241.8504,321.3697 238.8224,330.1017 C237.8614,332.8727 235.1664,335.6917 235.5274,338.1577 C236.8454,347.1627 239.0324,356.0497 241.1874,364.9087 C241.3654,365.6467 244.1374,366.5847 245.0184,366.1227 C246.3084,365.4447 247.1154,363.6587 247.8904,362.2177 C251.4124,355.6657 254.8504,349.0707 258.3184,342.4907 C258.7194,342.6807 259.1194,342.8697 259.5204,343.0607 C255.9144,350.4787 252.3094,357.8957 248.5944,365.5387 C255.0304,367.4177 258.1584,364.1677 260.7544,358.8537 C260.9814,361.0407 261.1334,362.5187 261.4184,365.2667 C265.4884,363.0517 268.8014,361.2487 272.1274,359.4387 C272.5314,359.6907 273.3594,360.2037 274.1864,360.7177 C274.6174,360.4517 275.0494,360.1877 275.4814,359.9217 C270.5704,347.7327 265.6604,335.5417 260.8114,323.5007 C256.2524,332.9997 251.7254,342.4317 247.1984,351.8637 C246.8144,351.6867 246.4294,351.5097 246.0444,351.3317 C246.5344,350.1707 247.0094,349.0027 247.5184,347.8507 C250.8634,340.2647 254.3654,332.7417 257.5174,325.0767 C259.6644,319.8557 258.5334,317.0837 254.0714,314.6067 C250.1974,323.6197 246.3174,332.6517 242.4364,341.6827 C242.0064,341.4927 241.5774,341.3047 241.1494,341.1157 C244.5474,332.3347 247.9384,323.5507 251.3484,314.7747 C253.0474,310.3997 252.3734,306.6717 247.8524,303.2127 M245.8074,502.4537 C254.5744,483.9037 263.3404,465.3527 272.1074,446.8007 L273.6214,447.5097 C263.5084,468.7877 253.3954,490.0677 243.2814,511.3467 C242.8524,511.2837 242.4224,511.2207 241.9924,511.1577 C242.8524,482.1757 244.5924,453.1847 242.6604,424.2357 C242.2424,424.2307 241.8234,424.2257 241.4044,424.2207 L241.4044,447.4917 L240.2154,447.5537 C240.1254,445.7017 239.9854,443.8507 239.9554,441.9967 C239.6604,423.8497 239.3854,405.7017 239.1004,387.5547 C239.0864,386.7217 239.0884,385.8837 238.9964,385.0587 C238.5734,381.2637 239.3264,376.4757 237.2854,374.0027 C235.7314,372.1187 230.6064,373.2637 227.0874,372.8867 C225.1334,372.6777 223.2164,372.1127 220.8564,371.6177 C224.5614,365.2107 230.9404,369.1087 236.0654,367.2927 C236.0964,366.7797 236.3364,365.9697 236.1604,365.2637 C233.4514,354.3417 231.3094,343.2267 227.7594,332.5817 C224.3044,322.2197 219.6704,312.2117 215.0024,302.3087 C212.7724,297.5777 209.5474,293.2197 206.2254,289.1387 C204.3134,286.7887 204.3874,285.3417 206.0344,283.1157 C212.3714,274.5567 218.6354,265.9417 224.7644,257.2327 C225.6904,255.9157 225.7554,253.9937 226.2194,252.3517 C225.5374,252.0327 224.8584,251.7127 224.1784,251.3927 C217.8634,260.4927 211.5494,269.5927 205.2364,278.6927 C204.8594,278.4687 204.4824,278.2457 204.1054,278.0217 C204.9304,276.5577 205.6564,275.0277 206.5964,273.6407 C211.6394,266.2007 216.6854,258.7597 221.8424,251.3987 C223.6234,248.8577 224.1354,246.6507 220.7364,244.0397 C215.8264,251.1527 210.9384,258.2327 206.0504,265.3127 C209.0254,255.7607 216.9774,248.7627 219.6254,239.1737 C219.0934,238.8787 218.5614,238.5827 218.0284,238.2867 C214.9554,242.6707 211.8814,247.0537 208.8084,251.4367 C208.4184,251.1937 208.0274,250.9497 207.6374,250.7067 C210.2184,246.3947 212.6944,242.0157 215.4174,237.7947 C217.0904,235.2017 217.6524,232.9947 214.5374,230.8657 C210.6644,235.9987 206.7854,241.1377 202.9084,246.2767 C204.4654,238.3927 212.3794,233.5367 213.2894,225.4387 C212.7784,225.1357 212.2684,224.8317 211.7564,224.5287 C207.7274,229.9657 203.6964,235.4027 199.6664,240.8397 C201.6794,232.7247 209.7034,227.5757 210.7574,219.1357 C210.2144,218.8327 209.6714,218.5297 209.1284,218.2267 C205.8564,222.7467 202.5844,227.2667 199.3134,231.7877 C198.9564,231.5747 198.6014,231.3607 198.2444,231.1467 C200.7634,227.1277 203.3604,223.1567 205.7704,219.0737 C207.1884,216.6687 209.9884,214.3487 206.6764,211.1777 C206.2854,210.8047 207.4264,208.8317 208.2834,206.3827 C217.9184,227.6177 227.0154,247.5297 235.9784,267.5017 C238.9404,274.1027 241.4994,280.8837 244.3684,287.5277 C245.1524,289.3417 246.1194,291.2197 247.4664,292.6237 C261.0414,306.7917 268.4064,324.4007 275.2774,342.3067 C277.0024,346.7997 279.0824,351.1597 280.6894,355.6907 C281.6094,358.2847 283.0084,359.0107 285.5674,358.4287 C291.5684,357.0647 297.5974,355.8157 304.8914,354.2447 C303.2104,349.1627 302.6284,343.7007 299.8604,339.7807 C293.4774,330.7367 285.8104,322.6117 279.0684,313.8027 C268.5674,300.0787 258.3894,286.1057 248.1244,272.2007 C247.6004,271.4917 247.5554,270.4287 247.0104,268.6067 C253.8374,275.9747 259.9774,282.6007 267.0744,290.2617 C268.3474,280.3407 269.4734,271.5577 270.6004,262.7767 C270.9774,262.8227 271.3564,262.8687 271.7334,262.9147 C271.1544,269.9067 271.3014,277.0547 269.8204,283.8497 C267.8784,292.7647 273.5204,297.2337 279.2164,303.4797 C279.9004,291.6077 280.6474,280.8577 281.0134,270.0957 C281.0744,268.2917 279.4884,266.4327 278.6644,264.5987 C278.0234,264.7087 277.3814,264.8187 276.7394,264.9277 L276.7394,290.5617 C276.1424,290.5437 275.5434,290.5257 274.9454,290.5077 C274.9454,283.9387 274.6844,277.3557 275.0154,270.8037 C275.3944,263.3157 273.1074,256.5937 269.3444,250.4757 C265.7074,244.5597 260.8584,239.3887 257.2274,233.4707 C253.1384,226.8017 249.8174,219.6617 246.1624,212.7267 C246.6274,212.4827 247.0924,212.2387 247.5574,211.9937 C248.1934,212.8997 248.8414,213.7977 249.4674,214.7117 C265.0234,237.4507 280.7534,260.0737 296.0684,282.9737 C306.0494,297.8987 315.4274,313.2277 325.0734,328.3757 C331.3654,338.2547 333.4654,349.4897 333.8304,360.7637 C334.4884,381.0357 334.0694,401.3447 334.0804,421.6377 C334.0814,422.7977 334.3154,424.2277 333.7524,425.0767 C325.6154,437.3637 326.7794,452.6277 320.8304,465.5207 C311.3594,486.0427 314.8774,507.9827 313.1004,529.3457 C313.0674,529.7407 313.3564,530.1607 313.7904,531.4467 C323.2034,514.0127 328.5474,495.9887 332.8384,476.7207 L332.8384,589.9697 C332.0304,589.9797 331.2234,589.9897 330.4154,589.9997 L330.4154,562.1287 C329.8894,562.0487 329.3634,561.9687 328.8384,561.8877 C328.3204,562.7197 327.6834,563.4997 327.3054,564.3907 C323.9364,572.3367 321.1004,580.5547 317.1494,588.1987 C312.5984,597.0017 313.6484,606.2687 313.1604,615.4967 C312.8284,621.7727 311.9884,628.0217 311.3764,634.2827 C310.9304,634.2867 310.4844,634.2907 310.0384,634.2957 C309.7564,631.3617 309.2154,628.4257 309.2334,625.4937 C309.5104,580.3527 309.9734,535.2107 310.1544,490.0697 C310.2774,459.5147 310.2774,428.9547 309.8144,398.4057 C309.6474,387.4617 308.0464,376.5327 306.8954,365.6177 C306.6424,363.2157 305.5224,360.9037 304.6504,358.0617 C297.6004,360.5277 290.8294,362.6797 284.2854,365.3797 C283.1024,365.8687 282.1864,368.6397 282.2664,370.3027 C282.9674,384.7597 284.2194,399.1947 284.7454,413.6567 C286.1374,451.9157 288.4714,490.1757 285.9404,528.4767 C285.5524,534.3507 284.8954,540.2067 283.6274,545.9967 L283.6274,508.2297 C283.1644,508.0627 282.7024,507.8957 282.2404,507.7287 C277.2114,517.5767 272.1824,527.4267 267.1524,537.2767 C266.7604,537.0857 266.3694,536.8967 265.9774,536.7067 C267.8754,532.5727 269.2994,528.1287 271.7534,524.3567 C282.4214,507.9617 284.5204,489.9927 283.2274,470.9507 C281.1334,440.0957 279.7544,409.1927 278.0094,378.3147 C277.8714,375.8877 277.2294,373.4917 275.8784,370.7737 C268.8714,386.3467 261.8654,401.9207 254.8584,417.4947 C254.3204,417.2607 253.7814,417.0257 253.2444,416.7907 C260.3914,400.5157 267.5384,384.2407 274.7544,367.8077 C270.3524,366.2127 268.1174,368.9547 266.2404,372.2907 C261.9204,379.9687 257.6504,387.6747 253.3424,395.3597 C252.5544,396.7647 251.6794,398.1217 250.8444,399.5017 C250.4794,399.3027 250.1134,399.1037 249.7474,398.9057 C254.8144,389.5227 259.8804,380.1407 264.9504,370.7517 C260.0474,368.5117 257.3634,369.1297 254.9304,373.3757 C252.1334,378.2567 249.5864,383.2827 245.9574,387.7757 C248.6634,382.2607 251.3694,376.7447 254.0924,371.1967 C246.5294,369.0137 242.2884,371.8437 242.3974,381.5867 C242.5684,396.8737 243.9534,412.1467 244.7964,427.4267 C245.1294,433.4667 245.3894,439.5097 245.7264,446.4437 C254.3054,429.7137 262.3324,414.0617 270.3594,398.4087 C270.8304,398.6517 271.3024,398.8947 271.7744,399.1367 C267.4794,407.6597 263.1724,416.1777 258.8994,424.7107 C257.7094,427.0857 256.7404,429.5777 255.4594,431.8997 C247.2754,446.7257 244.4944,462.6827 244.9814,479.4497 C245.1504,485.2497 244.4264,491.0747 244.1544,496.8917 C244.0724,498.6217 244.1414,500.3597 244.1414,502.0937 C244.6964,502.2137 245.2524,502.3337 245.8074,502.4537" id="Fill-2770"></path>
                <path d="M39.8149,218.9609 C40.1269,219.0379 40.4419,219.1139 40.7549,219.1909 C40.9829,222.3319 40.6999,225.6179 41.5369,228.5869 C44.0109,237.3609 55.1739,240.4999 62.7089,234.7639 C72.2949,227.4639 79.1079,217.8369 85.0339,207.5679 C95.6319,189.1999 100.7589,168.8799 104.9219,148.3749 C106.4059,141.0659 106.6429,133.2259 105.8399,125.8029 C104.8429,116.5979 98.0979,111.3499 89.0729,112.6539 C78.9969,114.1099 69.6969,117.3829 63.4829,126.9499 C56.1019,138.3109 53.0969,150.8779 50.6239,163.8079 C47.1039,182.2089 43.4249,200.5779 39.8149,218.9609 M88.7389,217.1549 C90.0099,215.6819 91.2819,214.2099 92.5529,212.7369 C90.6549,223.1749 82.0159,229.8289 77.6889,238.8569 C78.1979,239.1779 78.7059,239.4999 79.2129,239.8219 C85.5499,230.3449 92.3909,221.1599 98.0809,211.3099 C103.6679,201.6369 108.0849,191.2899 113.3069,180.6429 C112.9439,182.4589 112.8169,183.7479 112.4239,184.9509 C105.3809,206.4989 95.3659,226.3749 80.1159,243.4319 C77.4199,246.4469 75.3589,250.2349 73.7579,253.9879 C68.0939,267.2739 56.4489,269.9749 46.6219,259.3169 C35.1969,246.9269 30.1509,232.1239 33.5789,215.1689 C38.2159,192.2239 43.3809,169.3799 47.6039,146.3609 C49.1999,137.6649 52.1549,129.7569 56.5589,122.3459 C62.6649,112.0739 85.1189,102.9769 96.7099,105.6819 C105.7499,107.7919 112.2829,115.8519 113.1099,125.9949 C114.1079,138.2279 112.6779,150.2039 109.3579,162.0019 C105.0969,177.1449 102.2249,192.7559 93.9919,206.5299 C91.9759,209.9019 90.0709,213.3409 88.1159,216.7499 C88.3229,216.8849 88.5319,217.0199 88.7389,217.1549" id="Fill-2772"></path>
                <path d="M139.5571,385.665 C135.8111,391.068 126.0181,392.83 130.5441,402.686 C136.3021,398.5 142.0221,394.341 147.7431,390.182 C148.0861,390.614 148.4301,391.046 148.7741,391.478 C144.5001,394.819 140.4301,398.474 135.9011,401.423 C130.2041,405.133 128.3281,409.828 130.5391,416.378 C140.3101,409.32 150.0491,402.285 159.7891,395.25 C160.0861,395.65 160.3831,396.051 160.6801,396.452 C154.5881,401.143 148.4951,405.833 142.4051,410.526 C139.5001,412.763 136.6841,415.124 133.6801,417.216 C130.2281,419.62 128.9961,422.614 130.4941,426.841 C141.3641,418.459 152.1641,410.131 162.9651,401.803 C163.3271,402.266 163.6881,402.728 164.0501,403.192 C159.7461,406.637 155.4321,410.067 151.1421,413.529 C145.6961,417.923 140.3711,422.474 134.8031,426.707 C130.1221,430.267 128.4521,434.499 130.7291,440.366 C139.9461,433.69 149.0771,427.075 158.2071,420.461 C158.4521,420.694 158.6951,420.929 158.9381,421.163 C158.3521,421.899 157.8841,422.789 157.1621,423.351 C149.4021,429.381 141.6451,435.419 133.7931,441.328 C129.9891,444.189 128.4871,447.534 130.7391,452.458 C142.3261,444.391 153.8251,436.384 165.3241,428.377 C165.5591,428.685 165.7931,428.992 166.0281,429.3 C164.9861,430.181 164.0001,431.142 162.8931,431.932 C154.6211,437.833 146.3521,443.737 138.0301,449.568 C129.3871,455.624 129.3621,455.589 130.3231,467.106 C134.6851,463.863 138.6871,460.818 142.7631,457.878 C146.8561,454.927 151.0221,452.078 155.1561,449.185 C155.3931,449.523 155.6291,449.862 155.8661,450.201 C150.1951,454.394 144.8091,459.066 138.7821,462.66 C130.9871,467.308 127.8481,473.38 130.8031,482.585 C139.9551,475.606 149.2791,468.495 158.6031,461.385 C158.8931,461.759 159.1821,462.133 159.4721,462.507 C152.0701,468.555 144.8831,474.896 137.1911,480.549 C131.8401,484.48 129.6821,488.864 129.8761,495.677 C130.3971,513.965 130.0541,532.276 130.0541,546.648 C129.4691,537.438 128.6331,524.258 127.7971,511.077 L126.6191,511.062 L126.6191,541.864 C126.1871,541.862 125.7541,541.859 125.3231,541.857 C125.3231,530.378 125.1161,518.894 125.3691,507.421 C125.7661,489.618 127.0921,471.816 126.8911,454.026 C126.6611,433.63 124.9911,413.253 124.4441,392.854 C124.3381,388.938 126.5371,384.96 127.7781,380.654 C129.1061,381.286 130.6451,382.019 132.0701,382.697 C131.1101,385.155 130.2081,387.463 129.3071,389.77 C129.7001,390.081 130.0921,390.393 130.4851,390.703 C133.5091,389.024 136.5341,387.345 139.5571,385.665" id="Fill-2774"></path>
                <path d="M130.4146,118.3794 C130.4146,128.3014 130.7996,138.2404 130.3386,148.1414 C129.2196,172.1924 122.1336,195.2114 117.7086,218.6974 C113.4786,241.1454 102.7816,260.8244 92.5836,280.7794 C91.0006,283.8764 89.4476,287.0164 88.2466,290.2714 C86.8516,294.0524 84.2026,295.5954 80.0486,295.8794 C113.9736,241.3034 125.4356,180.8834 128.5826,118.1854 C129.1926,118.2504 129.8046,118.3144 130.4146,118.3794" id="Fill-2776"></path>
                <path d="M254.8647,745.334 C222.2547,738.672 189.3947,739.878 156.4417,741.665 C123.2247,743.468 92.9007,755.382 62.6027,767.682 C87.8447,740.909 211.1457,726.692 254.8647,745.334" id="Fill-2778"></path>
                <path d="M34.6479,497.8535 C35.1289,501.3675 35.5669,504.8875 36.1029,508.3925 C36.6509,511.9825 37.2949,515.5565 37.8929,519.1085 L37.8929,508.7655 L38.3679,508.7895 L38.3679,686.8565 C34.8259,657.5945 36.7199,628.0695 34.3969,598.7155 C33.7399,604.3815 33.0819,610.0475 32.4229,615.7135 C31.8989,615.6715 31.3759,615.6295 30.8509,615.5875 C34.8699,576.4535 35.9189,537.2725 33.2759,498.0365 C33.7329,497.9745 34.1899,497.9145 34.6479,497.8535" id="Fill-2780"></path>
                <path d="M36.2788,773.8281 C37.9588,774.8611 39.8828,775.6371 41.2778,776.9681 C50.2878,785.5731 59.1358,794.3491 68.1318,802.9711 C74.8698,809.4281 83.5768,812.0581 92.2568,814.2271 C100.9288,816.3931 109.8758,817.4461 118.6368,819.2901 C122.1738,820.0341 125.5398,821.5821 128.7978,823.2531 C93.1228,828.0121 51.9788,806.4571 35.5458,775.0621 C35.7908,774.6511 36.0348,774.2391 36.2788,773.8281" id="Fill-2782"></path>
                <path d="M89.8765,778.2324 C91.0535,777.2744 92.1115,776.0994 93.4225,775.3914 C118.6915,761.7394 145.6705,754.1674 174.4085,753.8054 C180.8795,753.7234 187.4625,755.6784 193.8495,757.2744 C209.7685,761.2514 225.6055,765.5554 241.4715,769.7494 C242.5365,770.0304 243.5605,770.4734 244.3955,771.9654 C239.5365,771.3854 234.5455,771.3274 229.8445,770.1284 C213.2825,765.9084 196.9935,760.3954 180.2525,757.1984 C171.3745,755.5034 161.6535,756.7414 152.5315,758.1074 C132.3035,761.1384 113.7015,769.3224 95.3325,777.9754 C93.8365,778.6804 92.1465,778.9764 90.5455,779.4624 C90.3225,779.0524 90.1005,778.6424 89.8765,778.2324" id="Fill-2784"></path>
                <path d="M311.5552,744.8379 C310.8282,711.3839 310.1072,678.2029 309.3812,644.8279 C314.3442,651.7559 316.2442,737.3509 311.5552,744.8379" id="Fill-2786"></path>
                <path d="M105.6841,375.7031 C109.9871,370.5281 111.4971,370.2681 127.2201,371.5891 C125.3571,373.4181 124.2521,375.4671 123.0201,375.5471 C117.5161,375.9061 111.9761,375.7031 105.6841,375.7031" id="Fill-2788"></path>
                <path d="M81.7563,372.1211 C73.4723,372.8611 65.3323,371.6811 57.2343,369.9391 C57.2773,369.2641 57.3203,368.5871 57.3633,367.9101 C65.5063,368.3811 73.6493,368.8501 81.7913,369.3211 C81.7793,370.2551 81.7683,371.1871 81.7563,372.1211" id="Fill-2790"></path>
                <path d="M219.7378,368.8662 C217.0778,373.2782 214.1398,375.7562 208.9968,373.4082 C207.2118,372.5932 204.4518,373.9132 201.3818,373.4042 C202.6318,372.2012 203.7578,370.1542 205.1548,369.9482 C209.9648,369.2412 214.8688,369.1762 219.7378,368.8662" id="Fill-2792"></path>
                <path d="M176.5083,374.0986 C180.7483,369.1406 185.7723,369.7956 191.0473,370.0286 C187.8203,374.5356 182.9363,375.9576 176.5083,374.0986" id="Fill-2794"></path>
            </g>
        </g>
    </g>
</svg>