<?xml version="1.0" encoding="UTF-8"?>
<svg width="513px" height="364px" viewBox="0 0 513 364" version="1.1" xmlns="http://www.w3.org/2000/svg" xmlns:xlink="http://www.w3.org/1999/xlink">
    <!-- Generator: Sketch 49.3 (51167) - http://www.bohemiancoding.com/sketch -->
    <title>baseball-cap</title>
    <desc>Created with Sketch.</desc>
    <defs></defs>
    <g id="Welcome" stroke="none" stroke-width="1" fill="none" fill-rule="evenodd">
        <g id="Desktop-HD" transform="translate(-14.000000, -427.000000)" fill-rule="nonzero">
            <g id="baseball-cap" transform="translate(14.000000, 427.000000)">
                <path d="M491.876,242.353 C490.562,241.337 489.129,240.485 487.609,239.814 C482.045,237.065 475.916,235.655 469.71,235.697 C439.406,237.61 410.195,247.736 385.209,264.988 C380.182,268.06 378.598,274.625 381.67,279.652 C382.109,280.37 382.631,281.033 383.225,281.628 L387.492,285.895 C400.527,299.164 445.092,342.407 469.753,342.407 C500.153,342.407 512.42,304.754 512.42,289.074 C513.951,271.021 506.214,253.426 491.876,242.353 Z" id="Shape" fill="#546E7A"></path>
                <path d="M488.91,240.539 L390.35,173.552 C388.589,172.35 386.509,171.704 384.377,171.696 C319.204,171.696 158.756,211.355 93.476,243.568 C83.977,247.655 75.202,253.253 67.492,260.144 C63.551,264.086 63.309,270.398 66.937,274.629 C70.052,278.256 143.993,363.696 223.524,363.696 C276.132,363.696 319.887,334.107 362.191,305.499 C373.668,297.755 384.996,290.075 396.324,283.184 C417.834,267.728 443.273,258.661 469.711,257.029 C472.662,256.968 475.585,257.604 478.244,258.885 C483.612,261.311 489.931,258.926 492.357,253.558 C494.439,248.951 493,243.514 488.91,240.539 Z" id="Shape" fill="#CFD8DC"></path>
                <path d="M164.132,16.369 C162.751,10.827 157.249,7.356 151.652,8.497 C112.586,14.628 76.035,31.632 46.18,57.564 C13.884,90.773 -2.769,136.147 0.377,182.364 C0.621,212.054 4.323,241.615 11.406,270.449 C12.652,275.116 16.879,278.363 21.71,278.364 L75.043,278.364 C77.874,278.369 80.591,277.249 82.595,275.249 C88.596,270.075 95.379,265.885 102.691,262.833 C107.595,260.485 109.947,254.824 108.152,249.692 C81.571,173.489 78.285,115.015 98.317,75.932 C110.461,52.894 131.647,35.951 156.792,29.169 C162.272,27.555 165.507,21.912 164.132,16.369 Z" id="Shape" fill="#396D67"></path>
                <path d="M394.574,179.249 L359.993,66.524 C353.318,45.087 337.41,27.755 316.622,19.271 C263.643,-0.789 205.867,-4.504 150.755,8.604 C119.958,17.004 94.062,37.874 79.31,66.183 C56.483,110.663 59.385,174.77 87.993,256.732 C88.986,259.63 91.178,261.962 94.009,263.132 C96.842,264.288 100.036,264.171 102.777,262.812 C164.878,232.135 322.766,193.031 384.377,193.031 C390.268,193.029 395.042,188.251 395.039,182.36 C395.039,181.305 394.882,180.257 394.574,179.249 Z" id="Shape" fill="#285750"></path>
            </g>
        </g>
    </g>
</svg>