<svg id="Capa_1" data-name="Capa 1" xmlns="http://www.w3.org/2000/svg" viewBox="0 0 599.67 563.7"><defs><style>.cls-1{fill:#fff;fill-rule:evenodd;}</style></defs><title>gorra-w</title><path class="cls-1" d="M5136.22,2163.83c-4.72-.4-9.48-0.57-14.16-1.24a243.27,243.27,0,0,0-68.17.39,285,285,0,0,0-73.56,20.72,356.73,356.73,0,0,0-71.2,40.54c-16.41,12.13-32.18,25.12-48.71,37.07a75.17,75.17,0,0,1-20.38,10c-11.84,3.89-23.33-2.76-29.57-16-7.08-15-9.41-31.06-10.88-47.35-3.35-37.14-.65-74.25.35-111.37a9.07,9.07,0,0,0-2.73-7.37c-4.51-4.73-6.17-10.85-6.71-17.31-1.37-16.38.23-32.55,2.93-48.69,3-18.19,5.48-36.49,8.68-54.65,4.4-25,12.74-48.8,23.38-71.76,8.23-17.74,17.22-35.13,25.74-52.75,11-22.76,27-41.2,47-56.54,23.66-18.13,49.61-31.89,77.43-42.38,18.26-6.88,37.14-11.23,56.28-14.74,10.61-1.95,21.15-4.29,32.43-6.6,0-4.12.14-9,5.63-10.81,4.1-1.32,8.31-3.23,12.47-3.24a135.64,135.64,0,0,1,23.69,2c7.06,1.26,8.89,4.14,9.69,11.9,7.46,1.28,15.16,2.36,22.76,3.95,24.85,5.21,49.92,9.67,73.6,19.26,29.85,12.1,57.84,27.53,82.37,48.63,16.87,14.5,29.5,32.35,39.15,52.29,9.25,19.11,18.8,38.11,27.16,57.61,8,18.59,14.38,37.84,17.34,58,3.62,24.67,7.27,49.35,10.13,74.11,1.38,12,1.38,24.21,1.23,36.32-0.08,6.23-1.56,12.49-6.11,17.53-0.92,1-.94,3.08-0.95,4.67-0.17,25.49-.23,51-0.43,76.48-0.08,10.16-.36,20.33-0.74,30.48-0.07,1.93-1,3.83-1.52,5.75l-4.71-4.27c0.1-6,.34-11.93.27-17.89q-0.51-44.73-1.2-89.46c0-1.21-.35-2.93-1.18-3.53-4.48-3.24-9.15-6.2-13.76-9.26l-1.74.7c0,17.79.48,35.6-.17,53.37-0.41,11.06-2.35,22.08-4,33.06-0.38,2.54-2.31,4.86-3.53,7.28l-1.39-1.32c1.71-7.41,4.53-14.75,4.92-22.23,1.21-22.95,1.51-45.94,2.09-68.92,0-1.39-.1-3.52-1-4.09-4.55-3-9.36-5.64-14-8.34,0,15.86.22,30.84-.08,45.81-0.18,9.33-1.39,18.57-5.6,27.16-3.35,6.85-8.48,12.17-16.08,12.48-7.14.29-14.85-.31-21.45-2.81-18.61-7-36.65-15.55-55.14-22.93a381.3,381.3,0,0,0-79.45-22.08l-22.32-3.66,0.13-1.29a70.43,70.43,0,0,1,7.15.36c5.59,0.82,11.21,1.56,16.69,2.86,18.89,4.48,38.21,7.82,56.48,14.15,24.1,8.35,47.27,19.33,71,28.7,6.41,2.53,13.5,4.57,20.29,4.62,12.08,0.09,19.22-4.64,23.14-20.23,5.21-20.71,3-41.73,2.24-62.67a3.38,3.38,0,0,0-1.23-2.45c-4.63-2.77-9.37-5.36-14.55-8.28,0,5.18,0,9.32,0,13.47-0.07,11.64.12,23.3-.36,34.92a43.51,43.51,0,0,1-3,14.06c-5.85,14.7-15.34,17.55-29.93,13.64-13.18-3.53-25.64-9.84-38.28-15.22a423.54,423.54,0,0,0-67-22.33,376.79,376.79,0,0,0-84.44-10.82c-22.46-.23-44.85.5-67.18,3.46a5.39,5.39,0,0,1,2.46-1.22c6.77-.81,13.55-1.48,20.32-2.28,33.67-4,67.26-2.38,100.52,3.25a468.3,468.3,0,0,1,56.09,13.48c15.2,4.55,29.75,11.26,44.62,16.95,11.75,4.49,23.38,9.37,35.35,13.16,9.64,3.06,20.07-1.56,23.53-10,2.36-5.77,4.49-12,4.77-18.18,0.69-14.78.34-29.61,0.09-44.42,0-1.63-1.72-3.83-3.25-4.73-4.7-2.79-9.76-5-14.57-7.59a482.8,482.8,0,0,0-89.45-37.23A429.35,429.35,0,0,0,5091,1996.67c-33.1-.41-65.83,2.71-98,10.39a375.28,375.28,0,0,0-41.13,11.83c-18.35,6.67-36.36,14.33-54.26,22.16-10.92,4.78-21.51,10.38-32,16.1-13.53,7.38-26.74,15.33-40.18,22.87-9.62,5.39-17.11,10.48-16.83,24.33,0.64,31.59-3.92,63.19-.94,94.87,1.08,11.44,2.13,22.84,7.29,33.41,4.19,8.57,10.94,13.31,20.3,11.87a45.51,45.51,0,0,0,16.91-6.59c8.22-5.22,15.81-11.46,23.47-17.51,27-21.38,55.57-40.36,87-54.67l3,3.27c-1.22.82-2.4,1.73-3.68,2.44-15.35,8.52-31.17,16.29-45.95,25.71-15.07,9.61-29.1,20.84-43.61,31.33-8.7,6.3-17.15,13-26.24,18.71-11.46,7.17-22.76,4.47-29.85-6.23-0.87-1.32-1.51-2.78-2.47-4.56,1.12,13.28,11.22,22.77,23.76,22.32,10.61-.37,19.2-5.83,27.37-11.95,16.06-12,31.85-24.41,48.11-36.16,20.08-14.51,42-25.87,64.79-35.46a290.64,290.64,0,0,1,61.32-18.49c28.17-5.07,56.51-6.38,85-2.61,6.21,0.82,12.34,2.18,18.51,3.29Zm-42.84-239.43,3.5,3.41a37.23,37.23,0,0,1,.89,5.33c0.29,12.16.5,24.32,0.7,36.49,0.07,4.12,0,8.24,0,12.56H5105V1937.3l1.37-.06v45.16c73.37,2.91,140.39,23.38,203.24,58.11-31.55-15.27-63.71-29-97.52-38.71-34.16-9.77-68.88-15.67-104.74-16.27,1,1.77,2.27,3.09,3.71,3.26,16.18,1.94,32.49,3,48.55,5.67,27.23,4.45,54.11,10.76,79.73,21.19,22,8.94,43.61,18.69,65.25,28.41,7.66,3.44,14.87,7.86,22.7,12.05,0.15-1.7.71-3.54,0.27-3.82-4.89-3.17-9.93-6.1-14.93-9.09l0.38-1.08,15.07,5.82,1.44-30.77c0,6.52.12,17.65-.07,28.78-0.06,3.43,1.07,5,4.83,4.85,0.24-4.95.76-9.9,0.66-14.83-0.36-18.29-.45-36.6-1.6-54.85-0.59-9.36-4-18.52-4.73-27.88-1.52-20.75-1.75-41.59-3.19-62.35-1-13.75-5.54-26.55-12.77-38.4-8.62-14.13-17-28.39-25.48-42.62-6.38-10.75-13.09-21.18-24.32-27.67-8.48-4.9-16.58-10.62-25.46-14.62-16.6-7.48-33.32-14.94-50.59-20.61-14.92-4.89-30.67-7.22-46-10.79-30.72-7.14-61.44-8-92.45-1.42-30.22,6.43-60.71,11.89-88.64,25.81-15.39,7.67-30.24,16.44-45.11,25.1a30.11,30.11,0,0,0-9.3,8.72c-4.22,6.14-7.54,12.89-11.38,19.3-5.79,9.67-11.29,19.55-17.66,28.82s-12.59,18.55-16,29.58c-4.12,13.39-5.21,27.11-5.65,40.89-0.73,22.58-1.41,44.94-5.47,67.46-3.58,19.88-1.73,40.77-2,61.21-0.08,6.33.72,12.67,1.12,19l1.76,0.75c1.13-1.79,3.27-3.6,3.22-5.35-0.35-10.58-1.28-21.14-1.85-31.72-0.23-4.25,0-8.51,0-12.77l0.66,0,2.76,45.45a9.62,9.62,0,0,0,1.85-.45c2.5-1.32,5-2.6,7.45-4.05,23.26-14,47.88-25.12,73.18-34.73a419.25,419.25,0,0,1,86.45-23.16c17.9-2.7,36-3.92,54.07-5.67,3-.29,5-0.64,3.18-4.56-27.15.17-53.86,4.16-80.56,8.49,26.5-7.35,53.64-9.92,81.64-10.52l1.57-65.82,0.58,0v65.61h7.72c0.12-2.52.31-4.8,0.33-7.09,0.13-15.16.19-30.33,0.35-45.49A36,36,0,0,1,5093.38,1924.4Zm-210.27-111.53-1.51-.86c-6.84,10.29-14.29,20.24-20.37,31-7.27,12.82-13.29,26.35-20,39.5-10.63,20.89-20.16,42.33-25.89,65-4.7,18.63-7.19,37.81-10.89,56.7-3.53,18-6.39,36.06-5.75,54.44a70.56,70.56,0,0,0,3,18.1c2.91,9.45,7.2,10.88,15.39,5.71,6.57-4.15,12.88-8.72,19.23-13.22,0.78-.56,1.69-2.09,1.44-2.78-1.8-4.89-.06-9.81-0.34-14.71-0.71-12.46-1-24.95-1-37.43,0-17.09.25-34.2,7.24-50.42-8.83,31.67-5.77,63.82-3.83,96.16,1.55-1.44,2.68-3.16,2.67-4.86-0.2-19.81-.81-39.62-0.77-59.43,0-6.42,1.44-12.86,2.43-19.25,1.4-9,3.71-17.9,4.34-26.93,1.19-16.93,1.25-33.93,2.18-50.88,0.77-14,3.06-27.9,10.55-40.11,6.84-11.14,14.6-21.71,21.55-32.79,5.46-8.71,10.28-17.81,15.38-26.74l-1.39-1-14.3,18.09Zm399.1-17c3.4,6.07,6.72,12.29,10.32,18.34,5.5,9.25,10.52,18.89,17,27.44,10.61,14.07,18.86,29,20.65,46.71,1.32,13.07,1.59,26.24,2.48,39.36,0.94,13.91.26,28.25,3.56,41.59,3.93,15.84,4.46,31.54,4.31,47.49-0.11,11.32-.66,22.64-1.09,34-0.1,2.77.17,5,3.94,4.89,0.14-1,.33-2,0.4-2.95,2-31.81.64-63.27-5.27-94.81-3.38-18.06-2.2-37-3.07-55.5l1.44-.15a42,42,0,0,1,.85,5.48c0.33,12.32.43,24.66,0.87,37,0.22,6.29.11,12.79,1.68,18.8,6,23,6.86,46.33,6.15,69.85-0.21,7-.88,14-0.91,21a7,7,0,0,0,2.69,5c8.86,6.08,17.92,11.85,27.31,18,0.76-1.79,1.8-3.81,2.51-5.95,3.8-11.36,3.49-23.16,1.9-34.64-3.18-23-8-45.82-11.11-68.85a234.91,234.91,0,0,0-17.38-63.14c-9.7-22.16-20.63-43.81-31.82-65.27-4.8-9.19-11.61-17.33-17.51-26l-1.51,1,5.21,10.66-1.19.71C5299.2,1814.19,5293.63,1802.7,5282.21,1795.84ZM5071,1724.16h39.64c-2.18-3.12-3.22-6.28-5.3-7.29-9.74-4.75-19.81-4.62-29.83-.51C5072.06,1717.78,5069.92,1720,5071,1724.16Zm275,336.26-1.77.9c0.66,2.16.65,5.22,2.11,6.31a153.87,153.87,0,0,0,17.54,11.23c2.26,1.25,5.35,1,8.07,1.4l0.61-2Zm-254.47-70.79c1.19-6.83-2.92-4.87-5.19-5-0.83-.06-1.79,1.52-2.69,2.36Zm13.23,0c1.51-4,.7-5.51-2.25-5-1.37.25-2.57,1.42-3.85,2.18Z" transform="translate(-4790.01 -1709.85)"/><path class="cls-1" d="M5375.16,2204.56l4.71,4.27c-0.11,5.58.45,11.27-.49,16.71-1.54,9-3.19,18.1-6.4,26.55a47.9,47.9,0,0,1-11.29,17.09c-6.2,5.94-14.46,5-22.13,2.13-11.08-4.08-19.91-11.72-29.27-18.62-19.35-14.25-38.79-28.41-58.73-41.81a281,281,0,0,0-63.53-31.63c-16.23-5.72-33.08-9.68-49.64-14.45a16.53,16.53,0,0,1-2.17-1l6.45-6.52c21.86,3,42.47,10.37,62.7,18.7a324.54,324.54,0,0,1,57.87,30.69c13.06,8.79,25.69,18.2,38.52,27.32,10.92,7.77,21.31,16.47,32.9,23,12.06,6.84,23.82,5.79,31.23-7.37,2-3.5,3-7.53,4.47-11.32-9.19,11.14-17.15,14.24-29.26,9.59a89.55,89.55,0,0,1-19.13-10.44c-19.39-13.64-38.18-28.15-57.75-41.52-21.6-14.76-45.19-26-69.65-35.14a315,315,0,0,0-67-16.84,268,268,0,0,0-59.27-1.69,303.51,303.51,0,0,0-79.05,17.55c-7.93,2.88-15.75,6-23.62,9.07l-3-3.27c9-3.84,17.82-8,26.93-11.46a289.41,289.41,0,0,1,198.69-3.85,329.59,329.59,0,0,1,65.9,30.29c15.3,9.25,29.93,19.64,44.61,29.87,10.45,7.28,20.3,15.44,30.8,22.64,6.29,4.31,13.34,7.52,21.34,7.41,9.77-.15,18.25-8.08,21.43-20.47C5373.63,2215,5374.23,2209.75,5375.16,2204.56Z" transform="translate(-4790.01 -1709.85)"/><path class="cls-1" d="M4946.48,2149.5c9.14-4.24,18-9.1,27.45-12.6,43.77-16.29,89.22-22.1,135.69-20a340.64,340.64,0,0,1,75.08,12.23c20.23,5.56,40,12.33,58.84,21.28,16.76,7.95,32.75,17.5,49.27,26,8.79,4.51,17.72,9.07,27.07,12.14,11,3.59,20.74.91,27.23-9.64a8,8,0,0,1,1.39-1.37l1.39,1.32c-2.28,9.95-12.93,16.24-24.48,14.58-10.43-1.5-19.37-6.5-28.41-11.47-17.13-9.41-34.2-19-51.7-27.67-19.79-9.84-40.7-16.93-62-22.77a348.88,348.88,0,0,0-97.11-12.48c-30.66.4-61.13,3.66-90.46,13.07-15.11,4.85-29.62,11.59-44.41,17.45-1.21.48-2.5,0.76-3.76,1.13Z" transform="translate(-4790.01 -1709.85)"/><path class="cls-1" d="M5093.38,1924.4a24.07,24.07,0,0,1-.77-4.29q0-91.37,0-182.75,0-1.49,0-3l1.36,0c0.64,15.31,1.61,30.62,1.86,45.94,0.76,47.27,1.26,94.55,1.81,141.82a38.2,38.2,0,0,1-.77,5.7Z" transform="translate(-4790.01 -1709.85)"/><path class="cls-1" d="M4898.4,2030.45c29.72-15.79,60.73-28.27,93.76-35.78a35,35,0,0,1-5,2.68c-19.91,6.83-39.95,13.31-59.73,20.47C4917.5,2021.41,4908,2026.21,4898.4,2030.45Z" transform="translate(-4790.01 -1709.85)"/><path class="cls-1" d="M5102.28,1821.81l3.81,113.18-1.56.06q-1.79-56.59-3.58-113.19Z" transform="translate(-4790.01 -1709.85)"/><path class="cls-1" d="M4866.67,1872.45c-7.75,23.28-5,47.4-6.26,71.22-0.54,10.06-2.64,20-4.16,30a6.55,6.55,0,0,1-2.75,4.21c1-4.15,2.67-8.25,3-12.45,1.19-17.75,1.81-35.54,3-53.29,0.69-10.43,1.86-20.84,3.14-31.21,0.37-3,1.9-5.9,2.89-8.84Z" transform="translate(-4790.01 -1709.85)"/><path class="cls-1" d="M5089,1743.58l-2.31,66.06h-1.41c0-7.26-.06-14.52,0-21.77s0.07-14.63.51-21.93,1.42-14.85,2.16-22.27Z" transform="translate(-4790.01 -1709.85)"/><path class="cls-1" d="M5321.63,1928.09c-1.17-22.08,0-44.53-10-65.23C5320.9,1873.91,5323.83,1906.84,5321.63,1928.09Z" transform="translate(-4790.01 -1709.85)"/><path class="cls-1" d="M5085,1861.41v52.4l-0.64,0v-52.41Z" transform="translate(-4790.01 -1709.85)"/><path class="cls-1" d="M5098.34,1743.52l3.54,38.11-2.46.18-2.22-38.21Z" transform="translate(-4790.01 -1709.85)"/><path class="cls-1" d="M5084.11,1856l1.54-25.9v26.4Z" transform="translate(-4790.01 -1709.85)"/><path class="cls-1" d="M5100,1803.61L5098.5,1786C5102.11,1789.18,5102.84,1794.94,5100,1803.61Z" transform="translate(-4790.01 -1709.85)"/><path class="cls-1" d="M5328.19,1974.61l2.79,20.1-0.87.13-3.39-19.82Z" transform="translate(-4790.01 -1709.85)"/><path class="cls-1" d="M4933.59,2136.73c7.67-3.37,15.23-7,23-10.06,22.47-8.87,45.8-14.7,69.62-18.45a436.84,436.84,0,0,1,104-3.45,11.81,11.81,0,0,1,5.47,1.89,15.46,15.46,0,0,1-3.79.56c-28.9-3-57.85-3.32-86.64.48-19,2.51-38.15,5.66-56.68,10.57-17.07,4.53-33.4,11.82-50.09,17.8-1.54.55-3.33,0.39-5,.56Z" transform="translate(-4790.01 -1709.85)"/><path class="cls-1" d="M5012.84,2098.24c-9.84,2.83-19.89,5.1-29.48,8.63-18.34,6.75-36.42,14.21-54.59,21.41-13.55,5.37-26.83,11.36-41.45,13.69-18.72,3-25.59-6.29-28.72-21.59a60.94,60.94,0,0,1-.76-14c0.84,4.88,1.63,9.77,2.52,14.64,3.37,18.38,14.45,23.31,30.34,18.91a273,273,0,0,0,33.67-11.92c27.32-11.59,54.48-23.53,83.69-29.79,1.53-.33,3.1-0.45,4.65-0.67Z" transform="translate(-4790.01 -1709.85)"/><path class="cls-1" d="M4946.48,2149.5l1,1.17c-8.11,4.45-16.2,8.94-24.35,13.33-13,7-25.91,14.08-39,20.84-10.33,5.33-21.07,9.71-32.75,11.14a68.85,68.85,0,0,1-8.32,0l-0.1-1.42a16.84,16.84,0,0,1,4-.81c10.87,0.48,20.67-3.47,29.93-8.22,21-10.81,41.74-22.31,62.62-33.45A55.73,55.73,0,0,1,4946.48,2149.5Z" transform="translate(-4790.01 -1709.85)"/><path class="cls-1" d="M4933.48,2136.64c-0.52.85-.85,2.21-1.58,2.49-18.39,7.06-36.76,14.2-55.3,20.84-4.11,1.47-8.84,1.54-13.3,1.6-9.81.15-16.34-5.12-20-13.81-5.18-12.26-5.17-25.2-4.36-38.84,0.91,9.07,1.62,17.49,2.64,25.87,0.93,7.71,3.22,14.86,9,20.53,4.47,4.35,9.87,5.21,15.65,4.78,15-1.12,28.45-7.53,42.15-13,8.43-3.37,16.79-6.91,25.18-10.37Z" transform="translate(-4790.01 -1709.85)"/><path class="cls-1" d="M4823.23,2161c3.27,11.79,5.18,24.34,16.44,32.05C4826.73,2186.37,4824.74,2173.84,4823.23,2161Z" transform="translate(-4790.01 -1709.85)"/><path class="cls-1" d="M4823.12,2114.71v40.43C4820.58,2142.07,4821.71,2129,4823.12,2114.71Z" transform="translate(-4790.01 -1709.85)"/><path class="cls-1" d="M4848.83,1876.48c1.83-12.29,9.13-23.87,17.11-33.26Z" transform="translate(-4790.01 -1709.85)"/><path class="cls-1" d="M5331.26,1866.06l6.2,30.68-1.29.28-6.26-30.43Z" transform="translate(-4790.01 -1709.85)"/><path class="cls-1" d="M4886.8,2100.35c-7.48-4.51-7.37-13.3.17-19.6A80.81,80.81,0,0,0,4886.8,2100.35Z" transform="translate(-4790.01 -1709.85)"/><path class="cls-1" d="M4914,2091.19c-5.13-5.48-4.56-12.87,1.14-18.72A50.33,50.33,0,0,1,4914,2091.19Z" transform="translate(-4790.01 -1709.85)"/><path class="cls-1" d="M4899.38,2084a41.91,41.91,0,0,1-3.1,14.08C4893.21,2093.31,4894.27,2088.44,4899.38,2084Z" transform="translate(-4790.01 -1709.85)"/><path class="cls-1" d="M5296.41,1919.85c0.73,9.09-15,25.64-25,26.16,2.7-3.63,6.4-5.43,8.93-8.39s5.25-5.74,7.94-8.56S5293.09,1922.72,5296.41,1919.85Z" transform="translate(-4790.01 -1709.85)"/><path class="cls-1" d="M5280.72,1949.45c3.8-5.13,7.76-9.39,14.14-11C5293.06,1945.27,5288.09,1949.18,5280.72,1949.45Z" transform="translate(-4790.01 -1709.85)"/><path class="cls-1" d="M5286.2,1964c2.56-6.39,5.73-9.46,11.76-11.37A13.56,13.56,0,0,1,5286.2,1964Z" transform="translate(-4790.01 -1709.85)"/><path class="cls-1" d="M4869.35,2004.71a2.39,2.39,0,0,1-.33-2.11c2-8.27,3.9-16.53,5.94-25.16C4878.51,1984.32,4875.75,1997.42,4869.35,2004.71Z" transform="translate(-4790.01 -1709.85)"/><path class="cls-1" d="M4895.52,2001.83l6.48-19.46C4905,1988.83,4902.39,1996.78,4895.52,2001.83Z" transform="translate(-4790.01 -1709.85)"/><path class="cls-1" d="M4881.19,2004.09a23.54,23.54,0,0,1,4.09-12.47C4887.13,1996.61,4886.31,1999.33,4881.19,2004.09Z" transform="translate(-4790.01 -1709.85)"/><path class="cls-1" d="M5217,1828a2.8,2.8,0,0,1,1.5-1.94c10-7.65,21-13,33.6-14.56,1.45-.18,3.5-0.94,4,1.11,0.38,1.59-1.39,2.25-2.77,2.64-11.46,3.24-22.27,8.24-33.37,12.46A3.75,3.75,0,0,1,5217,1828Z" transform="translate(-4790.01 -1709.85)"/><path class="cls-1" d="M5218,1834.2a32,32,0,0,1,10.62-5.74,102.81,102.81,0,0,1,14.14-3c1.6-.24,4.45-1.08,4.81,1.26s-2.33,2.32-4.14,2.74c-6.68,1.55-13.35,3.16-20,4.78A7.72,7.72,0,0,1,5218,1834.2Z" transform="translate(-4790.01 -1709.85)"/><path class="cls-1" d="M5228.29,1852.35a16.23,16.23,0,0,1-13.64,4.28,2,2,0,0,1-2-2.16,1.57,1.57,0,0,1,1.37-1.62C5218.53,1852,5223,1851.15,5228.29,1852.35Z" transform="translate(-4790.01 -1709.85)"/><path class="cls-1" d="M5235,1838c-4.44,4.85-7.95,5.71-12.77,3.48C5225.33,1838.76,5227.73,1838.08,5235,1838Z" transform="translate(-4790.01 -1709.85)"/><path class="cls-1" d="M5299.46,2067.42c-1.86,6.27-6.26,9.84-11.62,12.86C5287.67,2074.61,5292.55,2069.23,5299.46,2067.42Z" transform="translate(-4790.01 -1709.85)"/><path class="cls-1" d="M5292.23,2087.76a1,1,0,0,1-1.13-1.12c-0.12-3.2,4.45-8.3,7.58-8.49a1.49,1.49,0,0,1,1.53.8,2.25,2.25,0,0,1-.28,2.22c-1.89,2.73-4.77,4.37-7.28,6.42A1.48,1.48,0,0,1,5292.23,2087.76Z" transform="translate(-4790.01 -1709.85)"/><path class="cls-1" d="M5255.72,2052.44c-1.58,3.18-4.1,4.38-6.37,6C5248.4,2053.81,5249.81,2052.44,5255.72,2052.44Z" transform="translate(-4790.01 -1709.85)"/><path class="cls-1" d="M5194.8,2109.06c0.76-3,2.39-4.29,5.17-5.48C5199.21,2106.64,5197.52,2107.89,5194.8,2109.06Z" transform="translate(-4790.01 -1709.85)"/></svg>