<?xml version="1.0" encoding="UTF-8"?>
<svg width="211px" height="281px" viewBox="0 0 211 281" version="1.1" xmlns="http://www.w3.org/2000/svg" xmlns:xlink="http://www.w3.org/1999/xlink">
    <!-- Generator: Sketch 49.3 (51167) - http://www.bohemiancoding.com/sketch -->
    <title>backpack</title>
    <desc>Created with Sketch.</desc>
    <defs></defs>
    <g id="Welcome" stroke="none" stroke-width="1" fill="none" fill-rule="evenodd">
        <g id="Desktop-HD" transform="translate(-845.000000, -135.000000)" fill-rule="nonzero">
            <g id="backpack" transform="translate(845.000000, 135.000000)">
                <path d="M43.758,0 L35.007,0 C25.346,0 17.505,7.841 17.505,17.502 L17.505,105.011 C17.505,114.681 25.346,122.513 35.007,122.513 L43.758,122.513 C53.419,122.513 61.26,114.672 61.26,105.011 L61.26,17.502 C61.259,7.841 53.419,0 43.758,0 Z M166.27,0 L157.519,0 C147.858,0 140.017,7.841 140.017,17.502 L140.017,105.011 C140.017,114.681 147.858,122.513 157.519,122.513 L166.27,122.513 C175.931,122.513 183.772,114.672 183.772,105.011 L183.772,17.502 C183.771,7.841 175.931,0 166.27,0 Z" id="Shape" fill="#CCCED7"></path>
                <path d="M105.014,17.502 C163.006,17.502 210.024,64.52 210.024,122.521 L210.024,245.024 C210.024,264.363 194.351,280.027 175.021,280.027 L35.007,280.027 C15.676,280.027 0.004,264.363 0.004,245.024 L0.004,122.521 C0.003,64.52 47.022,17.502 105.014,17.502 Z" id="Shape" fill="#396D67"></path>
                <path d="M135.528,120.849 L115.06,100.39 C109.407,94.737 100.254,94.737 94.601,100.39 L74.124,120.849 C68.471,126.502 68.471,135.664 74.124,141.317 L94.601,161.768 C100.254,167.421 109.399,167.421 115.06,161.768 L135.528,141.317 C141.181,135.664 141.181,126.502 135.528,120.849 Z M96.263,135.638 C96.263,138.053 94.303,140.013 91.888,140.013 C89.482,140.013 87.513,138.053 87.513,135.638 L87.513,126.887 C87.513,124.472 89.482,122.512 91.888,122.512 C94.303,122.512 96.263,124.472 96.263,126.887 L96.263,135.638 Z M122.515,135.638 C122.515,138.053 120.555,140.013 118.14,140.013 C115.734,140.013 113.765,138.053 113.765,135.638 L113.765,126.887 C113.765,124.472 115.734,122.512 118.14,122.512 C120.555,122.512 122.515,124.472 122.515,126.887 L122.515,135.638 Z" id="Shape" fill="#FFFFFF"></path>
                <polygon id="Shape" fill="#CCCED7" points="0.003 218.78 210.023 218.78 210.023 227.531 0.003 227.531"></polygon>
                <path d="M0.003,245.024 C0.003,264.363 15.676,280.027 35.006,280.027 L175.02,280.027 C194.351,280.027 210.023,264.363 210.023,245.024 L210.023,227.531 L188,227.531 L168,227.531 L0.003,227.531 L0.003,245.024 Z" id="Shape" fill-opacity="0.975741621" fill="#17573C"></path>
            </g>
        </g>
    </g>
</svg>