<?xml version="1.0" encoding="UTF-8"?>
<svg width="419px" height="753px" viewBox="0 0 419 753" version="1.1" xmlns="http://www.w3.org/2000/svg" xmlns:xlink="http://www.w3.org/1999/xlink">
    <!-- Generator: Sketch 51.1 (57501) - http://www.bohemiancoding.com/sketch -->
    <title>nonic copy 2</title>
    <desc>Created with Sketch.</desc>
    <defs></defs>
    <g id="Page-1" stroke="none" stroke-width="1" fill="none" fill-rule="evenodd">
        <g id="Artboard-2" transform="translate(-974.000000, -241.000000)" fill="#FFFFFF">
            <g id="nonic-copy-2" transform="translate(974.000000, 241.000000)">
                <path d="M389.8364,181.6733 C389.2304,184.9523 388.2724,188.2073 386.9584,191.3873 C386.9344,191.4623 386.9084,191.5383 386.8844,191.6393 C386.7564,192.0423 386.5814,192.4973 386.3274,192.9513 C385.7484,194.2633 385.1174,195.5493 384.4354,196.8363 C384.1844,197.3163 383.9334,197.7953 383.6544,198.2753 C369.3494,223.4273 363.5204,250.9293 361.7564,279.3373 C359.5614,315.1883 358.1734,351.0893 356.3824,386.9403 C354.3614,427.2573 351.9674,467.5233 350.3014,507.8403 C348.5844,548.5613 347.5244,589.3063 346.2634,630.0533 C345.7334,647.3853 345.4054,664.7443 344.9004,682.0753 C344.8004,685.2793 344.7264,688.5853 343.9424,691.6883 C341.7734,700.3423 337.3324,706.9773 328.0484,709.7773 C302.1394,717.5993 275.9234,723.9833 249.1054,727.7163 C222.2344,731.4243 195.2654,732.4343 168.1924,730.4163 C132.4944,727.7923 98.1564,719.5423 65.0054,706.0943 C63.5664,705.5143 62.2564,704.5553 60.3124,703.4453 C59.9844,699.1823 59.4544,694.8173 59.2774,690.4523 C57.2834,644.0803 55.3924,597.7083 53.3994,551.3613 C50.6244,485.6383 47.7224,419.9413 44.9964,354.2183 C43.8124,325.5833 42.9544,296.9473 41.9444,268.3113 C41.0624,243.7383 35.6894,220.4013 23.0734,199.0063 C22.0144,197.2393 21.0564,195.3733 20.1984,193.5063 C19.5164,192.0923 18.8854,190.6793 18.2794,189.2423 C12.4284,175.3413 11.1664,161.2633 16.2614,146.7803 C17.2444,143.9543 18.1784,141.1303 19.0114,138.2533 C21.9894,128.3633 24.1574,118.2963 25.6214,108.0283 C28.3984,88.8033 29.9604,69.5273 28.1954,50.1263 C27.8164,46.0893 27.4644,42.0783 27.4124,38.0413 C27.3634,34.0053 27.4644,29.9683 27.8934,25.9563 C28.2974,22.3993 29.2294,18.8923 30.1624,14.0223 L369.2484,14.0223 C369.9034,18.0093 370.5864,20.6833 370.7614,23.3823 C371.6944,38.2943 372.6534,53.1783 373.2834,68.0903 C374.1414,87.2643 376.2114,106.2623 380.1214,124.9573 C381.6114,132.2993 383.4274,139.5903 385.5464,146.8313 C386.6824,150.6923 387.4874,154.6523 388.5744,158.5383 C388.6234,158.6633 388.6494,158.8153 388.6754,158.9423 C390.8444,166.7373 391.1984,174.3313 389.8364,181.6733 M403.6604,159.6983 C403.0054,149.5563 400.8344,139.6913 397.5304,130.1543 C388.9014,105.4043 385.9264,79.9993 387.6654,53.9103 C388.1704,46.2663 388.2724,38.5703 387.9684,30.9263 C387.7414,25.7553 386.8574,20.5073 385.5704,15.4613 C383.4774,7.2113 377.7754,2.3673 369.3744,1.2573 C363.7984,0.5263 358.1214,0.0953 352.4964,0.0953 C335.1374,0.0953 317.8064,0.4493 300.4454,0.5003 C241.1564,0.7263 181.8424,0.9033 122.5284,1.0293 C98.3334,1.0803 74.1114,0.7263 49.9174,0.9543 C43.1324,1.0053 36.2684,2.0383 29.6074,3.4013 C22.5934,4.8143 18.6834,9.7583 17.3454,16.7733 C15.4034,27.1673 15.1014,37.5883 16.2614,48.1083 C16.4144,49.4703 16.5654,50.8333 16.6654,52.1953 C17.0944,56.4593 17.3974,60.7233 17.5234,64.9863 C18.1044,81.3613 16.0844,97.3063 12.0974,112.9233 C10.4344,119.5073 8.4144,126.0673 6.1204,132.5503 C-3.0406,158.3363 -1.0716,183.3133 12.0724,207.3313 C21.7604,224.9673 26.8064,243.8893 27.7404,263.9463 C29.2294,296.9973 30.7934,330.0223 32.3084,363.0733 C33.3434,385.6543 34.2744,408.2093 35.3364,430.7903 C37.4034,473.9073 39.5224,516.9993 41.5924,560.1163 C43.0034,589.9373 44.3934,619.7593 45.6794,649.5803 C46.0074,656.7453 46.9404,698.1973 47.5204,700.1153 C51.1294,712.1493 59.1274,720.2733 70.4554,725.0673 C75.6274,727.2623 81.0254,729.2293 86.5244,730.2643 C103.1524,733.4443 119.8034,736.4963 136.5554,738.8683 C157.7244,741.8703 179.0934,743.5093 200.4884,743.4343 C243.9334,743.3083 286.3954,736.3193 327.9224,723.7303 C332.5394,722.3413 337.1054,720.6273 341.4434,718.5323 C349.0894,714.8743 354.2614,708.9463 356.4814,700.5953 C357.0874,698.3743 358.9794,660.4283 359.1564,655.6853 C361.7044,589.5853 364.3534,523.4833 367.0534,457.3813 C367.7604,440.4523 368.6934,423.5233 369.5264,406.5943 C371.6184,363.9063 373.8654,321.1923 375.8344,278.4793 C377.0954,250.7513 382.2154,224.0843 395.8904,199.5103 C402.7544,187.1483 404.5944,173.6503 403.6604,159.6983" id="Fill-2856"></path>
                <path d="M347.8774,750.5835 C347.8084,750.3765 347.7464,750.1645 347.6704,749.9585 C357.0524,749.5315 366.4324,749.0735 375.8094,748.6795 C384.9084,748.3055 394.0124,748.0105 403.1084,747.6175 C404.6634,747.5485 406.2034,747.1735 407.7484,746.9375 C407.7084,746.7105 407.6794,746.4835 407.6454,746.2635 C399.6794,746.4755 391.7064,746.6825 383.7404,746.8925 C383.7324,746.7665 383.7234,746.6465 383.7134,746.5195 C387.8954,745.8645 392.0834,745.2145 396.2694,744.5605 C396.2394,744.2915 396.2154,744.0155 396.1804,743.7445 C394.5314,743.7445 392.8734,743.6745 391.2284,743.7535 C384.5044,744.0835 377.7874,744.4815 371.0664,744.8165 C354.2634,745.6385 337.4624,746.4305 320.6614,747.2475 C317.3014,747.4055 313.9454,747.5485 310.5944,747.8175 C309.9244,747.8785 309.3064,748.4885 307.7564,749.3395 C313.7854,751.1985 319.1364,750.1595 324.3674,750.9385 C323.8944,751.2965 323.5944,751.5285 322.4734,752.3795 C353.1914,752.1045 383.0144,751.8425 412.8464,751.5725 C412.8464,751.2475 412.8404,750.9135 412.8404,750.5835 L347.8774,750.5835 Z" id="Fill-2857"></path>
                <path d="M362.48,722.7056 C362.544,723.2466 362.608,723.7776 362.672,724.3196 C381.304,725.7946 399.925,725.3716 418.931,723.5256 C417,720.2636 414.154,720.7516 411.646,720.8006 C396.51,721.1046 381.38,721.4996 366.245,721.9266 C364.986,721.9616 363.737,722.4396 362.48,722.7056" id="Fill-2858"></path>
                <path d="M347.8774,750.5835 L412.8404,750.5835 C412.8404,750.9135 412.8464,751.2475 412.8464,751.5725 C383.0144,751.8425 353.1914,752.1045 322.4734,752.3795 C323.5944,751.5285 323.8944,751.2965 324.3674,750.9385 C319.1364,750.1595 313.7854,751.1985 307.7564,749.3395 C309.3064,748.4885 309.9244,747.8785 310.5944,747.8175 C313.9454,747.5485 317.3014,747.4055 320.6614,747.2475 C337.4624,746.4305 354.2634,745.6385 371.0664,744.8165 C377.7874,744.4815 384.5044,744.0835 391.2284,743.7535 C392.8734,743.6745 394.5314,743.7445 396.1804,743.7445 C396.2154,744.0155 396.2394,744.2915 396.2694,744.5605 C392.0834,745.2145 387.8954,745.8645 383.7134,746.5195 C383.7234,746.6465 383.7324,746.7665 383.7404,746.8925 C391.7064,746.6825 399.6794,746.4755 407.6454,746.2635 C407.6794,746.4835 407.7084,746.7105 407.7484,746.9375 C406.2034,747.1735 404.6634,747.5485 403.1084,747.6175 C394.0124,748.0105 384.9084,748.3055 375.8094,748.6795 C366.4324,749.0735 357.0524,749.5315 347.6704,749.9585 C347.7464,750.1645 347.8084,750.3765 347.8774,750.5835 Z M334.6924,750.9585 C334.6924,750.9235 334.6904,750.8795 334.6904,750.8445 L333.1164,750.8445 C333.1214,750.8795 333.1214,750.9235 333.1214,750.9585 L334.6924,750.9585 Z" id="Fill-2859"></path>
                <path d="M362.48,722.7056 C363.737,722.4396 364.986,721.9616 366.245,721.9266 C381.38,721.4996 396.51,721.1046 411.646,720.8006 C414.154,720.7516 417,720.2636 418.931,723.5256 C399.925,725.3716 381.304,725.7946 362.672,724.3196 C362.608,723.7776 362.544,723.2466 362.48,722.7056" id="Fill-2860"></path>
                <path d="M144.9546,414.3691 C143.9586,412.2041 145.0206,410.0981 145.5776,408.0511 C149.8306,392.2561 154.2086,376.4921 158.4486,360.6971 C160.9196,351.5111 163.1936,342.2701 165.5886,333.0741 C166.0276,331.3911 166.6736,329.7671 167.2176,328.1241 C167.5616,328.1931 167.9076,328.2721 168.2496,328.3411 C168.0696,330.7831 168.0326,333.2461 167.6806,335.6671 C164.3696,358.6061 158.1416,380.8121 150.6456,402.6931 C149.2636,406.7271 147.6936,410.6931 146.2086,414.6931 C145.7896,414.5851 145.3706,414.4771 144.9546,414.3691" id="Fill-2861"></path>
                <path d="M139.4771,21.5854 C143.0801,27.7624 145.7061,111.9364 142.7741,128.6534 C142.5121,116.8584 142.2761,105.0594 141.9701,93.2574 C141.6611,81.2054 141.3671,69.1554 140.8941,57.1024 C140.4361,45.2874 139.2901,33.4934 139.4771,21.5854" id="Fill-2862"></path>
                <path d="M128.4194,181.5859 C126.3984,146.2179 124.3794,110.8559 122.3834,75.4899 C122.3334,74.6879 122.5614,73.8659 123.0384,73.0569 C126.9264,109.1059 128.8824,145.2539 129.2324,181.4869 C128.9564,181.5169 128.6904,181.5559 128.4194,181.5859" id="Fill-2863"></path>
                <path d="M171.3638,143.6899 L171.3638,150.2729 C173.2518,148.2359 174.7868,146.5729 176.8088,144.3919 C177.7718,148.4229 176.4048,150.9809 174.6658,153.2349 C173.3888,154.8729 171.4748,154.0459 170.1078,153.1219 C167.1738,151.1379 167.5568,146.3359 171.3638,143.6899" id="Fill-2864"></path>
                <path d="M82.7407,91.7695 C83.1147,94.4355 83.4077,96.5275 83.7977,99.3535 C85.7207,98.4075 87.1997,97.6765 88.6187,96.9765 C88.8157,100.1345 87.8797,101.6345 85.4007,101.9795 C82.8687,102.3265 80.9287,100.7395 80.7267,97.8115 C80.5947,95.8725 80.2417,93.6955 82.7407,91.7695" id="Fill-2865"></path>
                <path d="M97.0474,188.396 C98.5634,192.445 98.2474,194.975 96.4094,196.406 C94.7564,197.686 93.0044,197.503 91.3264,196.445 C89.0774,195.039 88.5994,193.341 89.6834,189.094 C90.5604,190.827 90.9864,192.062 91.7374,193.045 C92.2704,193.72 93.2314,194.358 94.0314,194.408 C94.5444,194.438 95.2854,193.425 95.6164,192.735 C96.1434,191.624 96.4144,190.394 97.0474,188.396" id="Fill-2866"></path>
                <path d="M139.8667,395.8682 L139.8667,393.9992 C139.8957,393.9992 139.9257,393.9992 139.9657,394.0032 L139.9657,395.8682 L139.8667,395.8682" id="Fill-2867"></path>
                <path d="M78.5474,475.4609 C78.8674,474.9679 79.1774,474.4819 79.4974,473.9999 C79.7254,474.2149 79.9514,474.4269 80.1754,474.6429 C79.8184,475.0659 79.4684,475.4849 79.1094,475.9079 C78.9214,475.7559 78.7344,475.6089 78.5474,475.4609" id="Fill-2868"></path>
                <path d="M348.3921,150.0132 C348.3921,154.9882 348.7611,159.2002 348.3281,163.3302 C346.5021,180.8642 344.3911,198.3732 342.4761,215.9022 C341.5521,224.3922 340.8331,232.9062 340.0181,241.4082 C339.8371,243.2962 339.6251,245.1812 339.1161,247.0262 C337.2361,237.1042 337.7481,227.2242 339.0021,217.3582 C340.7201,203.8922 343.1471,190.5042 343.4111,176.8792 C343.5211,171.0262 343.4981,165.1662 343.8781,159.3302 C344.0411,156.8772 344.9331,154.4342 345.7811,152.0852 C346.0491,151.3242 347.2341,150.8912 348.3921,150.0132" id="Fill-2869"></path>
                <path d="M271.9985,476.0991 C271.8415,472.8011 273.7745,470.0031 275.8475,467.3931 C276.6235,466.4111 278.1445,465.7961 279.4365,465.4991 C282.1305,464.8841 283.8035,466.0981 284.1015,468.8551 C284.5155,472.5671 283.5665,476.0741 281.7215,479.2881 C280.0085,482.2721 277.6705,483.3401 275.1965,482.5091 C272.7725,481.6871 271.8755,479.9841 271.9985,476.0991 M279.3415,468.5571 C278.1035,471.1621 277.1265,472.9451 276.4405,474.8301 C276.2225,475.4261 276.5525,476.5671 277.0445,476.9661 C277.4775,477.3291 278.8285,477.3291 279.1635,476.9471 C280.7795,475.1011 281.6915,472.8641 281.2235,470.3871 C281.0955,469.7251 280.0725,469.2381 279.3415,468.5571" id="Fill-2870"></path>
                <path d="M362.4976,148.0645 C362.0966,161.4625 362.5106,174.9355 359.0486,188.0445 C358.7746,188.0355 358.4936,188.0305 358.2186,188.0205 C358.1346,187.1135 357.9326,186.2005 357.9766,185.3005 C358.5906,174.1045 359.2356,162.9125 359.8956,151.7185 C359.9476,150.7475 360.0516,149.7375 360.3716,148.8305 C360.5536,148.3285 361.2196,147.9895 361.6776,147.5805 C361.9476,147.7425 362.2246,147.9055 362.4976,148.0645" id="Fill-2871"></path>
                <path d="M170.9702,57.2505 C171.7482,56.1505 172.2762,55.4195 172.8762,54.5785 C174.0842,58.3815 173.1852,60.6555 170.1642,61.7785 C169.6372,61.9765 169.0582,62.0205 168.5552,62.2475 C163.9752,64.3375 162.6452,61.6725 163.0062,57.6635 C163.1972,55.5405 164.9182,53.4145 166.3692,51.6355 C166.9312,50.9465 168.8012,50.7985 169.8072,51.1635 C170.5322,51.4235 171.0142,52.8855 171.2262,53.8945 C171.4232,54.7985 171.1032,55.8185 170.9702,57.2505 M169.1422,53.0715 C168.6492,52.9665 168.1512,52.8665 167.6582,52.7605 C166.6162,54.2705 167.7022,55.9755 168.2892,57.6675 C168.5702,56.1355 168.8612,54.6035 169.1422,53.0715" id="Fill-2872"></path>
                <path d="M252.3774,513.0884 C253.9374,515.7134 254.3114,518.0504 252.9244,520.4214 C251.9234,522.1234 250.2734,522.9834 248.2914,522.5754 C245.7834,522.0614 245.4634,519.8714 244.8474,517.7664 C245.9164,516.7724 246.9044,515.8544 248.0744,514.7664 C248.7604,515.8294 249.3314,516.7174 250.2604,518.1564 C251.0224,516.3194 251.6154,514.9064 252.3774,513.0884" id="Fill-2873"></path>
                <path d="M149.2388,627.2593 C150.0428,628.6913 151.0148,630.0193 149.9138,631.5093 C148.8148,632.9813 147.1248,633.3993 145.4048,632.8343 C143.8358,632.3223 142.2658,631.6673 140.8798,630.7873 C140.2018,630.3593 139.9348,629.2863 139.4868,628.5093 C140.4328,628.1393 141.3768,627.4943 142.3358,627.4803 C143.5348,627.4513 144.7448,628.1393 145.9578,628.1443 C146.9968,628.1443 148.0268,627.6083 149.2388,627.2593" id="Fill-2874"></path>
                <path d="M193.812,609.6543 C193.854,605.3143 197.239,598.7363 200.198,597.2403 C200.27,599.6253 196.923,606.1353 193.812,609.6543" id="Fill-2875"></path>
                <path d="M203.3911,601.8945 C202.5801,603.7295 201.7681,605.5655 200.9561,607.3955 C200.7101,607.2635 200.4711,607.1205 200.2281,606.9815 C201.3121,605.3245 202.3981,603.6615 203.4801,601.9985 C203.4801,601.9925 203.3911,601.8945 203.3911,601.8945" id="Fill-2876"></path>
                <path d="M247.2524,292.1724 C247.9774,293.8554 248.3904,294.8134 249.0044,296.2694 C246.8804,294.8724 246.8804,294.8724 247.2524,292.1724" id="Fill-2877"></path>
                <path d="M356.5347,171.498 C356.6037,172.712 356.6687,173.892 356.7567,175.423 C355.6777,175.472 354.7417,175.514 353.7957,175.556 C353.7757,172.51 354.1397,171.951 356.5347,171.498" id="Fill-2878"></path>
                <path d="M389.8364,203.1187 C389.7594,200.7977 389.6584,198.4767 389.4814,196.1557 C389.0794,190.9077 388.7764,185.6337 388.6754,180.3877 C388.5744,175.9967 388.6234,171.5817 388.9514,167.1667 C390.1394,150.8427 389.1044,134.5697 387.6654,118.2967 C386.3274,103.2857 384.8394,88.2737 384.7654,73.1617 C384.7654,72.5797 384.6124,71.9997 384.5364,71.3947 L377.4234,71.3947 C377.9004,77.2737 378.3814,82.9507 378.8354,88.6517 C380.1484,105.4047 380.8804,122.2327 380.2984,139.0357 C380.1974,141.5087 380.1484,143.9547 380.1214,146.4027 C379.8954,162.2217 380.7024,177.9397 382.8464,193.6327 C383.2264,196.5087 383.2504,199.4597 383.4274,202.4377 C377.8004,204.0527 373.3354,201.1007 368.7184,199.9147 C368.7184,181.6987 368.8684,163.7857 368.6664,145.8477 C368.4154,122.9647 366.4224,97.8607 364.6554,92.4117 C364.6554,96.8007 364.6314,100.8637 364.6554,104.9507 C364.6804,106.8177 364.3794,108.5327 363.3454,110.1737 C362.8644,110.9797 362.6384,112.0657 362.6384,113.0237 C362.6384,117.4127 362.7634,121.8037 362.7884,126.1687 C363.0174,149.2027 363.2434,172.2367 363.4194,195.2727 C363.4454,196.6597 363.2434,198.0477 363.1184,199.6117 C361.1254,199.7387 359.4074,199.9647 357.6924,199.9147 C353.8324,199.8137 349.9744,199.6117 346.0884,199.4097 C332.1364,198.7027 318.2074,197.5677 304.2574,197.3167 C277.1604,196.8357 250.0884,195.1717 222.9934,195.9787 C220.3174,196.0547 217.9474,195.4987 215.9544,193.6327 C214.3384,192.1437 212.3714,191.8157 210.6304,193.0767 C207.4764,195.2977 203.9944,195.2977 200.3884,195.2227 C188.8814,194.8947 177.3784,194.5407 165.8474,194.4647 C153.0064,194.3897 140.1644,194.6157 127.3224,194.6927 C123.4864,194.7167 119.6264,194.6927 115.7684,194.6927 C114.9844,192.9517 114.3044,191.3877 113.5724,189.7477 C112.5134,190.0247 111.6554,190.4287 110.7714,190.4287 C109.8374,190.4287 108.6274,190.3277 107.9704,189.7717 C106.6094,188.6117 105.2964,188.6117 103.7324,189.1167 C97.9044,191.0087 91.9494,191.3367 85.9214,190.6557 C82.9694,190.3517 80.0184,190.0757 77.0644,189.9487 C72.9514,189.7477 69.1424,190.6297 66.3164,193.9347 C65.3824,195.0197 64.4244,194.7937 63.2884,194.6667 C59.4544,194.1867 55.6464,193.6327 51.7844,193.4557 C49.8934,193.3807 48.0004,193.4047 46.1074,193.4557 C44.3414,193.5057 42.5744,193.5827 40.7834,193.6067 C40.1044,193.6067 39.4484,193.5317 38.6644,193.4557 L34.9824,193.4557 C29.3574,197.2397 18.8094,202.7147 16.6904,202.9167 C16.6904,199.7627 16.5894,196.6087 16.5654,193.4557 L10.9374,193.4557 C10.9374,200.9737 16.9684,218.5337 19.7424,218.4827 C19.8444,217.3727 19.9694,216.2127 20.1984,214.9517 C20.3244,214.1437 20.4754,213.2857 20.6764,212.3777 C25.7224,189.0397 152.4764,199.6617 152.4764,199.6617 C157.8504,199.2837 163.2484,198.8547 168.6494,198.6787 C178.9154,198.3257 189.2094,197.9717 199.5034,197.9207 C207.6534,197.8707 215.7764,198.3257 223.9274,198.4767 C226.7774,198.5517 229.6044,198.1737 232.2004,199.8397 C232.9324,200.2927 233.9674,200.3687 234.8764,200.3687 C237.4244,200.3187 239.9464,200.1167 242.4944,200.0657 C245.5474,199.9897 248.6004,199.8397 251.6284,200.0657 C255.4884,200.3437 259.2984,201.1757 263.1584,201.3777 C272.7214,201.9077 282.3074,202.1347 291.8694,202.5887 C312.6324,203.6237 333.3974,204.7337 354.1354,205.8437 C354.7904,205.8687 355.4734,205.9447 356.1284,205.9947 C366.9514,204.8857 389.5584,203.5477 386.9584,212.8317 C386.9344,212.9077 386.9084,212.9837 386.8844,213.0847 C386.7564,213.4877 386.5814,213.9417 386.3274,214.3967 C385.6484,215.7337 384.7904,217.0197 383.8564,218.2807 L390.0114,218.2807 C390.0874,217.6007 390.1884,217.0957 390.1884,216.6167 C390.0384,212.1007 389.9864,207.6087 389.8364,203.1187 Z M89.4024,173.2717 L85.4924,173.2717 C85.4924,173.3477 85.4924,173.4237 85.5174,173.4987 L89.4274,173.4987 C89.4274,173.4237 89.4274,173.3477 89.4024,173.2717 Z M72.1704,174.9117 C73.6094,174.7597 74.8444,174.6607 76.2064,174.5337 C74.1394,172.0107 73.7104,172.0357 72.1704,174.9117 Z M160.5744,181.2697 C160.7764,181.3457 160.9794,181.4207 161.1814,181.5217 C161.2054,181.4717 161.2054,181.3967 161.2304,181.3457 C161.0034,181.3197 160.8014,181.2957 160.5744,181.2697 Z M43.1814,175.3667 C43.2054,175.4417 43.2054,175.5177 43.2054,175.5927 L45.3764,175.5927 L45.3764,175.3667 L43.1814,175.3667 Z" id="Fill-2879"></path>
                <path d="M154.519,159.2378 C149.399,158.8598 149.399,158.8858 147.783,157.4468 C149.549,157.1698 150.988,156.8658 152.476,156.7658 C152.476,156.7658 156.034,158.0528 160.575,159.8178 C158.557,159.6158 156.537,159.3648 154.519,159.2378" id="Fill-2880"></path>
                <path d="M43.1812,175.3662 L45.3762,175.3662 L45.3762,175.5932 L43.2052,175.5932 C43.2052,175.5172 43.2052,175.4412 43.1812,175.3662" id="Fill-2881"></path>
                <path d="M51.7847,193.4556 L46.1077,193.4556 C48.0007,193.4046 49.8927,193.3806 51.7847,193.4556" id="Fill-2882"></path>
                <path d="M362.4976,91.7695 L363.3456,110.1735" id="Fill-2883"></path>
            </g>
        </g>
    </g>
</svg>