<?xml version="1.0" encoding="UTF-8"?>
<svg width="371px" height="512px" viewBox="0 0 371 512" version="1.1" xmlns="http://www.w3.org/2000/svg" xmlns:xlink="http://www.w3.org/1999/xlink">
    <!-- Generator: Sketch 51.1 (57501) - http://www.bohemiancoding.com/sketch -->
    <title>Shape</title>
    <desc>Created with Sketch.</desc>
    <defs></defs>
    <g id="Page-1" stroke="none" stroke-width="1" fill="none" fill-rule="evenodd">
        <g id="Desktop-Copy-3" transform="translate(-217.000000, -136.000000)" fill="#FFFFFF" fill-rule="nonzero">
            <g id="maps-and-flags" transform="translate(217.000000, 136.000000)">
                <path d="M185.427,0 C83.182,0 0,83.182 0,185.426 C0,312.314 165.939,498.593 173.004,506.461 C179.64,513.852 191.226,513.839 197.85,506.461 C204.915,498.593 370.854,312.314 370.854,185.426 C370.852,83.182 287.671,0 185.427,0 Z M185.427,278.719 C133.985,278.719 92.135,236.868 92.135,185.426 C92.135,133.984 133.986,92.134 185.427,92.134 C236.868,92.134 278.718,133.985 278.718,185.427 C278.718,236.869 236.868,278.719 185.427,278.719 Z" id="Shape"></path>
            </g>
        </g>
    </g>
</svg>