<?xml version="1.0" encoding="UTF-8"?>
<svg width="713px" height="788px" viewBox="0 0 713 788" version="1.1" xmlns="http://www.w3.org/2000/svg" xmlns:xlink="http://www.w3.org/1999/xlink">
    <!-- Generator: Sketch 51.1 (57501) - http://www.bohemiancoding.com/sketch -->
    <title>remera copy</title>
    <desc>Created with Sketch.</desc>
    <defs></defs>
    <g id="Page-1" stroke="none" stroke-width="1" fill="none" fill-rule="evenodd">
        <g id="Artboard-6" transform="translate(-87.000000, -107.000000)" fill="#1A1919">
            <g id="remera-copy" transform="translate(87.000000, 107.000000)">
                <path d="M421.9258,30.4341 C423.4638,29.6251 424.4318,28.9771 425.4928,28.5801 C430.6838,26.6371 432.8668,22.5221 433.1898,17.3931 C433.5648,11.3911 431.8378,10.4351 426.1318,12.3991 C391.2088,24.4181 355.4988,27.8271 318.9498,22.0771 C302.7568,19.5301 287.2448,14.7461 272.0698,8.6501 C270.4018,7.9811 266.3408,8.8811 266.3358,9.1081 C266.2408,14.1331 266.0638,19.2581 266.9778,24.1641 C267.6108,27.5651 269.7958,30.6961 271.4048,33.8891 C272.2088,35.4831 272.9458,37.3881 274.2828,38.3891 C280.6578,43.1631 286.7508,48.6541 293.8148,52.1101 C323.4878,66.6271 354.7618,68.8831 386.6898,61.7351 C401.0578,58.5191 413.7188,51.5701 423.4198,40.0481 C426.6918,36.1631 426.3938,33.4641 421.9258,30.4341 M690.8428,351.8801 L690.9598,351.9601 C690.9878,351.0481 690.6318,349.7201 691.1018,349.2851 C696.7338,344.0691 694.5088,338.4491 692.1408,332.7951 C690.6628,329.2681 688.8298,325.8531 687.7248,322.2161 C678.5528,292.0121 669.5118,261.7671 660.4348,231.5341 C658.6268,225.5121 656.8358,219.4861 654.9048,213.0171 C652.3218,233.3841 650.4548,253.0551 647.1868,272.4891 C643.8868,292.1071 639.1958,311.4911 635.1128,330.9771 C634.4448,330.8991 633.7768,330.8201 633.1078,330.7421 C633.1078,329.0901 632.8818,327.4011 633.1408,325.7901 C637.7098,297.3961 642.5078,269.0381 646.8888,240.6161 C649.5708,223.2151 648.9778,205.7481 645.8338,188.4391 C640.2598,157.7451 625.9768,131.1301 606.9228,106.8461 C604.0518,103.1861 600.9998,99.5931 597.5818,96.4601 C594.3928,93.5381 590.8698,90.7471 587.0368,88.7931 C550.7318,70.2881 514.3298,51.9691 477.9498,33.6081 C471.1878,30.1951 464.3968,26.8391 457.0878,23.1921 C455.3538,35.2311 452.1448,46.0421 445.6168,55.4901 C439.2058,64.7711 430.9698,72.0371 420.1468,76.1371 C421.2208,73.5261 422.8618,71.4401 424.9628,70.0561 C439.4938,60.4871 448.8948,47.6851 450.7868,30.0031 C451.7188,21.3031 445.7678,13.9981 439.1028,14.0011 C436.9728,21.4511 436.0478,29.1061 432.6898,35.4791 C426.3148,47.5791 415.8028,56.0291 403.4248,61.6241 C378.1408,73.0551 351.7188,74.4051 324.7738,69.2141 C305.8138,65.5611 288.3238,58.6001 274.3118,44.8281 C266.5448,37.1941 259.2988,29.0761 260.8568,16.7401 C261.1048,14.7731 259.9038,12.6231 259.2218,9.9741 C255.9968,12.8771 253.9948,15.6711 251.2808,16.9111 C246.1138,19.2711 245.8568,23.1541 246.7118,27.6631 C247.2058,30.2671 248.3178,32.7581 248.7588,35.3661 C249.0988,37.3711 248.8258,39.4801 248.8258,42.3841 C241.5088,36.4261 245.0008,28.2991 241.7818,21.8891 C239.7978,22.9701 238.0518,23.8801 236.3438,24.8581 C198.2428,46.6721 160.5508,69.2561 119.7988,86.0261 C94.7198,96.3461 75.4618,113.0271 65.1768,138.5181 C51.6418,172.0641 43.8098,207.0701 41.6138,243.1571 C40.5848,260.0471 38.5378,276.5291 32.7358,292.5081 C25.2378,313.1611 19.0528,334.1921 15.3448,355.9111 C14.8298,358.9241 15.6428,360.0351 18.0638,361.7341 C24.4388,366.2061 30.4228,371.2491 36.4098,376.2481 C37.3288,377.0151 37.4348,378.7551 37.9168,380.0441 C37.4698,380.3431 37.0228,380.6421 36.5748,380.9401 C33.8738,378.6001 31.2318,376.1901 28.4598,373.9371 C24.5988,370.7991 20.7678,367.5911 16.6438,364.8311 C15.5148,364.0771 12.8998,364.1751 11.7988,364.9971 C8.0618,367.7841 7.6768,374.0271 10.9738,377.4381 C22.7958,389.6721 35.0368,401.3281 50.4728,409.1821 C72.7978,420.5401 96.4268,425.4831 121.3448,424.6631 C127.7238,424.4531 130.3908,422.1561 131.4478,416.5671 C133.1138,407.7651 133.1108,407.8741 124.0378,407.5941 C106.6538,407.0561 89.7148,403.6841 72.9898,399.1301 C71.3648,398.6871 69.9028,397.6481 68.3638,396.8861 C68.4708,396.4331 68.5768,395.9801 68.6828,395.5271 C70.3308,395.5271 72.0478,395.2231 73.6138,395.5801 C79.9288,397.0201 86.1218,399.1761 92.4998,400.1241 C104.6398,401.9281 116.8588,403.2571 129.0778,404.4181 C133.4418,404.8331 133.8998,403.9811 134.0068,400.6331 C122.8018,399.4811 111.6358,398.3331 100.4698,397.1851 C100.4778,396.5101 100.4878,395.8341 100.4958,395.1591 C102.2918,394.9301 104.0968,394.4621 105.8848,394.5141 C115.1888,394.7831 124.4858,395.2651 133.7898,395.4551 C135.1828,395.4831 137.6598,394.5791 137.8308,393.7401 C138.8718,388.6071 140.3868,383.2701 139.8868,378.1841 C138.7448,366.5791 136.0208,355.2421 130.4148,344.7871 C129.8388,343.7131 130.3378,342.0621 130.3378,340.6801 C131.0678,340.5641 131.7978,340.4501 132.5268,340.3341 C136.6398,349.6861 140.7528,359.0371 144.8658,368.3881 C145.5928,368.2481 146.3218,368.1081 147.0478,367.9681 C146.6188,361.6771 146.7958,355.2721 145.6388,349.1191 C142.9878,335.0221 136.1358,322.6461 128.7748,310.4931 C120.7658,297.2721 111.8438,284.3891 105.6468,270.3321 C93.2648,242.2491 84.1888,213.0231 82.8078,181.9661 C82.6548,178.5671 82.7858,175.1571 82.7858,171.7511 C83.6168,171.6121 84.4478,171.4721 85.2788,171.3321 C88.8398,226.4391 106.7798,275.8241 142.2468,318.2591 C142.3978,316.6761 142.3488,315.1591 141.9018,313.7701 C137.8838,301.2951 134.2258,288.6831 129.6278,276.4231 C123.1998,259.2851 116.4908,242.3881 115.4538,223.7311 C114.4778,206.1471 112.3698,188.6291 111.0018,171.0631 C109.9688,157.8041 109.3178,144.5141 108.4968,131.2381 C109.2128,131.1901 109.9288,131.1421 110.6458,131.0941 C112.6008,150.4131 114.5638,169.7321 116.5088,189.0521 C119.0758,214.5511 122.1868,239.9031 129.9948,264.5171 C138.5658,291.5271 151.8368,315.4651 172.7768,334.8671 C173.9798,335.9811 174.6968,337.6211 175.6398,339.0171 C175.3218,339.3951 175.0048,339.7741 174.6888,340.1521 C173.4968,339.5951 172.0928,339.2801 171.1518,338.4431 C165.3388,333.2741 159.6968,327.9121 153.8328,322.8051 C152.6438,321.7691 150.2408,320.6411 149.2918,321.1671 C147.9208,321.9271 147.1178,324.0791 146.5598,325.7941 C146.2448,326.7581 146.8858,328.0461 147.1358,329.1791 C153.5678,358.2971 154.6088,387.6241 148.6668,416.8391 C143.7968,440.7921 142.9948,464.7241 146.3098,488.7811 C149.8718,514.6291 150.0458,540.5291 148.2298,566.4401 C146.5538,590.3211 146.9948,613.8091 153.2628,637.2081 C162.0128,669.8821 171.2438,702.2671 187.3528,732.2901 C190.1258,737.4601 194.0118,740.9951 199.2408,742.0761 C216.1358,745.5701 233.1638,748.4191 250.1338,751.5581 C251.5478,751.8181 252.9048,752.3921 254.2878,752.8191 C254.1418,753.3701 253.9958,753.9201 253.8498,754.4711 C232.8278,755.5841 213.1248,748.1141 192.8748,743.4811 C193.0058,745.8661 193.1008,747.6011 193.1968,749.3351 C187.8558,744.0911 184.3188,737.6781 176.0288,736.3691 C177.7808,733.9801 179.0188,732.2961 180.5898,730.1551 C178.5068,728.5461 176.4408,727.1921 174.6988,725.5021 C173.8218,724.6501 173.2508,723.2371 173.0398,721.9931 C172.6478,719.6631 173.2078,717.0261 172.3448,714.9431 C163.1648,692.7731 155.5928,670.0971 150.1138,646.7261 C149.7408,645.1351 149.0788,643.6121 148.5508,642.0581 C146.4928,651.7131 145.7818,661.1731 144.3898,670.5321 C141.6748,688.7831 144.2878,707.5001 139.4198,725.5791 C138.9848,727.1961 140.2158,730.0051 141.5888,731.2571 C162.8918,750.6831 188.2728,762.0371 216.0588,768.6941 C242.1068,774.9351 268.6808,776.7421 295.2528,777.1991 C329.3808,777.7861 363.5708,777.8601 397.6628,776.4581 C432.7348,775.0161 467.5568,770.2641 501.9508,762.9201 C526.1388,757.7551 548.8708,749.2681 568.4208,733.6001 C570.0718,732.2761 572.8448,730.6021 572.7748,729.2081 C572.5668,725.0751 572.2188,720.2961 570.0078,717.0921 C567.5048,713.4641 565.6478,710.4331 567.7698,705.6101 C564.8258,705.9801 562.7438,706.2431 560.6628,706.5061 C568.3278,701.8661 566.5448,695.4141 564.7718,688.9551 C564.5948,688.3151 564.5218,687.6471 564.4018,686.9911 C558.3068,653.6441 556.4688,619.9611 556.3288,586.1341 C556.1778,549.4881 555.9768,512.8431 555.7128,476.1971 C555.6698,470.2141 555.1918,464.2331 554.9138,458.2521 C551.4068,466.5011 548.8228,474.7281 546.6388,483.0611 C538.7578,513.1251 531.3158,543.3081 523.1268,573.2861 C515.5038,601.1971 503.8088,627.4371 488.4788,652.0141 C487.2468,653.9891 485.7438,655.7951 484.3668,657.6801 C483.8828,657.4301 483.3998,657.1811 482.9158,656.9311 C483.5048,654.9851 483.7088,652.8001 484.7438,651.1311 C495.8638,633.1951 504.0858,613.8571 510.3548,593.8831 C520.2028,562.4981 528.7118,530.6941 537.9728,499.1231 C553.0278,447.8061 561.0738,395.6431 557.3968,342.0241 C556.7418,332.4731 554.6228,322.9131 558.2988,313.4481 C558.8118,312.1271 557.8758,310.2451 557.5508,308.2571 C552.5718,313.0911 548.4838,317.6281 543.8038,321.4381 C539.2888,325.1141 535.7938,331.0021 528.0628,329.5831 C529.0348,327.7041 530.8968,326.8541 532.2798,325.5111 C538.7018,319.2701 545.9048,313.5661 551.1658,306.4431 C570.2138,280.6581 577.7888,250.5781 581.3558,219.3711 C583.8458,197.5791 585.3148,175.6711 587.4478,153.8351 C587.8328,149.8951 589.2328,146.0541 590.1628,142.1661 C590.5698,142.2601 590.9758,142.3521 591.3818,142.4461 C591.3818,143.5871 591.4678,144.7371 591.3688,145.8701 C589.3828,168.5561 587.6128,191.2651 585.3028,213.9181 C583.1258,235.2681 580.5138,256.6131 572.3438,276.7211 C569.3468,284.0971 565.7538,291.2471 562.1148,298.3371 C560.4598,301.5611 561.1388,304.2161 563.1188,306.6021 C563.8338,307.4621 565.7148,307.3531 567.0628,307.6861 C566.7438,307.2351 566.4258,306.7831 566.1078,306.3321 C568.7948,301.2921 571.2398,296.1021 574.2138,291.2371 C587.9798,268.7161 597.4648,244.7921 597.5468,218.0161 C597.5878,204.8691 597.7458,191.7921 600.1928,178.8391 C600.3758,177.8661 600.7698,176.9341 601.0658,175.9821 C601.6678,176.1061 602.2718,176.2291 602.8738,176.3531 C602.3738,179.3461 601.7688,182.3261 601.4068,185.3361 C601.1218,187.7101 600.8728,190.1441 601.0858,192.5101 C601.3368,195.2961 602.5208,198.0301 602.5688,200.7981 C602.7208,209.7551 603.4008,218.8291 602.2608,227.6491 C600.9328,237.9261 599.4288,248.6631 595.2738,257.9851 C587.7218,274.9241 577.9978,290.8851 569.5318,307.4341 C567.2828,311.8331 563.9398,316.3781 566.1918,322.9851 C567.5698,321.1771 568.4828,320.0991 569.2638,318.9321 C573.7008,312.3021 578.1698,305.6901 582.5098,298.9961 C587.9768,290.5631 594.2408,282.7261 598.8478,273.6401 C614.3298,243.1011 619.0858,211.4241 610.7748,178.0001 C610.1748,175.5861 610.0428,173.0561 609.6938,170.5801 C610.2988,170.3931 610.9048,170.2071 611.5108,170.0201 C613.1168,173.3421 615.3888,176.5101 616.1958,180.0161 C617.9768,187.7631 619.7158,195.6331 620.2438,203.5361 C622.3898,235.5791 610.9658,263.5571 593.5298,289.6181 C585.3868,301.7891 577.3478,314.0301 569.3168,326.2761 C565.4398,332.1891 563.4178,338.8791 564.5868,345.7551 C566.4468,356.6951 568.9148,367.5621 571.7428,378.2971 C573.8298,386.2191 574.2778,385.9601 582.7228,386.4851 C597.7268,387.4171 612.2248,384.9461 626.4968,380.5611 C627.9468,380.1161 629.5998,380.3351 631.1578,380.2461 C631.2798,381.1021 631.4028,381.9591 631.5248,382.8161 C627.5158,383.8811 623.5158,384.9771 619.4978,386.0071 C608.1518,388.9151 596.7218,390.7551 584.9398,389.1251 C583.2098,388.8861 581.3338,389.7051 579.5258,390.0341 C579.5118,390.6221 579.4988,391.2101 579.4868,391.7981 C586.9098,398.6021 597.0328,392.0181 605.1548,395.3651 C605.1478,395.9131 605.1398,396.4601 605.1318,397.0071 L579.1958,397.0071 C580.3758,400.8561 581.1948,403.4961 581.9958,406.1401 C583.4558,410.9551 587.0198,413.5491 592.0358,413.1781 C598.3298,412.7131 604.6418,412.3141 610.8938,411.4911 C642.4758,407.3351 671.3878,396.2211 697.4798,377.8821 C702.1268,374.6161 707.2018,371.5181 702.6128,364.6541 C702.4478,364.4101 702.4878,364.0011 702.4998,363.6711 C702.6598,359.2621 701.1218,356.2281 696.1168,356.2501 C696.7498,354.1621 697.2718,352.4361 697.8318,350.5841 C695.1018,351.0901 692.9728,351.4851 690.8428,351.8801 M138.2628,422.8671 C127.1708,431.4201 114.7528,432.1811 102.5268,430.3491 C87.3018,428.0671 71.9248,425.3261 57.3848,420.4761 C46.9038,416.9781 37.3448,410.2121 27.9948,403.9731 C19.7198,398.4501 12.4358,391.4621 4.4398,385.4881 C1.0258,382.9361 -0.1572,380.2761 0.9028,376.2241 C5.3568,359.1931 9.6028,342.1071 14.1258,325.0941 C19.9308,303.2601 26.6608,281.6411 31.5738,259.6131 C34.5598,246.2241 34.6358,232.2081 36.4278,218.5281 C40.2548,189.3001 49.6008,161.7521 60.8678,134.5671 C72.8118,105.7521 95.3488,89.3251 122.3768,77.3751 C170.8638,55.9351 217.1538,30.4801 261.5828,1.6121 C263.9888,0.0491 265.8328,-0.0429 268.3328,1.0761 C296.8158,13.8241 326.7578,18.6421 357.8098,17.3751 C380.9608,16.4301 403.3218,11.8341 424.5758,2.5271 C428.5018,0.8091 431.4888,1.0631 435.1768,3.0231 C467.9288,20.4311 500.6418,37.9211 533.6578,54.8161 C547.3948,61.8451 561.9738,67.2041 575.9298,73.8281 C599.4258,84.9811 616.1078,103.3381 629.5518,125.1821 C645.3458,150.8401 653.8758,179.2831 662.6358,207.7481 C673.9708,244.5841 685.8818,281.2451 697.7238,317.9231 C701.8578,330.7281 706.6428,343.3221 710.9048,356.0871 C715.3378,369.3611 712.9458,378.3401 701.1558,385.9751 C691.8868,391.9781 681.7508,396.8831 671.5198,401.1161 C650.2758,409.9041 628.5158,417.2191 605.2818,418.6171 C599.9708,418.9361 594.6168,418.9071 589.2978,418.6851 C578.7698,418.2471 575.8078,415.9751 572.4218,405.8431 C570.4448,399.9231 568.7758,393.9001 566.9668,387.9241 C566.4988,387.9341 566.0308,387.9441 565.5628,387.9551 C564.5198,395.8641 562.7718,403.7551 562.5708,411.6851 C562.0488,432.3051 561.2408,452.9901 562.3078,473.5591 C564.1618,509.3271 564.7928,545.0601 564.1308,580.8641 C563.4688,616.7281 567.6078,652.2751 572.9068,687.6841 C575.0238,701.8251 577.3338,715.9401 579.8598,730.0141 C580.3848,732.9411 579.8418,734.5051 577.4788,736.1881 C558.0778,750.0191 536.9968,760.4481 514.2768,767.5351 C481.6618,777.7091 448.0468,781.8271 414.0918,783.6801 C392.8338,784.8391 371.5588,785.6641 350.2988,786.7791 C315.2968,788.6141 280.5268,786.3601 245.7808,781.9911 C223.6928,779.2141 202.4598,773.6011 181.4778,766.4421 C167.2178,761.5781 156.3918,751.5921 144.4828,743.1651 C141.6438,741.1561 138.7408,738.9391 135.5188,737.8441 C131.2818,736.4031 131.2848,733.8891 131.6718,730.2441 C133.7228,710.9101 136.0958,691.5881 137.3058,672.1951 C138.9618,645.6431 139.9778,619.0411 140.6968,592.4451 C141.3228,569.3081 141.5238,546.1441 141.2468,523.0001 C140.8858,492.8841 139.8848,462.7741 139.1088,432.6631 C139.0318,429.6881 138.6058,426.7241 138.2628,422.8671" id="Fill-2894"></path>
                <path d="M105.9326,384.2388 C101.0266,385.3598 98.9456,382.5988 97.4076,379.7338 C89.1606,364.3688 80.4756,349.1968 73.0926,333.4188 C61.7126,309.1008 52.8306,283.8308 48.9836,257.0968 C47.9636,250.0158 48.0436,242.7778 48.3646,235.5608 C56.3646,289.3678 77.8706,337.8438 105.9326,384.2388" id="Fill-2895"></path>
                <path d="M117.1816,316.7861 C114.2116,312.6651 111.0436,308.6721 108.3056,304.4021 C91.1746,277.6821 76.5986,249.7491 70.0026,218.3921 C67.0696,204.4421 64.5966,190.2941 66.5066,175.8991 C67.1476,171.0641 68.3776,166.3381 71.9006,162.7521 C72.3726,162.9151 72.8446,163.0781 73.3176,163.2401 C72.4106,166.2501 70.7916,169.2461 70.7376,172.2711 C70.6046,179.6731 70.5736,187.1761 71.6066,194.4821 C75.0806,219.0571 79.9346,243.3961 91.2146,265.7611 C98.8386,280.8771 107.5926,295.4251 115.8256,310.2361 C116.8366,312.0561 117.7466,313.9321 118.7036,315.7821 C118.1966,316.1171 117.6886,316.4521 117.1816,316.7861" id="Fill-2896"></path>
                <path d="M548.1611,353.1816 C555.9761,366.3846 531.7691,488.7036 519.3641,494.0556 C519.6391,491.6086 519.5311,489.5256 520.1331,487.6736 C531.5721,452.5046 539.9801,416.6666 544.3531,379.9076 C545.4181,370.9626 546.8851,362.0656 548.1611,353.1816" id="Fill-2897"></path>
                <path d="M276.3193,71.0347 C264.4503,63.9737 252.6123,56.9047 248.3563,42.9537 C248.7923,42.4927 249.2293,42.0327 249.6653,41.5717 C250.8583,42.4847 252.7163,43.1597 253.1423,44.3487 C257.0483,55.2577 265.4013,62.2837 274.1353,69.0287 C274.9153,69.6307 275.5933,70.3627 276.3193,71.0347" id="Fill-2898"></path>
                <path d="M146.1074,712.4854 C155.8664,719.2494 165.6244,726.0134 175.6804,732.9844 C170.0014,733.9394 149.1884,719.9474 146.1074,712.4854" id="Fill-2899"></path>
                <path d="M146.0869,703.209 C154.0009,708.997 161.9149,714.785 169.8299,720.572 C169.4169,721.119 169.0039,721.666 168.5909,722.212 C159.4759,718.017 151.8979,711.783 145.1079,704.502 C145.4349,704.07 145.7609,703.64 146.0869,703.209" id="Fill-2900"></path>
                <path d="M593.2285,110.0806 L593.2285,131.7886 C590.1695,128.3826 589.9775,116.2626 593.2285,110.0806" id="Fill-2901"></path>
                <path d="M548.1719,339.0957 C547.9139,333.5127 547.7199,329.2937 547.4689,323.8327 C551.1469,327.7677 551.2769,333.1377 548.1719,339.0957" id="Fill-2902"></path>
                <path d="M276.0479,31.2305 C309.3129,47.0745 344.3289,44.6845 379.9229,41.5155 C366.0949,52.6185 284.7059,44.8035 276.0479,31.2305" id="Fill-2903"></path>
            </g>
        </g>
    </g>
</svg>