<?xml version="1.0" encoding="UTF-8"?>
<svg width="306px" height="872px" viewBox="0 0 306 872" version="1.1" xmlns="http://www.w3.org/2000/svg" xmlns:xlink="http://www.w3.org/1999/xlink">
    <!-- Generator: Sketch 51.1 (57501) - http://www.bohemiancoding.com/sketch -->
    <title>Fill 2854 Copy</title>
    <desc>Created with Sketch.</desc>
    <defs></defs>
    <g id="Page-1" stroke="none" stroke-width="1" fill="none" fill-rule="evenodd">
        <g id="Artboard" transform="translate(-231.000000, -207.000000)" fill="#1A1919">
            <path d="M264.749,352.488801 L265.952,352.488801 L265.952,352.358801 L264.749,352.358801 L264.749,352.488801 Z M280.055,986.879801 C280.241,986.919801 280.429,986.959801 280.615,987.000801 C280.767,986.501801 280.918,986.003801 281.069,985.505801 C280.912,985.455801 280.754,985.406801 280.596,985.357801 C280.416,985.864801 280.235,986.371801 280.055,986.879801 Z M251.621,389.737801 C251.54,389.771801 251.459,389.806801 251.379,389.841801 C251.41,390.328801 251.442,390.815801 251.475,391.302801 C251.524,391.299801 251.572,391.295801 251.621,391.291801 L251.621,389.737801 Z M299.76,721.550801 C299.969,721.568801 300.178,721.585801 300.387,721.603801 C300.346,720.928801 300.306,720.252801 300.266,719.576801 C300.063,719.587801 299.858,719.596801 299.655,719.606801 C299.691,720.254801 299.725,720.902801 299.76,721.550801 Z M310.029,1064.8448 C308.525,1065.0638 308.525,1065.0638 308.256,1066.1008 C308.935,1065.6208 309.482,1065.2328 310.029,1064.8448 Z M400.422,1023.2598 C400.581,1023.3128 400.74,1023.3658 400.899,1023.4178 C401.139,1022.7648 401.379,1022.1138 401.619,1021.4608 C401.422,1021.3958 401.226,1021.3298 401.029,1021.2648 C400.826,1021.9298 400.625,1022.5948 400.422,1023.2598 Z M299.395,1004.1578 C299.242,1004.0158 299.089,1003.8728 298.936,1003.7308 C298.447,1004.3488 297.959,1004.9668 297.471,1005.5848 C297.606,1005.6908 297.74,1005.7968 297.877,1005.9038 C298.383,1005.3218 298.889,1004.7398 299.395,1004.1578 Z M260.567,450.472801 C258.887,450.904801 258.775,451.489801 259.579,452.665801 C259.918,451.915801 260.149,451.399801 260.567,450.472801 Z M466.641,994.417801 C466.626,994.681801 466.611,994.945801 466.596,995.209801 C467.226,995.273801 467.856,995.337801 468.486,995.401801 C468.515,995.176801 468.543,994.950801 468.57,994.725801 C467.928,994.622801 467.284,994.520801 466.641,994.417801 Z M492.186,558.851801 C492.344,558.879801 492.501,558.907801 492.658,558.934801 C492.85,558.230801 493.399,557.577801 492.624,556.717801 C492.479,557.428801 492.332,558.140801 492.186,558.851801 Z M301.147,350.708801 C301.171,350.619801 301.195,350.531801 301.22,350.443801 L297.429,350.443801 C297.429,350.531801 297.43,350.619801 297.43,350.708801 L301.147,350.708801 Z M253.018,494.587801 C252.152,495.565801 252.679,496.202801 253.463,496.780801 C253.315,496.049801 253.166,495.318801 253.018,494.587801 Z M301.498,741.417801 C301.66,741.385801 301.822,741.354801 301.984,741.322801 C302.122,740.538801 302.539,739.698801 301.032,738.847801 C301.234,739.963801 301.366,740.690801 301.498,741.417801 Z M291.372,1000.2108 C291.215,1000.0898 291.059,999.968801 290.901,999.846801 C290.459,1000.5018 289.657,1000.9068 289.947,1002.1478 C290.522,1001.8538 290.857,1001.3338 291.166,1000.8008 C291.268,1000.6228 291.305,1000.4088 291.372,1000.2108 Z M256.862,396.344801 C256.727,397.170801 256.236,398.073801 257.269,398.899801 C257.963,397.819801 257.764,397.036801 256.862,396.344801 Z M301.227,728.955801 C301.154,728.246801 301.083,727.536801 300.982,726.547801 C299.799,727.615801 299.998,728.328801 301.227,728.955801 Z M307.547,707.210801 C307.779,707.182801 308.01,707.154801 308.242,707.125801 C308.308,706.217801 308.332,705.319801 307.084,704.658801 L307.547,707.210801 Z M306.823,725.257801 C308.024,723.403801 308.006,723.320801 306.363,722.468801 C306.514,723.374801 306.641,724.146801 306.823,725.257801 Z M302.046,747.646801 C301.994,747.680801 301.943,747.715801 301.893,747.749801 L301.893,751.596801 C301.943,751.595801 301.994,751.594801 302.046,751.594801 L302.046,747.646801 Z M313.77,1065.9488 C313.895,1066.2198 314.018,1066.4908 314.143,1066.7608 C314.908,1066.4078 315.875,1066.4398 316.102,1064.9968 L313.77,1065.9488 Z M529.64,370.354801 C531.123,368.697801 531.123,368.697801 529.818,367.236801 C529.752,368.378801 529.696,369.366801 529.64,370.354801 Z M377.282,1000.0018 C379.406,1000.0538 379.538,999.888801 378.682,998.310801 C378.219,998.869801 377.788,999.390801 377.282,1000.0018 Z M452.867,780.680801 C453.046,780.681801 453.225,780.682801 453.404,780.683801 C454.151,778.612801 454.159,778.335801 453.411,777.172801 C453.217,778.423801 453.041,779.552801 452.867,780.680801 Z M262.931,447.609801 C262.385,448.337801 261.838,449.065801 261.174,449.950801 C263.106,449.824801 263.106,449.824801 262.931,447.609801 Z M437.252,753.109801 C438.995,751.766801 438.995,751.766801 438.426,749.698801 C437.987,750.972801 437.686,751.846801 437.252,753.109801 Z M290.465,351.635801 C288.834,349.578801 288.418,349.608801 287.363,351.775801 C288.406,351.728801 289.346,351.685801 290.465,351.635801 Z M322.832,718.245801 C322.059,718.868801 321.311,719.470801 320.531,720.099801 C321.371,721.006801 322.102,720.855801 322.783,720.295801 C323.408,719.783801 323.572,719.155801 322.832,718.245801 Z M291.045,680.073801 C290.715,682.203801 291.221,684.394801 292.346,685.819801 C292.075,683.660801 291.848,681.800801 291.045,680.073801 Z M424.84,1007.8158 C424.223,1007.6198 423.811,1007.3818 423.711,1007.4758 C422.693,1008.4328 422.049,1009.5928 421.876,1010.9608 C422.02,1011.0558 422.163,1011.1498 422.307,1011.2438 C423.072,1010.2078 423.838,1009.1718 424.84,1007.8158 Z M308.2,736.672801 C309.815,735.329801 309.815,735.329801 308.709,733.631801 C307.584,734.402801 307.102,735.258801 308.2,736.672801 Z M443.442,1013.5338 C443.59,1013.6008 443.739,1013.6678 443.888,1013.7348 C446.051,1011.2388 446.33,1010.5128 445.32,1009.2888 C444.659,1010.7838 444.051,1012.1588 443.442,1013.5338 Z M507.967,483.485801 C510.153,481.724801 510.186,481.582801 509.207,479.154801 C508.979,479.761801 508.752,480.257801 508.606,480.776801 C508.399,481.514801 508.25,482.270801 507.967,483.485801 Z M502.831,509.543801 C504.468,508.200801 505.171,506.592801 504.199,504.506801 C503.744,506.185801 503.287,507.864801 502.831,509.543801 Z M459.834,785.901801 C459.998,785.918801 460.163,785.934801 460.328,785.951801 C461.137,783.976801 461.388,781.165801 460.576,779.586801 C460.329,781.691801 460.082,783.796801 459.834,785.901801 Z M507.96,492.082801 C506.012,493.402801 505.713,495.076801 506.8,497.032801 C507.187,495.382801 507.573,493.732801 507.96,492.082801 Z M452.684,936.596801 C453.705,934.454801 453.546,931.701801 452.31,930.100801 C452.241,932.359801 451.879,934.302801 452.684,936.596801 Z M481.326,1006.1058 C481.973,1008.0418 481.797,1010.3758 484.202,1011.8848 C483.49,1009.5348 482.77,1007.6418 481.326,1006.1058 Z M316.512,703.270801 C316.766,703.257801 317.02,703.244801 317.273,703.232801 C317.174,701.474801 317.076,699.715801 316.944,697.366801 C316.223,698.100801 315.684,698.414801 315.714,698.657801 C315.91,700.203801 316.231,701.734801 316.512,703.270801 Z M513.031,383.677801 C510.791,385.326801 510.705,386.174801 512.453,388.125801 C512.646,386.644801 512.823,385.275801 513.031,383.677801 Z M306.571,700.277801 C307.479,697.693801 307.137,696.557801 305.176,695.535801 C305.787,697.088801 305.075,698.799801 306.571,700.277801 Z M453.609,915.258801 C453.666,915.238801 453.723,915.219801 453.779,915.199801 L453.779,904.152801 L453.609,904.153801 L453.609,915.258801 Z M452.86,787.243801 C451.553,788.879801 451.022,792.028801 451.631,793.571801 C452.451,791.398801 452.936,789.375801 452.86,787.243801 Z M250.78,373.005801 C250.908,371.228801 251.497,369.787801 250.93,368.198801 C248.426,370.125801 248.4,370.509801 250.78,373.005801 Z M258.231,407.982801 C257.348,409.717801 257.483,411.447801 257.512,413.352801 C259.423,411.736801 259.572,410.461801 258.231,407.982801 Z M257.929,444.237801 C258.562,441.284801 257.918,439.032801 256.892,436.478801 C256.482,438.638801 256.895,441.773801 257.929,444.237801 Z M304.909,692.154801 C306.301,690.057801 306.281,689.652801 304.804,687.435801 C303.377,689.129801 303.378,689.500801 304.909,692.154801 Z M253.995,501.653801 C253.675,503.964801 253.418,506.283801 255.453,508.032801 C255.269,505.842801 255.149,503.643801 253.995,501.653801 Z M315.768,727.396801 C315.274,728.118801 314.813,728.742801 314.407,729.401801 C314.087,729.922801 313.836,730.486801 313.589,730.964801 C314.311,732.115801 315.029,731.665801 315.664,731.162801 C316.658,730.372801 316.676,729.486801 315.768,727.396801 Z M443.53,835.359801 C442.367,837.474801 441.509,839.323801 441.987,841.615801 C443.91,840.063801 444.264,838.728801 443.53,835.359801 Z M450.659,807.620801 C450.061,810.057801 449.578,812.028801 449.047,814.194801 C451.684,812.568801 452.045,811.165801 450.659,807.620801 Z M520.25,378.258801 C518.678,377.529801 517.976,378.526801 517.511,379.288801 C516.844,380.381801 517.02,381.603801 517.974,382.904801 C518.774,381.270801 519.457,379.875801 520.25,378.258801 Z M511.045,401.877801 C512.535,398.094801 512.574,395.559801 511.251,393.615801 C510.604,396.260801 510.484,398.800801 511.045,401.877801 Z M417.615,1009.1948 C414.639,1010.0748 413.537,1011.8538 413.444,1015.4658 C414.949,1013.2018 416.282,1011.1988 417.615,1009.1948 Z M309.346,806.757801 L309.346,818.005801 C310.18,814.277801 310.919,810.552801 309.346,806.757801 Z M313.822,708.532801 C311.311,710.515801 311.27,711.012801 313.312,712.869801 C314.957,711.360801 314.998,711.066801 313.822,708.532801 Z M314.766,716.095801 C312.334,717.077801 311.974,718.389801 313.569,720.447801 C315.734,719.111801 315.914,718.459801 314.766,716.095801 Z M448.077,1013.2788 C445.471,1015.9348 444.096,1019.2948 444.59,1021.4328 C445.715,1019.3788 446.882,1017.3388 447.941,1015.2428 C448.178,1014.7728 448.032,1014.1098 448.077,1013.2788 Z M304.483,1063.7738 C301.172,1062.8458 299.955,1063.2018 298.48,1065.4218 C302.041,1066.0298 302.868,1065.8168 304.483,1063.7738 Z M320.588,726.927801 C323.711,726.015801 324.185,725.152801 323.107,722.564801 C320.447,723.775801 320.106,724.338801 320.588,726.927801 Z M498.613,528.832801 C498.768,528.892801 498.922,528.951801 499.076,529.011801 C500.732,525.735801 501.797,522.327801 501.19,518.545801 C500.93,518.782801 500.836,519.061801 500.772,519.346801 C500.049,522.508801 499.332,525.670801 498.613,528.832801 Z M531.223,383.844801 C531.42,381.109801 531.652,378.401801 531.11,375.720801 C529.519,378.462801 529.557,381.180801 531.223,383.844801 Z M311.873,705.752801 C314.203,704.297801 314.295,703.393801 312.527,700.496801 C310.088,701.975801 309.99,702.639801 311.873,705.752801 Z M315.86,693.110801 C316.013,692.979801 316.165,692.848801 316.317,692.718801 C315.982,691.189801 315.691,689.649801 315.3,688.135801 C314.934,686.719801 315.046,685.110801 313.744,684.010801 C313.633,686.942801 314.333,689.754801 314.824,692.586801 C314.864,692.814801 315.501,692.938801 315.86,693.110801 Z M268.4,492.395801 C267.309,495.252801 267.871,498.135801 269.899,500.151801 C270.369,497.346801 270.181,494.794801 268.4,492.395801 Z M310.424,925.259801 C307.446,926.549801 305.923,929.943801 306.943,932.611801 C308.061,931.466801 309.578,928.315801 310.424,925.259801 Z M322.076,710.185801 C319.837,711.594801 319.465,712.735801 320.364,715.433801 C323.509,714.302801 323.826,713.329801 322.076,710.185801 Z M468.172,709.719801 C470.462,706.516801 471.388,700.761801 469.992,697.995801 C469.367,702.020801 468.807,705.637801 468.172,709.719801 Z M440.029,1013.4138 C443.781,1009.5038 444.717,1007.3798 443.84,1005.0298 C441.539,1008.1918 440.236,1010.9888 440.029,1013.4138 Z M348.938,994.319801 C347.507,995.132801 345.499,997.380801 344.225,999.595801 C347.834,1000.0798 349.057,998.711801 348.938,994.319801 Z M310.475,765.893801 C311.005,762.371801 310.877,754.183801 310.41,752.472801 C309.299,752.693801 309.42,753.539801 309.471,754.322801 C309.668,757.338801 309.863,760.354801 310.096,763.368801 C310.16,764.214801 310.345,765.051801 310.475,765.893801 Z M328.8,1017.2288 C330.241,1016.6088 334.569,1011.9688 336.106,1009.4428 C335.656,1008.7518 335.152,1008.6438 334.602,1009.3248 C332.649,1011.7368 330.697,1014.1488 328.768,1016.5778 C328.671,1016.7008 328.783,1016.9898 328.8,1017.2288 Z M469.519,983.769801 C469.084,979.489801 467.977,975.426801 466.046,971.606801 C466.395,975.896801 467.359,980.011801 469.519,983.769801 Z M496.956,537.594801 C495.648,541.335801 494.72,545.169801 493.982,549.049801 C493.959,549.168801 494.506,549.395801 494.821,549.594801 C496.746,544.134801 497.589,539.888801 496.956,537.594801 Z M309.079,748.492801 C311.368,746.125801 311.324,743.086801 309.005,740.469801 C307.426,743.176801 308.184,745.788801 309.079,748.492801 Z M267.225,480.409801 C264.583,482.798801 264.737,485.498801 267.703,488.355801 C268.76,485.553801 268.032,483.037801 267.225,480.409801 Z M410.287,1014.1158 C411.75,1012.1558 413.216,1010.6398 414.231,1008.6428 L409.339,1008.6428 C409.519,1010.2608 409.667,1011.6778 409.842,1013.0928 C409.868,1013.3078 410.017,1013.5068 410.287,1014.1158 Z M446.818,1001.5678 C447.57,1003.1268 448.26,1004.5548 449.085,1006.2678 C450.402,1004.1158 451.566,1002.3908 452.422,1000.1828 C450.234,1000.1138 448.694,1000.8668 446.818,1001.5678 Z M300.946,668.310801 C301.077,673.122801 301.508,677.885801 303.499,682.353801 C303.776,677.474801 302.582,672.855801 300.946,668.310801 Z M257.715,362.406801 C254.598,363.855801 253.826,366.182801 255.218,369.475801 C258.008,368.194801 258.602,366.580801 257.715,362.406801 Z M279.91,603.887801 C279.707,604.376801 279.537,604.583801 279.556,604.770801 C280.102,610.009801 280.657,615.247801 281.256,620.480801 C281.285,620.736801 281.721,620.945801 281.967,621.175801 C282.058,615.645801 281.067,610.354801 280.499,605.022801 C280.465,604.705801 280.191,604.413801 279.91,603.887801 Z M449.719,1017.6438 C449.557,1017.6638 449.43,1017.6478 449.41,1017.6858 C448.131,1020.2298 446.84,1022.7678 445.598,1025.3298 C445.156,1026.2388 445.443,1026.9848 446.505,1027.6838 C447.729,1025.4128 448.925,1023.2748 450.037,1021.0938 C450.643,1019.9048 450.685,1018.6928 449.719,1017.6438 Z M268.356,1017.9908 C267.889,1018.7728 267.445,1019.4258 267.092,1020.1238 C265.815,1022.6468 266.198,1023.6358 268.885,1024.8748 C271.663,1022.0918 271.19,1020.0568 268.356,1017.9908 Z M316.965,735.177801 C313.77,736.470801 313.176,740.515801 315.57,744.270801 C318.853,741.630801 316.941,738.297801 316.965,735.177801 Z M289.002,619.689801 C285.482,621.667801 284.94,623.427801 286.765,626.939801 C290.369,625.250801 291.393,623.471801 289.002,619.689801 Z M315.219,910.031801 C312.257,912.610801 309.357,915.227801 309.289,920.147801 C312.84,917.320801 314.957,914.233801 315.219,910.031801 Z M404.196,1000.0028 C408.207,999.468801 409.229,997.410801 407.514,993.488801 C403.619,994.794801 403.017,995.920801 404.196,1000.0028 Z M255.611,389.344801 C257.272,389.598801 257.135,388.552801 257.129,387.725801 C257.098,383.911801 257.039,380.098801 256.951,376.284801 C256.942,375.871801 256.684,375.464801 256.553,375.087801 C255.252,375.294801 255.08,376.083801 255.109,377.047801 C255.17,379.033801 255.164,381.021801 255.244,383.006801 C255.332,385.132801 255.488,387.255801 255.611,389.344801 Z M290.461,629.069801 C286.357,630.726801 285.863,632.045801 287.627,636.312801 C292.476,634.921801 292.141,632.402801 290.461,629.069801 Z M492.468,505.139801 C488.454,506.758801 486.873,509.476801 487.733,513.056801 C492.009,511.329801 493.223,509.362801 492.468,505.139801 Z M494.174,494.318801 C489.665,497.205801 487.92,500.327801 489.053,503.288801 C493.6,500.613801 495.146,497.983801 494.174,494.318801 Z M446.186,854.430801 C448.195,849.391801 449.386,844.315801 449.839,838.740801 C447.567,839.804801 446.277,841.167801 446.216,843.251801 C446.106,846.974801 446.186,850.703801 446.186,854.430801 Z M289.117,647.850801 C293.202,645.870801 294.072,642.326801 291.577,638.424801 C287.195,640.911801 286.85,642.183801 289.117,647.850801 Z M311.671,908.551801 C314.875,905.882801 319.092,898.844801 319.086006,896.174801 C314.391,898.652801 310.18,903.423801 311.671,908.551801 Z M304.106,950.494801 C308.775,949.913801 313.295,944.891801 314.41,939.257801 C310.194,941.562801 305.158,946.991801 304.106,950.494801 Z M450.401,820.091801 C447.254,822.812801 445.789,832.331801 447.846,835.865801 C451.711,831.083801 450.141,825.572801 450.401,820.091801 Z M320.474,923.574801 C315.449,927.189801 309.654,935.336801 309.568,938.781801 C314.533,934.788801 318.83,930.417801 320.474,923.574801 Z M276.979,575.135801 C277.439,569.509801 273.32,541.111801 271.484,536.988801 C273.051,549.724801 274.264,562.511801 276.979,575.135801 Z M491.301,515.208801 C486.314,517.873801 484.73,521.570801 486.259,526.703801 C491.578,524.340801 492.577,519.570801 491.301,515.208801 Z M304.338,1056.9478 C298.379,1055.8828 292.759,1054.8778 286.871,1053.8258 C287.136,1054.3608 287.188,1054.6128 287.34,1054.7528 C291.309,1058.4008 296.115,1059.4768 301.319,1059.1878 C302.535,1059.1198 303.545,1058.4598 304.338,1056.9478 Z M386.326,1000.1228 C388.595,1000.7468 390.727,1000.9338 392.863,1000.3658 C394.965,999.807801 395.994,998.601801 396.176,996.473801 C396.331,994.643801 395.906,992.910801 395.279,991.415801 C392.305,994.308801 389.406,997.127801 386.326,1000.1228 Z M262.853,549.275801 C262.746,548.386801 262.693,547.761801 262.592,547.144801 C262.033,543.757801 261.46,540.372801 260.897,536.986801 C259.795,530.370801 258.713,523.752801 257.581,517.142801 C257.376,515.946801 257.213,514.678801 256.185,513.582801 C255.499,519.391801 260.277,545.110801 262.853,549.275801 Z M260.451,420.692801 C257.764,421.261801 257.369,421.798801 257.75,424.155801 C258.638,429.655801 259.534,435.155801 260.451,440.651801 C260.561,441.306801 260.818,441.937801 261.001,442.559801 C262.559,442.401801 262.538,441.509801 262.447,440.604801 C261.794,434.034801 261.131,427.465801 260.451,420.692801 Z M306.212,785.439801 C304.717,791.323801 304.916,819.339801 306.347,825.348801 C307.303,822.228801 307.254,793.416801 306.212,785.439801 Z M265.122,562.346801 C264.983,562.373801 264.844,562.399801 264.705,562.426801 C264.795,563.529801 264.83,564.640801 264.984,565.734801 C265.697,570.786801 266.309,575.858801 267.209,580.877801 C268.487,588.014801 269.982,595.112801 271.406,602.222801 C271.5,602.684801 271.794,603.105801 271.995,603.544801 C272.154,603.504801 272.315,603.463801 272.475,603.422801 C272.332,601.609801 272.324,599.774801 272.02,597.989801 C271.268,593.589801 270.395,589.210801 269.541,584.829801 C268.08,577.332801 266.596,569.840801 265.122,562.346801 Z M449.113,887.137801 C445.721,893.337801 445.193,908.129801 447.255,914.175801 C449.152,905.401801 450.04,896.558801 449.113,887.137801 Z M496.239,1035.3768 C495.527,1033.1718 494.801,1030.9258 494,1028.4458 C491.5,1029.8028 489.169,1031.0678 486.361,1032.5918 C488.291,1033.1208 489.556,1032.8008 490.837,1032.4488 C491.924,1032.1488 492.999,1032.0538 493.904,1033.4078 C486.662,1037.5078 478.623,1039.2408 471.305,1042.6638 C475.944,1042.2898 492.096,1037.5068 496.239,1035.3768 Z M294.729,673.398801 C295.193,673.159801 295.551,673.063801 295.552,672.962801 C295.671,665.086801 294.216,657.372801 293.359,649.328801 C292.821,649.674801 292.54,649.798801 292.332,649.997801 C289.301,652.904801 288.631,656.883801 290.852,660.682801 C292.622,663.712801 293.572,666.936801 294.101,670.345801 C294.246,671.284801 294.481,672.210801 294.729,673.398801 Z M517.24,374.522801 C519.475,374.034801 520.455,372.566801 520.537,370.586801 C520.643,368.058801 521.406,366.174801 523.932,365.107801 C524.604,364.824801 525.042,363.645801 525.28,362.791801 C525.482,362.066801 525.338,361.157801 524.383,360.816801 C521.831,359.904801 519.315,359.403801 517.313,361.270801 C517.313,363.198801 517.473,364.840801 517.276,366.438801 C516.946,369.119801 516.676,371.771801 517.24,374.522801 Z M487.783,560.814801 C485.184,563.137801 482.935,565.142801 480.692,567.154801 C480.397,567.419801 480.117,567.707801 479.857,568.008801 C477.84,570.347801 476.95,573.881801 477.764,576.751801 C479.748,575.168801 481.655,573.621801 483.59,572.109801 C487.149,569.326801 488.018,565.532801 487.783,560.814801 Z M483.697,545.184801 C486.703,543.702801 488.652,541.356801 489.324,538.179801 C489.883,535.538801 489.997,532.801801 490.269,530.103801 C490.318,529.611801 490.179,529.099801 490.117,528.503801 C484.578,531.844801 481.681,539.382801 483.697,545.184801 Z M518.674,442.268801 C521.524,438.491801 524.229,398.783801 522.594,389.080801 C521.287,406.809801 519.981,424.538801 518.674,442.268801 Z M264.274,454.421801 C259.808,456.059801 259.3,456.907801 260.203,461.050801 C261.09,465.108801 261.988,469.163801 262.928,473.208801 C263.264,474.652801 263.74,476.062801 264.174,477.565801 C266.683,475.836801 266.881,475.501801 266.607,472.920801 C266.33,470.298801 265.986,467.683801 265.654,465.067801 C265.212,461.586801 264.753,458.107801 264.274,454.421801 Z M488.139,545.605801 C487.111,546.338801 486.076,546.921801 485.231,547.707801 C480.484,552.114801 480.106,557.965801 479.645,564.064801 C486.805,560.428801 490.207,552.998801 488.139,545.605801 Z M317.582,747.293801 C314.897,748.529801 314.277,749.374801 314.291,752.045801 C314.316,756.761801 314.466,761.475801 314.524,766.191801 C314.637,775.384801 314.715,784.577801 314.831,793.770801 C314.842,794.569801 315.03,795.365801 315.137,796.163801 C317.179,779.961801 317.53,763.759801 317.582,747.293801 Z M306.039,956.226801 C305.404,956.790801 305.095,957.026801 304.833,957.307801 C302.613,959.691801 301.031,962.425801 300.256,965.611801 C299.496,968.725801 298.609,971.797801 296.77,974.484801 C296.494,974.886801 296.077,975.190801 295.309,975.954801 L295.309,971.285801 C294.789,971.384801 294.645,971.568801 294.532,971.771801 C292.404,975.616801 290.271,979.459801 288.164,983.317801 C287.782,984.015801 287.482,984.764801 287.197,985.509801 C286.254,987.972801 286.547,988.664801 288.984,989.801801 C289.262,989.930801 289.572,989.990801 289.834,990.072801 C293.046,986.271801 305.23,961.032801 306.039,956.226801 Z M286.113,617.162801 C288.48,616.188801 289.133,614.861801 288.598,611.782801 C286.393,599.124801 284.172,586.468801 281.926,573.817801 C281.554,571.719801 281.027,569.650801 280.571,567.567801 C280.061,575.206801 284.577,613.852801 286.113,617.162801 Z M311.901,621.014801 C310.904,621.756801 310.264,622.198801 309.659,622.686801 C306.175,625.495801 302.682,628.294801 299.225,631.137801 C295.599,634.117801 295.299,634.561801 297.33,639.513801 C297.386,639.651801 297.527,639.752801 297.781,640.049801 C302.309,636.677801 306.867,633.319801 311.365,629.881801 C311.863,629.500801 312.28,628.663801 312.277,628.040801 C312.268,625.833801 312.059,623.626801 311.901,621.014801 Z M287.263,1022.0008 C287.049,1021.8688 286.834,1021.7378 286.62,1021.6048 C287.109,1019.9478 287.424,1018.2098 288.139,1016.6558 C288.858,1015.0888 289.878,1013.6278 290.947,1012.2618 C291.965,1010.9648 293.443,1010.0438 294.173,1008.4568 C292.51,1009.4568 291.087,1010.7038 289.623,1011.8998 C288.215,1013.0498 287.152,1014.6528 285.464,1015.4398 C285.318,1015.3258 285.174,1015.2138 285.029,1015.1008 C286.055,1013.1718 287.082,1011.2428 288.195,1009.1528 C287.502,1008.6178 286.857,1008.1198 286.064,1007.5088 C282.72,1014.7658 278.503,1021.2598 275.429,1028.5478 C281.357,1030.1168 287.073,1031.0068 293.177,1030.8518 C293.865,1028.0738 294.539,1025.3528 295.344,1022.1068 C293.813,1023.0528 292.85,1023.7718 291.783,1024.2718 C290.846,1024.7108 290.156,1026.1168 288.529,1025.2028 C289.02,1024.6138 289.368,1024.1158 289.795,1023.6968 C292.077,1021.4558 294.395,1019.2518 296.668,1017.0008 C297.811,1015.8698 298.678,1014.5958 298.2,1012.5888 C294.295,1015.6298 291.084,1019.1928 287.263,1022.0008 Z M519.461,386.009801 C517.313,386.727801 516.712,387.404801 516.782,389.855801 C516.989,397.077801 516.273,404.224801 515.363,411.371801 C514.072,421.522801 512.877,431.685801 511.664,441.845801 C511.267,445.177801 510.938,448.518801 510.596,451.857801 C510.576,452.039801 510.735,452.240801 510.833,452.485801 C511.529,452.165801 512.138,451.885801 512.998,451.490801 C512.053,459.020801 510.502,466.200801 509.594,473.747801 C511.113,473.120801 511.401,472.200801 511.555,471.115801 C512.366,465.337801 513.348,459.580801 514.024,453.786801 C515.33,442.592801 516.62,431.390801 517.636,420.166801 C518.457,411.090801 518.897,401.978801 519.44,392.878801 C519.576,390.600801 519.461,388.306801 519.461,386.009801 Z M459.914,976.218801 C458.246,971.819801 457.533,967.577801 456.749,963.347801 C455.658,957.460801 454.522,951.580801 453.365,945.706801 C453.191,944.822801 452.801,943.981801 452.511,943.119801 C451.537,958.750801 451.044,974.265801 452.815,989.911801 C457.184,990.147801 461.011,989.211801 464.695,986.944801 C463.666,982.004801 462.664,977.195801 461.662,972.386801 C461.496,972.386801 461.328,972.384801 461.162,972.383801 C460.783,973.548801 460.404,974.713801 459.914,976.218801 Z M443.256,747.461801 C443.607,747.150801 443.982,746.861801 444.308,746.524801 C448.414,742.269801 452.53,738.024801 456.606,733.740801 C458.079,732.191801 458.852,730.268801 459.182,728.167801 C459.963,723.198801 460.734,718.226801 461.518,713.257801 C463.707,699.374801 465.899,685.491801 468.092,671.610801 C468.329,670.111801 468.57,668.613801 468.83,667.118801 C469.072,665.726801 469.343,664.338801 469.601,662.948801 C457.71,690.157801 449.658,718.521801 443.256,747.461801 Z M319.799,707.633801 C322.574,706.373801 322.695,706.276801 322.48,703.710801 C321.856,696.304801 321.207,688.899801 320.51,681.498801 C319.176,667.329801 317.247,653.240801 314.621,639.251801 C314.171,636.852801 313.578,634.479801 312.963,631.696801 C311.902,632.334801 311.122,632.680801 310.49,633.205801 C307.049,636.068801 303.693,639.037801 300.205,641.842801 C298.258,643.407801 297.754,645.172801 298.428,647.536801 C299.524,651.376801 300.505,655.249801 301.447,659.130801 C303.578,667.898801 305.723,676.664801 307.727,685.462801 C308.628,689.416801 309.21,693.443801 309.969,697.612801 C311.723,697.089801 312.44,696.061801 312.44,694.564801 C312.44,693.694801 312.262,692.815801 312.091,691.954801 C309.962,681.219801 307.812,670.488801 305.691,659.751801 C305.422,658.383801 305.295,656.988801 305.061,655.315801 C306.604,655.999801 306.82,657.121801 307.162,658.156801 C309.795,666.120801 312.467,674.071801 315.047,682.052801 C317.241,688.836801 318.969,695.718801 319.124,702.915801 C319.156,704.402801 319.537,705.881801 319.799,707.633801 Z M444.187,911.892801 C443.998,911.857801 443.809,911.823801 443.621,911.788801 C443.191,912.958801 442.635,914.099801 442.356,915.304801 C441.035,920.979801 439.441,926.620801 438.596,932.369801 C437.087,942.641801 435.785,952.959801 434.897,963.301801 C434.255,970.772801 434.364,978.311801 434.262,985.822801 C434.228,988.335801 434.529,990.863801 435.459,993.478801 C437.516,992.222801 438.842,990.382801 440.715,989.321801 C440.857,989.433801 441,989.545801 441.143,989.658801 C440.357,991.023801 439.572,992.388801 438.512,994.235801 C441.815,993.379801 444.504,992.688801 447.19,991.985801 C450.702,991.066801 450.707,991.061801 449.91,987.464801 C448.043,979.026801 446.481,970.524801 446.137,961.884801 C445.811,953.663801 445.758,945.424801 445.873,937.196801 C445.993,928.700801 445.508,920.274801 444.187,911.892801 Z M413.048,998.161801 C413.18,998.292801 413.313,998.423801 413.445,998.554801 C413.916,998.306801 414.43,998.115801 414.848,997.798801 C416.123,996.834801 417.382,995.847801 418.609,994.823801 C420.941,992.876801 423.223,990.869801 425.572,988.943801 C426.811,987.927801 428.121,986.967801 430.162,986.960801 C427.257,991.535801 422.508,993.969801 419.178,998.346801 C423.914,998.176801 427.907,997.277801 431.982,995.595801 C431.857,989.540801 431.994,983.535801 431.552,977.573801 C430.916,969.002801 431.115,960.486801 432.045,951.960801 C432.703,945.922801 433.29,939.876801 433.846,933.827801 C433.931,932.904801 434.02,931.641801 433.509,931.068801 C432.213,929.613801 432.547,928.115801 432.839,926.561801 C434.488,917.766801 436.172,908.979801 437.819,900.184801 C439.32,892.175801 440.872,884.174801 442.253,876.144801 C443.848,866.866801 443.317,857.488801 443.299,848.140801 C443.297,847.403801 443.053,846.667801 442.872,845.656801 C439.699,848.003801 438.303,850.939801 437.566,854.311801 C433.614,872.416801 429.639,890.517801 425.672,908.619801 C423.568,918.219801 421.389,927.802801 420.129,937.563801 C419.312,943.903801 418.533,950.249801 417.614,956.574801 C416.029,967.486801 414.338,978.381801 412.729,989.289801 C412.546,990.525801 412.329,991.837801 413.258,993.031801 C415.809,992.302801 416.941,988.991801 420.365,989.174801 C418.916,990.864801 417.639,992.276801 416.451,993.760801 C415.293,995.205801 413.748,996.381801 413.048,998.161801 Z M319.424,1029.9378 C319.504,1029.2508 319.482,1028.8448 319.605,1028.4878 C320.391,1026.1848 320.669,1023.8468 320.473,1021.4058 C320.289,1019.1158 320.987,1016.9558 322.132,1014.9918 C323.016,1013.4778 324.082,1012.0708 325.059,1010.6088 C325.658,1009.7108 326.238,1008.8018 326.873,1007.8278 C323.568,1006.9368 322.141,1007.5038 320.481,1010.3128 C317.431,1015.4768 314.436,1020.6728 311.384,1025.8348 C310.818,1026.7918 310.172,1027.7268 309.423,1028.5428 C308.691,1029.3398 307.809,1030.0338 306.346,1029.9458 C306.524,1029.0388 306.582,1028.2468 306.839,1027.5258 C307.909,1024.5178 308.918,1021.4788 310.18,1018.5508 C311.665,1015.1028 313.399,1011.7618 315,1008.3638 C315.318,1007.6868 315.528,1006.9578 315.85,1006.0878 C313.416,1006.7218 312.449,1007.2508 311.426,1008.7458 C310.66,1009.8628 310.076,1011.1008 309.383,1012.2688 C308.982,1012.9458 308.524,1013.5898 308.09,1014.2478 C307.965,1014.1658 307.84,1014.0848 307.715,1014.0038 C308.328,1011.8918 308.942,1009.7808 309.56,1007.6568 C307.096,1007.1508 306.518,1007.4428 305.644,1009.4318 C302.783,1015.9438 299.914,1022.4508 297.055,1028.9628 C296.802,1029.5378 296.594,1030.1328 296.357,1030.7398 C297.199,1032.0938 298.49,1032.7158 299.797,1033.3198 C300.957,1033.8548 302.158,1034.3208 303.266,1034.9498 C304.255,1035.5128 305.214,1036.2008 305.481,1037.6578 C300.82,1037.1228 296.461,1035.9428 291.94,1035.7918 C292.504,1036.2818 293.123,1036.5398 293.767,1036.7028 C298.027,1037.7818 302.295,1038.8308 306.557,1039.9048 C316.345,1042.3718 326.206,1044.3388 336.356,1044.4658 C339.072,1044.4998 341.788,1044.6688 344.504,1044.8008 C345.75,1044.8618 346.983,1045.0118 348.297,1045.9708 C346.764,1046.3618 345.531,1046.6758 343.77,1047.1248 C344.723,1047.4498 345.14,1047.6748 345.578,1047.7308 C350.727,1048.3828 355.865,1049.2028 361.035,1049.5998 C369.566,1050.2548 378.119,1050.6128 386.66,1051.1408 C388.481,1051.2538 390.276,1051.6028 391.815,1052.8238 C390.041,1053.8828 389.951,1053.8428 387.727,1053.9758 C376.828,1054.6318 365.984,1053.7658 355.143,1052.8778 C342.391,1051.8338 329.641,1050.7738 316.898,1049.6258 C309.568,1048.9658 302.275,1047.9538 295.18,1045.9278 C291.988,1045.0168 288.802,1044.5448 285.49,1044.6878 C283.283,1044.7828 281.068,1044.7058 278.613,1044.7058 C279.117,1046.5148 280.129,1047.5168 281.416,1048.1478 C282.695,1048.7748 284.064,1049.3238 285.453,1049.6068 C295.24,1051.5938 305.042,1053.5068 314.841,1055.4348 C315.686,1055.6008 316.527,1055.7308 316.942,1057.0328 C315.775,1057.1698 314.779,1057.3498 313.778,1057.3888 C312.582,1057.4368 311.378,1057.3118 310.182,1057.3578 C308.874,1057.4078 307.671,1057.7608 306.894,1059.0248 C308.872,1061.7738 310.745,1058.7158 312.725,1058.9168 C312.945,1059.9328 313.154,1060.9018 313.382,1061.9478 C315.016,1061.3498 316.488,1060.8098 317.916,1060.2868 C318.641,1061.2598 319.243,1062.0678 319.869,1062.9078 C320.599,1062.5668 321.184,1062.3208 321.744,1062.0268 C323.797,1060.9498 325.84,1059.8528 327.891,1058.7728 C329.018,1058.1798 330.121,1057.9208 331.19,1059.1768 C328.244,1062.6768 324.404,1064.8318 319.949,1066.6008 C324.106,1068.6578 327.685,1068.9448 330.994,1065.8548 C331.34,1065.5308 331.762,1065.2798 332.172,1065.0308 C334.988,1063.3168 338.016,1062.2668 341.702,1061.9048 C339.296,1065.5478 334.941,1065.6418 332.19,1068.3378 C334.453,1069.8658 336.394,1069.2898 338.227,1068.2028 C340.771,1066.6938 343.221,1065.0278 345.754,1063.4998 C347.462,1062.4698 349.232,1061.5378 351.002,1060.6158 C351.339,1060.4408 351.805,1060.5118 352.211,1060.4698 L352.492,1060.9098 C351.809,1061.5998 351.209,1062.4108 350.424,1062.9518 C348.451,1064.3128 346.375,1065.5238 344.378,1066.8498 C343.01,1067.7578 341.521,1068.5518 340.397,1070.2608 C342.177,1070.6388 343.705,1071.0818 345.264,1071.2698 C349.152,1071.7388 353.051,1072.1268 356.951,1072.4808 C363.32,1073.0598 369.7,1074.1108 376.062,1074.0188 C388.048,1073.8468 400.025,1073.0398 412.004,1072.4158 C415.432,1072.2368 418.928,1072.1368 422.245,1071.3658 C427.133,1070.2308 431.889,1068.5318 436.695,1067.0538 C437.167,1066.9088 437.596,1066.6248 438.043,1066.4068 C436.555,1065.9268 435.152,1065.8568 433.75,1065.8608 C431.75,1065.8678 429.75,1065.9928 427.754,1065.9498 C425.822,1065.9078 425.069,1065.5798 423.622,1064.4758 C427.287,1063.3518 431.406,1063.5368 434.255,1060.1498 C431.914,1058.4728 433.027,1056.3118 433.306,1054.0968 C441.635,1053.7968 449.729,1052.2948 457.922,1049.5158 C457.715,1049.0878 457.276,1049.0188 456.958,1048.7848 C454.651,1047.0938 452.077,1046.9708 449.391,1047.4138 C445.764,1048.0118 442.141,1048.6318 438.508,1049.1948 C430.371,1050.4538 422.232,1051.6828 414.328,1054.1078 C413.129,1054.4758 411.813,1054.6058 410.553,1054.5978 C409.172,1054.5878 407.725,1054.4898 406.518,1053.2928 C407.036,1053.0568 407.383,1052.8528 407.758,1052.7378 C410.076,1052.0248 412.138,1051.0018 413.877,1049.1698 C414.8,1048.1988 416.299,1047.5948 417.647,1047.2488 C419.647,1046.7348 421.743,1046.6058 423.797,1046.2988 C429.803,1045.4018 435.931,1044.9818 441.783,1043.4848 C450.749,1041.1908 459.522,1038.1388 468.386,1035.4398 C471.274,1034.5608 473.79,1033.0608 476.054,1031.1078 C479.989,1027.7098 483.905,1024.2888 487.838,1020.8888 C488.373,1020.4258 488.959,1020.0208 489.58,1019.5428 C487.886,1017.0858 486.406,1014.9408 484.93,1012.8008 C482.643,1014.2718 482.121,1014.2198 480.772,1012.1078 C480.002,1010.9058 479.348,1009.6018 478.836,1008.2688 C477.114,1003.7928 475.497,999.277801 473.8,994.792801 C473.366,993.646801 473.033,992.386801 471.375,991.386801 C471.631,992.571801 471.747,993.314801 471.953,994.032801 C473.164,998.257801 474.402,1002.4748 475.613,1006.6998 C475.739,1007.1408 475.746,1007.6158 475.809,1008.0758 C475.674,1008.1108 475.537,1008.1458 475.4,1008.1798 C473.47,1004.5318 471.538,1000.8818 469.55,997.125801 C468.789,999.177801 468.66,999.301801 469.568,1000.2988 C470.216,1001.0118 470.246,1001.6808 470.196,1002.4758 C470.046,1004.8578 470.844,1006.8868 472.537,1008.5378 C473.166,1009.1508 473.397,1009.7838 473.351,1010.6598 C473.198,1013.5778 474.59,1015.7548 476.941,1017.2878 C478.406,1018.2418 480.02,1018.9728 481.592,1019.7538 C482.376,1020.1428 483.281,1020.3638 483.129,1021.4378 C482.19,1021.6398 481.174,1021.6148 480.478,1022.0738 C479.672,1022.6038 479.149,1023.5598 478.34,1024.5248 C475.653,1022.1288 473.129,1019.9338 470.685,1017.6528 C470.207,1017.2058 469.888,1016.4598 469.749,1015.7988 C468.994,1012.1968 467.132,1009.1408 465.098,1005.8548 C464.601,1006.6048 464.191,1007.1698 463.836,1007.7678 C462.162,1010.5868 460.578,1013.4618 458.818,1016.2258 C457.076,1018.9628 456.271,1021.7058 457.818,1024.8048 C458.399,1025.9668 458.242,1027.0918 457.199,1028.1738 C455.495,1026.8118 454.475,1024.7318 452.193,1023.9968 C450.93,1025.9528 449.709,1027.8438 448.367,1029.9228 C449.357,1030.1348 449.979,1030.2468 450.59,1030.4028 C452.117,1030.7908 452.628,1031.5168 452.426,1032.9658 C452.199,1034.5828 451.162,1035.5828 449.711,1035.3568 C447.941,1035.0798 446.319,1034.4398 445.289,1032.8028 C444.397,1031.3818 443.481,1029.9718 442.54,1028.5808 C440.336,1025.3198 438.488,1021.9098 437.385,1018.0818 C436.754,1015.8958 435.67,1013.8398 434.607,1011.2868 C433.935,1012.5058 433.52,1013.2588 433.103,1014.0118 C431.591,1016.7388 430.092,1019.4718 428.561,1022.1888 C427.793,1023.5488 426.742,1024.5258 424.877,1024.6268 C425.06,1024.1458 425.135,1023.8478 425.277,1023.5858 C427.226,1020.0058 429.193,1016.4358 431.133,1012.8508 C431.988,1011.2698 432.824,1009.6698 432.591,1007.2888 C431.92,1008.2938 431.477,1008.9258 431.067,1009.5778 C429.074,1012.7638 427.102,1015.9628 425.098,1019.1408 C424.124,1020.6838 422.976,1022.0468 420.774,1022.8088 C421.875,1018.5868 424.786,1015.6398 425.945,1011.8838 C421.231,1017.0678 418.042,1023.2518 414.39,1029.2548 C411.891,1026.8238 412.32,1024.1098 413.066,1021.5198 C411.389,1021.7658 409.934,1021.9788 408.152,1022.2398 C407.926,1022.7188 407.563,1023.5038 407.186,1024.2818 C406.209,1026.2958 405.279,1028.3338 404.228,1030.3078 C403.657,1031.3798 402.82,1032.4078 401.462,1032.3008 C400.063,1032.1898 399.197,1031.1558 398.716,1029.9068 C398.287,1028.7938 397.82,1027.6408 397.703,1026.4728 C397.311,1022.5778 397.081,1018.6678 396.763,1014.7658 C396.621,1013.0348 396.419,1011.3078 396.217,1009.3168 C393.184,1009.6498 390.404,1009.9548 387.553,1010.2678 C389.355,1015.6638 389.249,1016.4788 386.379,1021.1498 C385.416,1022.7168 384.45,1024.2838 383.561,1025.8928 C383.086,1026.7508 382.529,1027.6718 383.254,1028.9728 C385.539,1026.5068 386.483,1023.2458 389.195,1020.8628 C389.354,1021.7038 389.561,1022.1518 389.494,1022.5538 C388.982,1025.6288 387.495,1028.2798 385.648,1030.7098 C384.717,1031.9358 383.561,1031.9528 382.238,1031.1258 C380.346,1029.9418 379.715,1028.0268 379.561,1026.0038 C379.269,1022.1818 379.154,1018.3458 378.984,1014.5158 C378.944,1013.5958 378.979,1012.6728 378.979,1011.7368 C376.449,1011.4568 375.023,1012.6068 373.875,1014.2818 C372.342,1016.5238 370.797,1018.7578 369.287,1021.0148 C368.756,1021.8088 368.26,1022.6388 367.856,1023.5018 C367.716,1023.7988 367.9,1024.2468 367.982,1025.0798 C369.575,1023.1798 370.827,1021.6368 372.135,1020.1438 C373.457,1018.6328 374.531,1016.8708 376.372,1015.7468 C376.561,1016.4518 376.659,1017.1048 376.436,1017.6168 C375.925,1018.7808 375.389,1019.9758 374.627,1020.9778 C372.652,1023.5708 370.551,1026.0648 368.423,1028.6958 C364.226,1027.2928 363.229,1022.6478 359.811,1019.8718 C359.625,1021.1528 359.419,1022.0648 359.377,1022.9848 C359.295,1024.8218 359.368,1026.6668 359.258,1028.5008 C359.14,1030.4568 358.932,1032.4188 357.553,1034.1778 C356.563,1032.4518 356.502,1030.7038 356.369,1028.9548 C356.121,1025.6908 356.022,1022.3938 355.458,1019.1798 C355.066,1016.9448 354.762,1014.8028 355.18,1012.5548 C355.472,1010.9908 355.049,1009.5858 353.474,1008.2568 C352.802,1010.0668 352.083,1011.6488 351.629,1013.3038 C350.891,1015.9998 350.161,1018.7168 349.723,1021.4718 C349.023,1025.8698 346.833,1029.5498 344.525,1033.1998 C344.167,1033.7678 343.66,1034.2418 342.981,1035.0438 C341.717,1029.7198 344.023,1024.9348 343.619,1019.4628 C341.019,1022.4728 338.768,1025.0778 336.494,1027.7088 C334.786,1026.6478 333.301,1025.7248 331.861,1024.8298 C330.102,1025.7268 329.027,1027.7078 326.545,1027.3738 C330.594,1021.6708 335.615,1016.9758 339.432,1011.2898 C338.427,1011.8018 337.588,1012.4768 336.852,1013.2488 C332.711,1017.5878 328.59,1021.9468 324.474,1026.3088 C323.104,1027.7618 321.785,1029.2688 319.424,1029.9378 Z M519.683,354.561801 C523.709,355.551801 527.208,357.965801 531.573,356.582801 C531.357,353.874801 531.26,351.321801 530.934,348.797801 C529.441,337.280801 528.71,325.722801 528.869,314.108801 C528.974,306.512801 529.211,298.914801 529.09,291.322801 C528.845,276.041801 527.724,260.811801 525.8,245.647801 C525.086,240.019801 524.147,234.419801 523.402,228.794801 C523.086,226.389801 521.928,225.115801 519.482,224.742801 C516.01,224.214801 512.58,223.400801 509.114,222.822801 C499.973,221.295801 490.862,219.451801 481.662,218.436801 C470.623,217.218801 459.508,216.685801 448.42,215.935801 C439.404,215.325801 430.381,214.843801 421.363,214.286801 C411.211,213.660801 401.059,213.809801 390.912,214.318801 C385.804,214.573801 380.711,215.207801 375.602,215.337801 C357.936,215.788801 340.265,216.073801 322.596,216.466801 C318.199,216.563801 313.801,216.737801 309.414,217.032801 C297.032,217.868801 284.818,219.940801 272.633,222.198801 C267.574,223.136801 262.647,224.351801 258.318,227.357801 C257.117,228.191801 256.238,229.042801 256.129,230.869801 C258.469,230.412801 260.715,230.002801 262.949,229.531801 C267.637,228.541801 272.274,227.125801 277.011,226.586801 C291.386,224.951801 305.799,223.648801 320.198,222.222801 C321.772,222.067801 323.338,222.032801 324.941,223.008801 C323.797,224.005801 322.516,224.351801 321.195,224.553801 C317.087,225.183801 312.971,225.759801 308.863,226.393801 C292.279,228.955801 275.697,231.522801 259.117,234.111801 C256.166,234.572801 255.206,235.673801 254.76,238.651801 C254.016,243.629801 253.258,248.605801 252.45,253.573801 C251,262.490801 249.344,271.390801 249.072,280.441801 C248.58,296.849801 246.428,313.108801 244.865,329.419801 C244.08,337.627801 243.393,345.823801 243.744,354.076801 C243.788,355.084801 243.75,356.095801 243.75,357.473801 C244.847,356.938801 245.553,356.626801 246.229,356.258801 C249.316,354.574801 252.396,352.874801 255.48,351.182801 C258.473,349.539801 258.551,349.535801 258.349,346.251801 C257.492,332.365801 259.127,318.627801 260.663,304.876801 C261.631,296.217801 262.572,287.553801 263.345,278.876801 C263.812,273.623801 263.938,268.341801 264.201,263.071801 C264.263,261.865801 264.293,260.670801 265.59,260.006801 C267.371,260.505801 267.664,261.869801 267.583,263.392801 C267.316,268.421801 267.109,273.456801 266.707,278.474801 C265.911,288.436801 265.015,298.391801 264.135,308.346801 C263.009,321.088801 261.851,333.828801 260.735,346.572801 C260.649,347.565801 260.787,348.579801 260.828,349.779801 C267.993,349.644801 274.961,348.713801 281.706,350.845801 C282.049,350.529801 282.303,350.337801 282.506,350.101801 C284.464,347.821801 286.985,346.819801 289.941,346.867801 C291.619,346.894801 293.303,346.943801 294.971,347.102801 C300.805,347.661801 306.606,348.017801 312.315,346.119801 C313.096,345.859801 314.348,346.012801 314.971,346.499801 C316.08,347.367801 317.054,347.491801 318.285,347.020801 C318.77,346.834801 319.335,346.861801 319.875,346.789801 C320.424,348.076801 320.916,349.231801 321.43,350.438801 C322.624,350.438801 323.66,350.432801 324.695,350.438801 C345.727,350.557801 366.764,349.833801 387.789,350.856801 C390.692,350.997801 393.504,351.007801 396.066,349.207801 C397.244,348.379801 398.766,348.490801 399.862,349.522801 C401.999,351.535801 404.54,351.682801 407.246,351.526801 C410.277,351.351801 413.32,351.170801 416.354,351.235801 C426.746,351.456801 437.135,351.933801 447.527,352.038801 C467.129,352.238801 486.686,353.384801 506.25,354.422801 C509.261,354.582801 512.287,354.444801 515.578,354.444801 C515.67,353.252801 515.834,352.165801 515.824,351.081801 C515.634,329.728801 515.42,308.377801 515.233,287.024801 C515.227,286.173801 515.177,285.138801 515.608,284.501801 C516.727,282.852801 516.816,281.095801 516.781,279.229801 C516.728,276.342801 516.768,273.454801 516.768,270.566801 C520.731,298.402801 520.244,326.374801 519.683,354.561801 Z M366.69,999.823801 C369.665,1000.3938 371.482,1000.1528 373.848,998.953801 C378.516,996.589801 380.549,992.687801 380.9,987.542801 C381.643,976.676801 383.369,965.954801 385.988,955.371801 C388.467,945.364801 390.831,935.325801 392.21,925.089801 C393.416,916.137801 394.558,907.177801 395.801,898.230801 C396.201,895.345801 396.832,892.493801 397.357,889.626801 C398.037,896.539801 396.723,903.359801 397.023,910.237801 C397.4,909.837801 397.616,909.423801 397.743,908.984801 C401.911,894.552801 406.063,880.115801 410.235,865.685801 C412.299,858.550801 414.393,851.423801 416.502,844.301801 C416.732,843.523801 417.155,842.802801 417.489,842.055801 C417.895,842.921801 417.941,843.645801 417.799,844.330801 C416.472,850.746801 415.384,857.228801 413.711,863.554801 C409.072,881.089801 404.193,898.561801 399.398,916.054801 C396.841,925.380801 394.158,934.680801 392.674,944.255801 C391.4,952.469801 390.262,960.704801 389.096,968.935801 C388.501,973.126801 387.914,977.320801 387.44,981.526801 C386.984,985.570801 386.664,989.630801 386.33,993.687801 C386.297,994.092801 386.582,994.523801 386.826,995.268801 C388.285,994.028801 389.488,992.893801 390.803,991.907801 C394.307,989.279801 396.031,985.738801 396.322,981.444801 C396.501,978.811801 396.591,976.171801 396.751,973.537801 C397.116,967.513801 398.121,961.639801 400.678,956.095801 C401.168,955.034801 401.349,953.802801 401.52,952.627801 C401.993,949.385801 402.186,946.090801 402.844,942.888801 C406.73,924.023801 410.908,905.218801 416.22,886.697801 C421.197,869.338801 426.449,852.058801 431.582,834.744801 C432.764,830.762801 433.933,826.775801 435.152,822.804801 C435.337,822.201801 435.342,821.323801 436.687,821.237801 C436.633,822.467801 436.744,823.642801 436.503,824.740801 C435.576,828.953801 434.707,833.191801 433.504,837.328801 C430.379,848.071801 427.03,858.747801 423.884,869.482801 C421.614,877.225801 419.066,884.928801 417.464,892.817801 C415.142,904.243801 413.524,915.815801 411.673,927.336801 C409.441,941.225801 407.313,955.131801 405.077,969.019801 C403.97,975.900801 402.975,982.777801 403.506,989.775801 C403.557,990.438801 403.693,991.094801 403.799,991.814801 C407.432,990.445801 409.273,988.417801 409.728,985.224801 C410.879,977.153801 411.904,969.062801 413.1,960.997801 C414.575,951.036801 415.881,941.037801 417.783,931.155801 C420.666,916.168801 423.941,901.256801 427.161,886.336801 C429.25,876.654801 431.553,867.017801 433.709,857.348801 C433.929,856.365801 434.084,855.212801 433.777,854.303801 C433.297,852.877801 433.712,851.779801 434.424,850.689801 C435.931,848.381801 436.818,845.826801 437.555,843.200801 C438.57,839.585801 439.568,835.964801 440.641,832.365801 C441.09,830.859801 441.254,829.359801 440.743,827.887801 C440.315,826.652801 440.653,825.801801 441.482,824.870801 C443.382,822.739801 444.579,820.182801 445.163,817.419801 C445.723,814.768801 446.004,812.058801 446.375,809.369801 C446.441,808.886801 446.342,808.380801 446.299,807.458801 C443.923,809.940801 441.863,812.090801 439.578,814.477801 C439.311,812.639801 439.91,811.466801 440.847,810.611801 C443.459,808.227801 444.777,804.999801 446.571,802.094801 C448.475,799.012801 448.297,795.490801 448.526,791.656801 C446.496,792.998801 444.86,794.079801 443.225,795.161801 C443.635,793.632801 444.273,792.428801 445.053,791.326801 C445.977,790.024801 447.068,788.841801 448.006,787.548801 C449.535,785.442801 450.272,783.133801 449.723,780.258801 C446.668,782.062801 445.408,785.784801 441.524,786.456801 C441.842,785.773801 441.969,785.301801 442.244,784.944801 C444.34,782.229801 446.465,779.537801 448.58,776.837801 C449.268,775.958801 450.045,775.131801 450.616,774.181801 C451.217,773.183801 451.506,772.066801 450.809,770.801801 C447.3,773.369801 445.67,777.709801 441.416,779.174801 C441.981,777.648801 442.668,776.226801 443.592,774.980801 C445.497,772.411801 447.539,769.945801 449.504,767.419801 C450.287,766.410801 451.107,765.409801 451.734,764.305801 C452.294,763.322801 452.791,762.206801 451.863,760.747801 C450.397,762.288801 449.117,763.695801 447.77,765.031801 C446.489,766.299801 445.416,767.901801 443.116,768.340801 C445.246,764.615801 447.531,761.449801 450.139,758.512801 C452.254,756.127801 453.756,753.461801 454.118,750.220801 C454.455,747.202801 454.893,744.196801 455.238,741.178801 C455.293,740.702801 455.099,740.198801 454.97,739.401801 C454.291,739.990801 453.84,740.301801 453.488,740.699801 C449.299,745.430801 445.125,750.174801 440.945,754.913801 C440.418,755.513801 439.93,756.162801 439.332,756.683801 C438.069,757.781801 437.126,757.708801 435.449,756.417801 C435.922,754.305801 436.299,752.094801 436.914,749.949801 C441.537,733.818801 445.823,717.574801 450.97,701.610801 C456.293,685.097801 461.523,668.578801 465.668,651.727801 C466.947,646.529801 468.339,641.357801 469.678,636.173801 C470.082,634.606801 470.666,633.206801 472.78,632.838801 C472.373,635.799801 471.995,638.558801 471.616,641.318801 C471.769,641.339801 471.922,641.361801 472.074,641.383801 C477.121,619.454801 481.602,597.416801 484.852,575.038801 C483.634,575.645801 482.625,576.379801 481.643,577.145801 C477.283,580.540801 474.533,584.850801 473.924,590.449801 C473.7,592.510801 473.242,594.548801 472.83,596.585801 C470.172,609.744801 467.514,622.905801 464.818,636.056801 C463.937,640.362801 462.959,644.648801 461.99,648.934801 C461.834,649.627801 461.861,650.522801 460.525,650.880801 C460.596,649.912801 460.585,649.147801 460.716,648.406801 C462.996,635.500801 465.175,622.575801 467.621,609.700801 C470.723,593.371801 474.05,577.083801 477.265,560.775801 C477.535,559.407801 477.69,558.015801 477.939,556.368801 C475.291,557.267801 474.103,560.173801 470.674,560.098801 C472.508,557.980801 473.915,556.154801 475.535,554.542801 C477.038,553.045801 478.369,551.503801 478.943,549.426801 C479.873,546.063801 479.791,542.666801 479.368,538.963801 C477.373,539.994801 475.586,540.917801 473.799,541.841801 C473.679,541.734801 473.559,541.627801 473.438,541.520801 C477.393,536.545801 480.684,531.432801 477.042,525.037801 C477.774,523.711801 478.486,522.552801 479.069,521.331801 C480.116,519.138801 480.351,516.823801 479.316,514.601801 C478.711,513.301801 478.871,512.414801 479.779,511.392801 C480.834,510.204801 481.249,508.814801 480.51,507.185801 C479.479,507.382801 478.561,507.556801 477.345,507.788801 C477.772,507.168801 478.014,506.782801 478.289,506.421801 C480.656,503.318801 482.297,499.956801 482.701,495.977801 C483.098,492.085801 483.904,488.236801 484.367,484.348801 C485.774,472.521801 487.2,460.695801 488.428,448.848801 C489.292,440.498801 489.844,432.116801 490.534,423.748801 C491.435,412.830801 492.33,401.911801 493.235,390.993801 C493.731,385.016801 494.207,379.038801 494.772,373.068801 C494.883,371.884801 494.937,370.513801 496.562,369.758801 C497.207,371.608801 497.544,373.368801 497.514,375.210801 C497.382,383.206801 497.127,391.203801 497.15,399.199801 C497.199,416.215801 494.93,433.005801 492.531,449.793801 C490.949,460.871801 489.514,471.970801 488.027,483.061801 C487.922,483.849801 487.932,484.653801 487.889,485.448801 C489.277,482.769801 489.265,479.734801 490.986,477.231801 C490.957,479.922801 490.62,482.569801 490.447,485.227801 C490.275,487.873801 489.547,490.521801 490.156,493.274801 C493.789,491.352801 496.014,488.275801 496.612,484.416801 C497.028,481.730801 497.361,479.032801 497.79,476.348801 C499.125,467.982801 500.676,459.646801 501.793,451.251801 C503.363,439.446801 504.701,427.608801 505.973,415.767801 C506.611,409.813801 507.221,403.844801 506.731,397.816801 C506.525,395.289801 506.912,392.718801 506.959,390.165801 C506.974,389.358801 506.759,388.547801 506.65,387.744801 C504.816,388.045801 503.668,389.390801 501.479,389.468801 C502.296,388.347801 502.685,387.382801 503.399,386.911801 C506.338,384.979801 507.182,382.228801 507.244,378.882801 C507.31,375.454801 507.744,372.032801 508.061,368.610801 C508.173,367.402801 508.583,366.318801 510.131,365.653801 C511.177,370.226801 510.717,374.845801 511.652,379.349801 C513.042,378.718801 513.377,377.727801 513.434,376.537801 C513.616,372.705801 513.849,368.876801 514.009,365.044801 C514.078,363.382801 514.021,361.715801 514.021,359.911801 C512.878,359.744801 511.951,359.542801 511.016,359.484801 C506.944,359.235801 502.871,359.009801 498.797,358.807801 C479.068,357.830801 459.338,356.878801 439.61,355.877801 C436.901,355.740801 434.19,355.485801 431.504,355.102801 C427.279,354.500801 423.081,354.354801 418.84,354.950801 C416.206,355.321801 413.582,355.232801 411.129,353.886801 C410.545,353.566801 409.756,353.530801 409.059,353.519801 C403.384,353.429801 397.707,353.427801 392.033,353.298801 C387.957,353.205801 383.875,352.693801 379.813,352.836801 C370.703,353.158801 361.603,353.764801 352.5,354.276801 C350.904,354.365801 349.309,354.519801 347.725,354.731801 C347.395,354.775801 347.115,355.203801 346.381,355.812801 C350.359,356.216801 353.79,356.565801 357.259,356.917801 C356.856,359.010801 355.647,359.518801 354.029,359.441801 C350.337,359.266801 346.711,358.771801 343.266,357.318801 C341.617,356.621801 339.901,356.092801 338.178,356.989801 C336.95,357.628801 335.743,357.529801 334.451,357.366801 C331.6,357.008801 328.733,356.483801 325.876,356.500801 C317,356.554801 308.125,356.833801 299.249,357.014801 C297.805,357.043801 296.605,357.503801 295.719,358.702801 C294.18,360.787801 292.19,361.282801 289.787,360.358801 C287.422,359.448801 284.967,359.333801 282.463,359.552801 C277.048,360.027801 271.628,360.446801 266.212,360.913801 C264.555,361.057801 262.905,361.285801 261.373,361.460801 C261.217,361.802801 261.088,361.948801 261.098,362.083801 C261.562,368.863801 262.01,375.645801 262.546,382.419801 C262.61,383.234801 262.95,384.223801 263.514,384.764801 C264.957,386.145801 264.86,387.520801 264.002,389.086801 C262.59,391.666801 262.963,394.134801 264.516,396.674801 C266.221,396.250801 267.884,395.837801 269.713,395.383801 C269.542,395.856801 269.516,396.116801 269.376,396.284801 C268.611,397.208801 267.803,398.095801 267.039,399.020801 C266.176,400.066801 265.213,401.059801 264.526,402.214801 C263.279,404.309801 263.609,406.158801 265.374,408.047801 C268.425,406.831801 270.356,403.497801 273.957,403.250801 C275.127,405.391801 274.75,407.089801 272.958,408.622801 C271.078,410.232801 269.363,412.036801 267.484,413.648801 C265.76,415.128801 265.011,416.877801 265.25,419.150801 C265.784,424.239801 266.211,429.339801 266.746,434.427801 C266.885,435.749801 267.262,437.046801 267.551,438.462801 C271.902,437.132801 274.877,433.565801 279.309,432.860801 C278.551,434.097801 277.724,435.256801 276.688,436.179801 C274.779,437.879801 272.746,439.439801 270.77,441.061801 C269.742,441.904801 268.729,442.759801 268.529,444.655801 C272.719,442.163801 275.944,438.865801 280.234,437.256801 C280.067,437.824801 279.813,438.281801 279.468,438.653801 C276.756,441.588801 274.162,444.649801 271.262,447.386801 C269.064,449.459801 268.178,451.675801 268.637,454.644801 C269.089,457.564801 269.246,460.528801 269.578,463.467801 C269.885,466.189801 270.251,468.905801 270.661,472.184801 C272.634,470.415801 274.122,468.992801 275.706,467.685801 C277.24,466.419801 278.832,465.215801 280.479,464.100801 C281.128,463.661801 281.953,463.228801 283.111,463.767801 C282.188,464.891801 281.455,465.933801 280.573,466.825801 C278.211,469.214801 275.742,471.497801 273.406,473.909801 C272.599,474.743801 271.869,475.760801 271.44,476.827801 C270.9,478.167801 271.82,482.601801 272.733,484.211801 C277.109,481.573801 280.484,477.484801 285.307,475.165801 C285.467,476.804801 284.553,477.512801 283.746,478.262801 C280.875,480.931801 277.982,483.576801 275.123,486.257801 C274.131,487.189801 273.024,488.180801 273.052,489.641801 C273.096,491.995801 273.487,494.320801 274.318,496.741801 C275.135,496.114801 275.768,495.637801 276.391,495.146801 C278.211,493.710801 280.018,492.254801 281.85,490.833801 C282.846,490.062801 283.912,489.488801 285.476,489.995801 C283.352,492.633801 281.299,494.986801 278.725,496.748801 C275.381,499.039801 274.412,501.954801 275.303,505.881801 C277.104,513.830801 278.703,521.824801 280.33,529.811801 C280.984,533.018801 281.512,536.252801 282.047,539.482801 C282.123,539.940801 281.914,540.445801 281.807,541.118801 C281.389,540.799801 281.131,540.701801 281.05,540.523801 C280.553,539.434801 279.961,538.365801 279.648,537.221801 C277.531,529.521801 275.471,521.804801 273.403,514.091801 C272.824,511.930801 272.3,509.756801 271.705,507.600801 C271.533,506.971801 271.206,506.385801 270.949,505.778801 C270.832,507.298801 270.949,508.731801 271.237,510.128801 C272.881,518.110801 274.511,526.095801 276.244,534.058801 C281.408,557.801801 286.344,581.588801 290.291,605.569801 C290.637,607.670801 291.072,609.757801 291.494,612.008801 C294.924,611.363801 296.973,607.793801 301.071,608.317801 C300.209,609.235801 299.682,609.920801 299.031,610.457801 C298.108,611.219801 297.065,611.832801 296.126,612.575801 C292.664,615.315801 292.465,616.305801 294.515,620.285801 C294.578,620.407801 294.754,620.471801 295.031,620.677801 C298.51,619.194801 301.016,615.837801 305.076,614.618801 C304.862,616.113801 304.111,616.887801 303.277,617.603801 C301.152,619.426801 299.001,621.218801 296.899,623.066801 C294.308,625.344801 294.219,626.636801 296.381,629.552801 C300.932,626.177801 305.514,622.844801 310.019,619.409801 C311.788,618.061801 312.544,616.157801 312.244,613.891801 C312.134,613.056801 311.911,612.160801 313.024,611.503801 C313.61,612.854801 314.164,614.130801 314.716,615.402801 C315.727,615.178801 316.488,615.011801 317.438,614.801801 C317.634,615.567801 317.893,616.234801 317.966,616.921801 C318.18,618.908801 318.303,620.905801 318.49,622.895801 C319.334,631.810801 320.078,640.736801 321.063,649.636801 C322.741,664.811801 324.773,679.949801 326.276,695.141801 C327.505,707.552801 328.206,720.015801 329.092,732.458801 C329.711,741.153801 330.281,749.852801 330.807,758.552801 C331.076,763.019801 331.675,767.536801 331.288,771.957801 C330.559,780.287801 330.969,788.571801 331.276,796.877801 C331.419,800.713801 331.514,804.551801 331.554,808.388801 C331.57,809.941801 331.301,811.466801 329.903,812.991801 C329.741,811.994801 329.604,811.394801 329.552,810.786801 C329.024,804.491801 328.568,798.191801 327.982,791.902801 C326.615,777.244801 325.844,762.552801 325.168,747.851801 C324.914,742.339801 324.503,736.835801 324.131,731.329801 C324.077,730.521801 323.844,729.724801 323.649,728.688801 C321.471,729.982801 320.156,731.302801 320.388,733.638801 C320.529,735.068801 320.557,736.511801 320.736,737.936801 C321.07,740.581801 321.841,743.197801 320.692,745.864801 C320.397,746.550801 320.506,747.445801 320.553,748.237801 C320.643,749.753801 320.905,751.261801 320.948,752.777801 C321.356,767.005801 321.92,781.234801 322.065,795.466801 C322.215,810.341801 321.974,825.220801 321.857,840.098801 C321.827,843.853801 321.631,847.606801 321.467,851.358801 C321.451,851.710801 321.121,852.049801 320.691,852.854801 C320.514,851.868801 320.381,851.430801 320.363,850.988801 C320.241,847.951801 320.072,844.914801 320.049,841.877801 C319.963,830.678801 319.951,819.479801 319.86,808.281801 C319.836,805.307801 319.631,802.334801 319.509,799.361801 C319.041,799.913801 319.002,800.459801 318.961,801.005801 C318.588,805.949801 318.099,810.888801 317.867,815.838801 C317.484,824.064801 317.209,832.295801 317.002,840.527801 C316.873,845.642801 317.305,850.792801 316.873,855.874801 C315.932,866.945801 314.589,877.982801 313.434,889.034801 C313.163,891.615801 312.982,894.205801 312.719,897.279801 C313.475,896.751801 313.804,896.576801 314.067,896.330801 C316.404,894.144801 318.688,891.900801 321.068,889.765801 C323.654,887.447801 325.365,884.651801 326.193,881.283801 C326.879,878.490801 327.631,875.713801 328.337,872.925801 C330.945,862.623801 333.731,852.361801 336.1,842.004801 C338.508,831.479801 339.89,820.765801 341.1,810.036801 C341.244,808.762801 341.257,807.395801 342.588,805.936801 C342.697,807.218801 342.865,808.050801 342.826,808.873801 C342.408,817.511801 341.307,826.073801 339.897,834.597801 C337.705,847.851801 334.712,860.939801 331.683,874.020801 C331.166,876.249801 331.052,878.591801 330.953,880.888801 C330.902,882.065801 330.563,883.004801 330.022,884.017801 C329.05,885.835801 328.154,887.717801 327.475,889.659801 C326.738,891.765801 326.209,893.953801 325.724,896.135801 C324.263,902.707801 322.324,909.113801 319.482,915.234801 C318.708,916.899801 318.049,918.620801 317.381,920.332801 C317.201,920.794801 317.18,921.319801 317.086,921.814801 C317.241,921.896801 317.397,921.979801 317.553,922.061801 C318.631,920.631801 319.72,919.208801 320.787,917.770801 C321.883,916.292801 322.953,914.796801 324.042,913.314801 C325.113,911.856801 326.195,910.405801 327.274,908.950801 C327.596,909.861801 327.593,910.637801 327.396,911.361801 C326.682,913.979801 325.947,916.594801 325.129,919.181801 C324.739,920.412801 324.336,921.563801 324.713,922.902801 C325.223,924.709801 324.73,926.379801 323.658,927.892801 C320.811,931.916801 319.066,936.452801 317.354,941.036801 C315.539,945.895801 313.629,950.740801 311.39,955.413801 C306.07,966.515801 300.527,977.509801 295.09,988.554801 C294.568,989.614801 294.152,990.725801 293.666,991.863801 C294.108,992.070801 294.381,992.253801 294.68,992.330801 C296.873,992.898801 298.924,992.740801 300.838,991.340801 C302.119,990.403801 303.536,989.929801 304.955,991.243801 C304.674,992.302801 304.404,993.315801 304.04,994.691801 C305.453,993.823801 306.393,992.882801 307.483,992.648801 C309.811,992.149801 311.022,990.709801 311.893,988.681801 C316.845,977.150801 321.981,965.696801 326.765,954.096801 C334.048,936.437801 341.051,918.663801 348.266,900.976801 C350.893,894.539801 353.772,888.205801 356.574,881.842801 C356.888,881.131801 357.04,880.185801 358.362,879.801801 C358.17,880.650801 358.1,881.251801 357.899,881.805801 C355.741,887.739801 353.607,893.680801 351.382,899.587801 C348.313,907.737801 344.657,915.705801 342.163,924.025801 C336.682,942.309801 329.57,959.907801 321.34,977.090801 C319.303,981.343801 317.291,985.609801 315.229,989.850801 C314.053,992.266801 314.49,994.404801 316.066,996.547801 C317.119,995.894801 318.031,995.328801 319.117,994.654801 C319.04,995.805801 318.981,996.698801 318.908,997.784801 C320.682,996.954801 321.647,995.715801 322.371,994.266801 C326.016,986.973801 329.957,979.809801 333.222,972.349801 C341.106,954.338801 348.701,936.199801 356.357,918.089801 C364.293,899.315801 372.275,880.557801 378.19,861.008801 C378.406,860.291801 378.832,859.638801 379.334,858.598801 C380.133,860.260801 379.696,861.522801 379.367,862.675801 C376.932,871.203801 374.834,879.857801 371.852,888.193801 C365.578,905.723801 358.91,923.115801 352.246,940.503801 C347.213,953.635801 342.375,966.854801 336.274,979.552801 C333.781,984.740801 331.313,989.940801 328.857,995.145801 C328.366,996.185801 327.982,997.275801 327.549,998.342801 C328.77,998.157801 329.648,997.782801 330.396,997.232801 C331.617,996.332801 332.742,995.304801 333.929,994.355801 C335.231,993.312801 336.563,992.312801 338.732,992.097801 C336.693,994.505801 334.894,996.633801 333.092,998.763801 C337.426,1000.5948 340.798,999.716801 343.635,996.343801 C344.649,995.136801 345.85,993.894801 347.236,993.237801 C349.644,992.095801 350.838,990.240801 351.637,987.872801 C353.297,982.950801 354.963,978.028801 356.752,973.152801 C363.555,954.619801 370.395,936.094801 375.918,917.131801 C380.969,899.791801 385.771,882.380801 391.483,865.239801 C393.58,858.947801 395.563,852.616801 397.619,846.311801 C397.943,845.316801 398.086,844.160801 399.507,843.479801 C399.507,844.188801 399.589,844.645801 399.494,845.060801 C398.817,848.020801 398.213,851.002801 397.386,853.919801 C392.326,871.754801 387.113,889.546801 382.154,907.408801 C378.627,920.111801 375.275,932.866801 372.123,945.666801 C370.5,952.253801 369.688,959.035801 368.14,965.643801 C366.283,973.575801 364.024,981.413801 361.961,989.298801 C361.502,991.053801 361.139,992.834801 360.739,994.563801 C361.672,995.127801 362.404,995.570801 363.109,995.997801 C362.605,997.657801 360.987,998.653801 360.844,1000.7138 C361.496,1000.4428 361.947,1000.3518 362.277,1000.1018 C363.55,999.133801 364.803,998.138801 366.027,997.109801 C368.109,995.359801 370.145,993.554801 372.236,991.818801 C373.174,991.040801 374.188,990.316801 376.016,990.910801 C372.797,993.987801 369.879,996.776801 366.69,999.823801 Z M460.895,998.386801 C459.042,1002.9798 456.316,1007.1958 454.922,1012.0078 C455.426,1011.6938 455.822,1011.3248 456.094,1010.8798 C457.457,1008.6448 458.732,1006.3558 460.145,1004.1528 C461.322,1002.3168 461.897,1000.4728 460.893,998.387801 C458.805,997.406801 457.793,997.377801 456.709,998.972801 C454.607,1002.0628 452.712,1005.2968 450.824,1008.5258 C450.188,1009.6158 450.672,1010.4598 452.074,1010.9998 C454.637,1006.4578 456.362,1001.4048 460.895,998.386801 Z M484.083,690.837801 C484.297,689.086801 484.51,687.335801 484.729,685.540801 C483.497,685.530801 483.656,686.337801 483.545,686.881801 C481.973,694.634801 480.327,702.374801 478.889,710.153801 C477.64,716.910801 476.633,723.712801 475.512,730.493801 C475.232,732.189801 475.371,733.813801 476.022,735.432801 C476.332,736.204801 476.503,737.122801 476.422,737.944801 C476.147,740.720801 475.731,743.483801 475.356,746.344801 C474.764,746.377801 474.248,746.406801 473.38,746.454801 C473.229,751.038801 473.148,755.586801 472.912,760.126801 C472.643,765.313801 472.247,770.494801 471.884,775.677801 C471.749,777.591801 471.585,779.504801 471.369,781.410801 C471.239,782.562801 471.261,783.691801 470.306,784.715801 C469.791,785.266801 469.606,786.830801 470.018,787.401801 C470.95,788.697801 470.661,789.967801 470.552,791.258801 C469.973,798.110801 469.34,804.957801 468.707,812.010801 C468.406,812.048801 468.073,812.090801 467.38,812.177801 C466.899,815.522801 466.129,818.953801 465.964,822.415801 C465.589,830.238801 465.535,838.075801 465.305,845.906801 C465.195,849.572801 465.166,853.255801 464.75,856.890801 C464.406,859.887801 464.678,862.787801 465.086,865.719801 C465.328,867.457801 465.641,869.193801 465.754,870.941801 C466.117,876.527801 466.403,882.117801 466.715,887.707801 C466.766,888.622801 467.131,889.702801 465.506,889.779801 C465.707,890.583801 465.726,891.355801 466.072,891.928801 C467.856,894.873801 467.016,898.159801 467.386,901.283801 C467.413,901.511801 467.403,901.821801 467.274,901.977801 C466.228,903.231801 466.182,904.342801 467.469,905.516801 C467.791,905.809801 467.741,906.564801 467.774,907.112801 C468.57,920.924801 469.352,934.738801 470.155,948.550801 C470.206,949.417801 470.33,950.303801 470.576,951.134801 C471.277,953.506801 472.059,955.853801 472.854,958.349801 C473.504,958.295801 474.08,958.246801 474.77,958.188801 C475.799,960.068801 476.832,961.953801 478.062,964.197801 C477.218,964.742801 476.346,965.306801 475.474,965.869801 C476.412,968.340801 492.004,1003.6368 492.652,1004.7038 C495.142,1008.8058 497.768,1012.8278 500.145,1016.9928 C502.12,1020.4548 503.939,1024.0208 505.606,1027.6428 C507.555,1031.8738 507.574,1036.3148 506.424,1040.7868 C505.098,1045.9438 502.674,1050.6458 500.137,1055.2558 C498.022,1059.0978 494.367,1061.3168 490.549,1063.3178 C481.881,1067.8588 472.606,1070.4918 463.051,1072.1988 C451.093,1074.3358 439.107,1076.3158 427.125,1078.3178 C425.555,1078.5798 423.94,1078.6668 422.345,1078.6738 C407.788,1078.7318 393.231,1078.8748 378.674,1078.7498 C364.754,1078.6308 350.865,1077.7588 337.03,1076.1678 C324.713,1074.7508 312.359,1073.7978 299.978,1073.1558 C293.877,1072.8398 287.934,1071.7668 282.263,1069.3188 C280.303,1068.4718 278.158,1067.9868 276.053,1067.5558 C272.036,1066.7338 268.443,1065.0318 265.371,1062.3858 C261.619,1059.1528 258.018,1055.7418 254.389,1052.3668 C253.888,1051.9008 253.408,1051.2468 253.252,1050.5998 C252.561,1047.7448 251.025,1045.3118 249.607,1042.8108 C248.383,1040.6558 247.171,1038.4938 246.007,1036.3068 C244.601,1033.6648 244.31,1030.8338 244.781,1027.9138 C246.329,1018.3518 249.655,1009.4698 255.789,1001.9208 C264.543,991.148801 270.45,978.913801 275.158,965.996801 C275.186,965.921801 275.207,965.842801 275.245,965.773801 C276.733,963.125801 281.902,947.532801 282.609,944.796801 C282.843,943.891801 286.535,930.681801 286.631,930.105801 C288.153,920.800801 289.749,911.504801 291.129,902.177801 C292.937,889.962801 293.062,877.643801 293.184,865.320801 C293.311,852.366801 293.688,839.415801 293.906,826.462801 C294.113,814.214801 293.641,801.990801 292.244,789.818801 C290.469,774.331801 288.668,758.846801 286.754,743.376801 C285.409,732.508801 283.885,721.663801 282.371,710.817801 C282.153,709.253801 281.533,707.748801 281.129,706.207801 C280.846,705.132801 280.549,704.053801 280.365,702.958801 C279.218,696.101801 278.1,689.240801 277.334,682.478801 C277.612,681.847801 278.158,681.201801 278.122,680.590801 C277.969,677.961801 277.85,675.299801 277.315,672.734801 C276.933,670.906801 275.91,669.210801 275.166,667.459801 C274.829,666.666801 274.308,665.910801 274.156,665.085801 C273.509,661.548801 272.965,657.992801 272.393,654.441801 C272.334,654.073801 272.347,653.695801 272.326,653.321801 C272.514,653.175801 272.703,653.029801 272.891,652.883801 L273.465,654.773801 C273.668,654.670801 273.871,654.568801 274.074,654.466801 C274.198,654.266801 274.441,654.057801 274.428,653.866801 C274.142,649.955801 273.549,646.106801 272.08,642.311801 C271.55,642.430801 271.121,642.525801 270.458,642.673801 C269.909,639.381801 269.361,636.100801 268.799,632.724801 C269.414,632.386801 269.952,632.091801 270.537,631.770801 C270.567,631.571801 270.672,631.325801 270.625,631.114801 C269.832,627.526801 269.097,623.923801 268.193,620.364801 C267.167,616.323801 265.982,612.323801 267.253,608.011801 C266.694,607.815801 266.28,607.589801 265.846,607.534801 C264.992,607.427801 264.567,606.964801 264.448,606.153801 C264.193,604.420801 263.938,602.686801 263.662,600.818801 C264.386,600.574801 265.015,600.364801 265.694,600.136801 C265.002,596.922801 264.363,593.795801 263.635,590.689801 C263.457,589.931801 263.082,589.175801 262.633,588.532801 C260.553,585.554801 260.412,582.230801 260.69,578.783801 C260.763,577.871801 260.824,576.728801 260.365,576.046801 C258.6,573.427801 259.064,570.364801 258.375,567.544801 C260.348,565.319801 258.649,563.006801 258.438,560.765801 C258.325,559.575801 257.511,558.459801 257.065,557.290801 C256.756,556.485801 256.429,555.663801 256.293,554.820801 C255.092,547.403801 253.932,539.980801 252.758,532.559801 C252.608,531.612801 252.4,530.671801 252.31,529.718801 C252.187,528.423801 251.775,527.211801 252.356,525.797801 C252.761,524.808801 252.33,523.436801 252.143,522.255801 C251.906,520.757801 251.684,519.231801 251.201,517.802801 C248.904,511.011801 248.287,503.895801 247.078,496.897801 C246.113,491.305801 245.248,485.695801 244.456,480.076801 C244.066,477.315801 243.982,474.512801 243.691,471.735801 C243.558,470.467801 243.359,469.188801 243.022,467.961801 C240.704,459.531801 239.868,450.835801 238.402,442.254801 C237.125,434.770801 235.904,427.272801 234.884,419.750801 C234.359,415.881801 234.162,411.947801 234.117,408.039801 C234.053,402.524801 234.27,397.006801 234.363,391.489801 C234.374,390.869801 234.365,390.248801 234.365,389.518801 C233.216,389.376801 232.223,389.253801 231,389.101801 C231.292,388.545801 231.404,388.056801 231.711,387.792801 C233.69,386.090801 234.277,383.821801 234.457,381.362801 C235.552,366.370801 236.652,351.379801 237.746,336.387801 C238.607,324.583801 239.445,312.778801 240.324,300.975801 C241.364,287.020801 242.354,273.060801 243.525,259.115801 C244.416,248.521801 245.55,237.947801 246.592,227.365801 C247.135,221.862801 247.573,221.408801 252.871,220.290801 C260.924,218.590801 268.924,216.586801 277.033,215.223801 C287.746,213.421801 298.523,211.940801 309.31,210.632801 C328.881,208.258801 348.567,208.297801 368.243,208.140801 C373.992,208.094801 379.738,207.642801 385.485,207.372801 C395.56,206.898801 405.641,206.806801 415.7,207.511801 C429.258,208.460801 442.813,209.507801 456.348,210.745801 C469.482,211.947801 482.596,213.400801 495.709,214.828801 C503.975,215.729801 512.215,216.840801 520.479,217.754801 C524.234,218.169801 526.649,219.987801 527.826,223.610801 C530.211,230.954801 531.609,238.488801 532.085,246.172801 C532.524,253.274801 532.596,260.398801 533.031,267.500801 C533.485,274.921801 534.14,282.330801 534.778,289.738801 C535.941,303.217801 536.803,316.718801 535.806,330.231801 C535.266,337.543801 535.992,344.758801 536.285,352.023801 C536.705,362.408801 536.875,372.809801 536.882,383.204801 C536.891,394.575801 535.639,405.874801 534.197,417.141801 C532.607,429.589801 530.945,442.029801 529.193,454.455801 C527.452,466.802801 525.658,479.143801 523.707,491.458801 C522.068,501.796801 520.481,512.158801 518.305,522.390801 C515.613,535.047801 512.311,547.573801 509.322,560.168801 C505.614,575.795801 501.93,591.427801 498.293,607.072801 C496.983,612.708801 496.34,618.473801 496.9,624.223801 C497.531,630.714801 496.507,636.929801 495.074,643.196801 C491.671,658.073801 488.436,672.990801 485.13,687.891801 C484.908,688.892801 484.662,689.887801 484.426,690.886801 C484.313,690.869801 484.197,690.853801 484.083,690.837801 Z" id="Fill-2854-Copy"></path>
        </g>
    </g>
</svg>