<?xml version="1.0" encoding="UTF-8"?>
<svg width="306px" height="872px" viewBox="0 0 306 872" version="1.1" xmlns="http://www.w3.org/2000/svg" xmlns:xlink="http://www.w3.org/1999/xlink">
    <!-- Generator: Sketch 51.1 (57501) - http://www.bohemiancoding.com/sketch -->
    <title>Fill 2854 Copy 2</title>
    <desc>Created with Sketch.</desc>
    <defs></defs>
    <g id="Page-1" stroke="none" stroke-width="1" fill="none" fill-rule="evenodd">
        <g id="Artboard" transform="translate(-1061.000000, -191.000000)" fill="#FFFFFF">
            <path d="M1094.749,336.488801 L1095.952,336.488801 L1095.952,336.358801 L1094.749,336.358801 L1094.749,336.488801 Z M1110.055,970.879801 C1110.241,970.919801 1110.429,970.959801 1110.615,971.000801 C1110.767,970.501801 1110.918,970.003801 1111.069,969.505801 C1110.912,969.455801 1110.754,969.406801 1110.596,969.357801 C1110.416,969.864801 1110.235,970.371801 1110.055,970.879801 Z M1081.621,373.737801 C1081.54,373.771801 1081.459,373.806801 1081.379,373.841801 C1081.41,374.328801 1081.442,374.815801 1081.475,375.302801 C1081.524,375.299801 1081.572,375.295801 1081.621,375.291801 L1081.621,373.737801 Z M1129.76,705.550801 C1129.969,705.568801 1130.178,705.585801 1130.387,705.603801 C1130.346,704.928801 1130.306,704.252801 1130.266,703.576801 C1130.063,703.587801 1129.858,703.596801 1129.655,703.606801 C1129.691,704.254801 1129.725,704.902801 1129.76,705.550801 Z M1140.029,1048.8448 C1138.525,1049.0638 1138.525,1049.0638 1138.256,1050.1008 C1138.935,1049.6208 1139.482,1049.2328 1140.029,1048.8448 Z M1230.422,1007.2598 C1230.581,1007.3128 1230.74,1007.3658 1230.899,1007.4178 C1231.139,1006.7648 1231.379,1006.1138 1231.619,1005.4608 C1231.422,1005.3958 1231.226,1005.3298 1231.029,1005.2648 C1230.826,1005.9298 1230.625,1006.5948 1230.422,1007.2598 Z M1129.395,988.157801 C1129.242,988.015801 1129.089,987.872801 1128.936,987.730801 C1128.447,988.348801 1127.959,988.966801 1127.471,989.584801 C1127.606,989.690801 1127.74,989.796801 1127.877,989.903801 C1128.383,989.321801 1128.889,988.739801 1129.395,988.157801 Z M1090.567,434.472801 C1088.887,434.904801 1088.775,435.489801 1089.579,436.665801 C1089.918,435.915801 1090.149,435.399801 1090.567,434.472801 Z M1296.641,978.417801 C1296.626,978.681801 1296.611,978.945801 1296.596,979.209801 C1297.226,979.273801 1297.856,979.337801 1298.486,979.401801 C1298.515,979.176801 1298.543,978.950801 1298.57,978.725801 C1297.928,978.622801 1297.284,978.520801 1296.641,978.417801 Z M1322.186,542.851801 C1322.344,542.879801 1322.501,542.907801 1322.658,542.934801 C1322.85,542.230801 1323.399,541.577801 1322.624,540.717801 C1322.479,541.428801 1322.332,542.140801 1322.186,542.851801 Z M1131.147,334.708801 C1131.171,334.619801 1131.195,334.531801 1131.22,334.443801 L1127.429,334.443801 C1127.429,334.531801 1127.43,334.619801 1127.43,334.708801 L1131.147,334.708801 Z M1083.018,478.587801 C1082.152,479.565801 1082.679,480.202801 1083.463,480.780801 C1083.315,480.049801 1083.166,479.318801 1083.018,478.587801 Z M1131.498,725.417801 C1131.66,725.385801 1131.822,725.354801 1131.984,725.322801 C1132.122,724.538801 1132.539,723.698801 1131.032,722.847801 C1131.234,723.963801 1131.366,724.690801 1131.498,725.417801 Z M1121.372,984.210801 C1121.215,984.089801 1121.059,983.968801 1120.901,983.846801 C1120.459,984.501801 1119.657,984.906801 1119.947,986.147801 C1120.522,985.853801 1120.857,985.333801 1121.166,984.800801 C1121.268,984.622801 1121.305,984.408801 1121.372,984.210801 Z M1086.862,380.344801 C1086.727,381.170801 1086.236,382.073801 1087.269,382.899801 C1087.963,381.819801 1087.764,381.036801 1086.862,380.344801 Z M1131.227,712.955801 C1131.154,712.246801 1131.083,711.536801 1130.982,710.547801 C1129.799,711.615801 1129.998,712.328801 1131.227,712.955801 Z M1137.547,691.210801 C1137.779,691.182801 1138.01,691.154801 1138.242,691.125801 C1138.308,690.217801 1138.332,689.319801 1137.084,688.658801 L1137.547,691.210801 Z M1136.823,709.257801 C1138.024,707.403801 1138.006,707.320801 1136.363,706.468801 C1136.514,707.374801 1136.641,708.146801 1136.823,709.257801 Z M1132.046,731.646801 C1131.994,731.680801 1131.943,731.715801 1131.893,731.749801 L1131.893,735.596801 C1131.943,735.595801 1131.994,735.594801 1132.046,735.594801 L1132.046,731.646801 Z M1143.77,1049.9488 C1143.895,1050.2198 1144.018,1050.4908 1144.143,1050.7608 C1144.908,1050.4078 1145.875,1050.4398 1146.102,1048.9968 L1143.77,1049.9488 Z M1359.64,354.354801 C1361.123,352.697801 1361.123,352.697801 1359.818,351.236801 C1359.752,352.378801 1359.696,353.366801 1359.64,354.354801 Z M1207.282,984.001801 C1209.406,984.053801 1209.538,983.888801 1208.682,982.310801 C1208.219,982.869801 1207.788,983.390801 1207.282,984.001801 Z M1282.867,764.680801 C1283.046,764.681801 1283.225,764.682801 1283.404,764.683801 C1284.151,762.612801 1284.159,762.335801 1283.411,761.172801 C1283.217,762.423801 1283.041,763.552801 1282.867,764.680801 Z M1092.931,431.609801 C1092.385,432.337801 1091.838,433.065801 1091.174,433.950801 C1093.106,433.824801 1093.106,433.824801 1092.931,431.609801 Z M1267.252,737.109801 C1268.995,735.766801 1268.995,735.766801 1268.426,733.698801 C1267.987,734.972801 1267.686,735.846801 1267.252,737.109801 Z M1120.465,335.635801 C1118.834,333.578801 1118.418,333.608801 1117.363,335.775801 C1118.406,335.728801 1119.346,335.685801 1120.465,335.635801 Z M1152.832,702.245801 C1152.059,702.868801 1151.311,703.470801 1150.531,704.099801 C1151.371,705.006801 1152.102,704.855801 1152.783,704.295801 C1153.408,703.783801 1153.572,703.155801 1152.832,702.245801 Z M1121.045,664.073801 C1120.715,666.203801 1121.221,668.394801 1122.346,669.819801 C1122.075,667.660801 1121.848,665.800801 1121.045,664.073801 Z M1254.84,991.815801 C1254.223,991.619801 1253.811,991.381801 1253.711,991.475801 C1252.693,992.432801 1252.049,993.592801 1251.876,994.960801 C1252.02,995.055801 1252.163,995.149801 1252.307,995.243801 C1253.072,994.207801 1253.838,993.171801 1254.84,991.815801 Z M1138.2,720.672801 C1139.815,719.329801 1139.815,719.329801 1138.709,717.631801 C1137.584,718.402801 1137.102,719.258801 1138.2,720.672801 Z M1273.442,997.533801 C1273.59,997.600801 1273.739,997.667801 1273.888,997.734801 C1276.051,995.238801 1276.33,994.512801 1275.32,993.288801 C1274.659,994.783801 1274.051,996.158801 1273.442,997.533801 Z M1337.967,467.485801 C1340.153,465.724801 1340.186,465.582801 1339.207,463.154801 C1338.979,463.761801 1338.752,464.257801 1338.606,464.776801 C1338.399,465.514801 1338.25,466.270801 1337.967,467.485801 Z M1332.831,493.543801 C1334.468,492.200801 1335.171,490.592801 1334.199,488.506801 C1333.744,490.185801 1333.287,491.864801 1332.831,493.543801 Z M1289.834,769.901801 C1289.998,769.918801 1290.163,769.934801 1290.328,769.951801 C1291.137,767.976801 1291.388,765.165801 1290.576,763.586801 C1290.329,765.691801 1290.082,767.796801 1289.834,769.901801 Z M1337.96,476.082801 C1336.012,477.402801 1335.713,479.076801 1336.8,481.032801 C1337.187,479.382801 1337.573,477.732801 1337.96,476.082801 Z M1282.684,920.596801 C1283.705,918.454801 1283.546,915.701801 1282.31,914.100801 C1282.241,916.359801 1281.879,918.302801 1282.684,920.596801 Z M1311.326,990.105801 C1311.973,992.041801 1311.797,994.375801 1314.202,995.884801 C1313.49,993.534801 1312.77,991.641801 1311.326,990.105801 Z M1146.512,687.270801 C1146.766,687.257801 1147.02,687.244801 1147.273,687.232801 C1147.174,685.474801 1147.076,683.715801 1146.944,681.366801 C1146.223,682.100801 1145.684,682.414801 1145.714,682.657801 C1145.91,684.203801 1146.231,685.734801 1146.512,687.270801 Z M1343.031,367.677801 C1340.791,369.326801 1340.705,370.174801 1342.453,372.125801 C1342.646,370.644801 1342.823,369.275801 1343.031,367.677801 Z M1136.571,684.277801 C1137.479,681.693801 1137.137,680.557801 1135.176,679.535801 C1135.787,681.088801 1135.075,682.799801 1136.571,684.277801 Z M1283.609,899.258801 C1283.666,899.238801 1283.723,899.219801 1283.779,899.199801 L1283.779,888.152801 L1283.609,888.153801 L1283.609,899.258801 Z M1282.86,771.243801 C1281.553,772.879801 1281.022,776.028801 1281.631,777.571801 C1282.451,775.398801 1282.936,773.375801 1282.86,771.243801 Z M1080.78,357.005801 C1080.908,355.228801 1081.497,353.787801 1080.93,352.198801 C1078.426,354.125801 1078.4,354.509801 1080.78,357.005801 Z M1088.231,391.982801 C1087.348,393.717801 1087.483,395.447801 1087.512,397.352801 C1089.423,395.736801 1089.572,394.461801 1088.231,391.982801 Z M1087.929,428.237801 C1088.562,425.284801 1087.918,423.032801 1086.892,420.478801 C1086.482,422.638801 1086.895,425.773801 1087.929,428.237801 Z M1134.909,676.154801 C1136.301,674.057801 1136.281,673.652801 1134.804,671.435801 C1133.377,673.129801 1133.378,673.500801 1134.909,676.154801 Z M1083.995,485.653801 C1083.675,487.964801 1083.418,490.283801 1085.453,492.032801 C1085.269,489.842801 1085.149,487.643801 1083.995,485.653801 Z M1145.768,711.396801 C1145.274,712.118801 1144.813,712.742801 1144.407,713.401801 C1144.087,713.922801 1143.836,714.486801 1143.589,714.964801 C1144.311,716.115801 1145.029,715.665801 1145.664,715.162801 C1146.658,714.372801 1146.676,713.486801 1145.768,711.396801 Z M1273.53,819.359801 C1272.367,821.474801 1271.509,823.323801 1271.987,825.615801 C1273.91,824.063801 1274.264,822.728801 1273.53,819.359801 Z M1280.659,791.620801 C1280.061,794.057801 1279.578,796.028801 1279.047,798.194801 C1281.684,796.568801 1282.045,795.165801 1280.659,791.620801 Z M1350.25,362.258801 C1348.678,361.529801 1347.976,362.526801 1347.511,363.288801 C1346.844,364.381801 1347.02,365.603801 1347.974,366.904801 C1348.774,365.270801 1349.457,363.875801 1350.25,362.258801 Z M1341.045,385.877801 C1342.535,382.094801 1342.574,379.559801 1341.251,377.615801 C1340.604,380.260801 1340.484,382.800801 1341.045,385.877801 Z M1247.615,993.194801 C1244.639,994.074801 1243.537,995.853801 1243.444,999.465801 C1244.949,997.201801 1246.282,995.198801 1247.615,993.194801 Z M1139.346,790.757801 L1139.346,802.005801 C1140.18,798.277801 1140.919,794.552801 1139.346,790.757801 Z M1143.822,692.532801 C1141.311,694.515801 1141.27,695.012801 1143.312,696.869801 C1144.957,695.360801 1144.998,695.066801 1143.822,692.532801 Z M1144.766,700.095801 C1142.334,701.077801 1141.974,702.389801 1143.569,704.447801 C1145.734,703.111801 1145.914,702.459801 1144.766,700.095801 Z M1278.077,997.278801 C1275.471,999.934801 1274.096,1003.2948 1274.59,1005.4328 C1275.715,1003.3788 1276.882,1001.3388 1277.941,999.242801 C1278.178,998.772801 1278.032,998.109801 1278.077,997.278801 Z M1134.483,1047.7738 C1131.172,1046.8458 1129.955,1047.2018 1128.48,1049.4218 C1132.041,1050.0298 1132.868,1049.8168 1134.483,1047.7738 Z M1150.588,710.927801 C1153.711,710.015801 1154.185,709.152801 1153.107,706.564801 C1150.447,707.775801 1150.106,708.338801 1150.588,710.927801 Z M1328.613,512.832801 C1328.768,512.892801 1328.922,512.951801 1329.076,513.011801 C1330.732,509.735801 1331.797,506.327801 1331.19,502.545801 C1330.93,502.782801 1330.836,503.061801 1330.772,503.346801 C1330.049,506.508801 1329.332,509.670801 1328.613,512.832801 Z M1361.223,367.844801 C1361.42,365.109801 1361.652,362.401801 1361.11,359.720801 C1359.519,362.462801 1359.557,365.180801 1361.223,367.844801 Z M1141.873,689.752801 C1144.203,688.297801 1144.295,687.393801 1142.527,684.496801 C1140.088,685.975801 1139.99,686.639801 1141.873,689.752801 Z M1145.86,677.110801 C1146.013,676.979801 1146.165,676.848801 1146.317,676.718801 C1145.982,675.189801 1145.691,673.649801 1145.3,672.135801 C1144.934,670.719801 1145.046,669.110801 1143.744,668.010801 C1143.633,670.942801 1144.333,673.754801 1144.824,676.586801 C1144.864,676.814801 1145.501,676.938801 1145.86,677.110801 Z M1098.4,476.395801 C1097.309,479.252801 1097.871,482.135801 1099.899,484.151801 C1100.369,481.346801 1100.181,478.794801 1098.4,476.395801 Z M1140.424,909.259801 C1137.446,910.549801 1135.923,913.943801 1136.943,916.611801 C1138.061,915.466801 1139.578,912.315801 1140.424,909.259801 Z M1152.076,694.185801 C1149.837,695.594801 1149.465,696.735801 1150.364,699.433801 C1153.509,698.302801 1153.826,697.329801 1152.076,694.185801 Z M1298.172,693.719801 C1300.462,690.516801 1301.388,684.761801 1299.992,681.995801 C1299.367,686.020801 1298.807,689.637801 1298.172,693.719801 Z M1270.029,997.413801 C1273.781,993.503801 1274.717,991.379801 1273.84,989.029801 C1271.539,992.191801 1270.236,994.988801 1270.029,997.413801 Z M1178.938,978.319801 C1177.507,979.132801 1175.499,981.380801 1174.225,983.595801 C1177.834,984.079801 1179.057,982.711801 1178.938,978.319801 Z M1140.475,749.893801 C1141.005,746.371801 1140.877,738.183801 1140.41,736.472801 C1139.299,736.693801 1139.42,737.539801 1139.471,738.322801 C1139.668,741.338801 1139.863,744.354801 1140.096,747.368801 C1140.16,748.214801 1140.345,749.051801 1140.475,749.893801 Z M1158.8,1001.2288 C1160.241,1000.6088 1164.569,995.968801 1166.106,993.442801 C1165.656,992.751801 1165.152,992.643801 1164.602,993.324801 C1162.649,995.736801 1160.697,998.148801 1158.768,1000.5778 C1158.671,1000.7008 1158.783,1000.9898 1158.8,1001.2288 Z M1299.519,967.769801 C1299.084,963.489801 1297.977,959.426801 1296.046,955.606801 C1296.395,959.896801 1297.359,964.011801 1299.519,967.769801 Z M1326.956,521.594801 C1325.648,525.335801 1324.72,529.169801 1323.982,533.049801 C1323.959,533.168801 1324.506,533.395801 1324.821,533.594801 C1326.746,528.134801 1327.589,523.888801 1326.956,521.594801 Z M1139.079,732.492801 C1141.368,730.125801 1141.324,727.086801 1139.005,724.469801 C1137.426,727.176801 1138.184,729.788801 1139.079,732.492801 Z M1097.225,464.409801 C1094.583,466.798801 1094.737,469.498801 1097.703,472.355801 C1098.76,469.553801 1098.032,467.037801 1097.225,464.409801 Z M1240.287,998.115801 C1241.75,996.155801 1243.216,994.639801 1244.231,992.642801 L1239.339,992.642801 C1239.519,994.260801 1239.667,995.677801 1239.842,997.092801 C1239.868,997.307801 1240.017,997.506801 1240.287,998.115801 Z M1276.818,985.567801 C1277.57,987.126801 1278.26,988.554801 1279.085,990.267801 C1280.402,988.115801 1281.566,986.390801 1282.422,984.182801 C1280.234,984.113801 1278.694,984.866801 1276.818,985.567801 Z M1130.946,652.310801 C1131.077,657.122801 1131.508,661.885801 1133.499,666.353801 C1133.776,661.474801 1132.582,656.855801 1130.946,652.310801 Z M1087.715,346.406801 C1084.598,347.855801 1083.826,350.182801 1085.218,353.475801 C1088.008,352.194801 1088.602,350.580801 1087.715,346.406801 Z M1109.91,587.887801 C1109.707,588.376801 1109.537,588.583801 1109.556,588.770801 C1110.102,594.009801 1110.657,599.247801 1111.256,604.480801 C1111.285,604.736801 1111.721,604.945801 1111.967,605.175801 C1112.058,599.645801 1111.067,594.354801 1110.499,589.022801 C1110.465,588.705801 1110.191,588.413801 1109.91,587.887801 Z M1279.719,1001.6438 C1279.557,1001.6638 1279.43,1001.6478 1279.41,1001.6858 C1278.131,1004.2298 1276.84,1006.7678 1275.598,1009.3298 C1275.156,1010.2388 1275.443,1010.9848 1276.505,1011.6838 C1277.729,1009.4128 1278.925,1007.2748 1280.037,1005.0938 C1280.643,1003.9048 1280.685,1002.6928 1279.719,1001.6438 Z M1098.356,1001.9908 C1097.889,1002.7728 1097.445,1003.4258 1097.092,1004.1238 C1095.815,1006.6468 1096.198,1007.6358 1098.885,1008.8748 C1101.663,1006.0918 1101.19,1004.0568 1098.356,1001.9908 Z M1146.965,719.177801 C1143.77,720.470801 1143.176,724.515801 1145.57,728.270801 C1148.853,725.630801 1146.941,722.297801 1146.965,719.177801 Z M1119.002,603.689801 C1115.482,605.667801 1114.94,607.427801 1116.765,610.939801 C1120.369,609.250801 1121.393,607.471801 1119.002,603.689801 Z M1145.219,894.031801 C1142.257,896.610801 1139.357,899.227801 1139.289,904.147801 C1142.84,901.320801 1144.957,898.233801 1145.219,894.031801 Z M1234.196,984.002801 C1238.207,983.468801 1239.229,981.410801 1237.514,977.488801 C1233.619,978.794801 1233.017,979.920801 1234.196,984.002801 Z M1085.611,373.344801 C1087.272,373.598801 1087.135,372.552801 1087.129,371.725801 C1087.098,367.911801 1087.039,364.098801 1086.951,360.284801 C1086.942,359.871801 1086.684,359.464801 1086.553,359.087801 C1085.252,359.294801 1085.08,360.083801 1085.109,361.047801 C1085.17,363.033801 1085.164,365.021801 1085.244,367.006801 C1085.332,369.132801 1085.488,371.255801 1085.611,373.344801 Z M1120.461,613.069801 C1116.357,614.726801 1115.863,616.045801 1117.627,620.312801 C1122.476,618.921801 1122.141,616.402801 1120.461,613.069801 Z M1322.468,489.139801 C1318.454,490.758801 1316.873,493.476801 1317.733,497.056801 C1322.009,495.329801 1323.223,493.362801 1322.468,489.139801 Z M1324.174,478.318801 C1319.665,481.205801 1317.92,484.327801 1319.053,487.288801 C1323.6,484.613801 1325.146,481.983801 1324.174,478.318801 Z M1276.186,838.430801 C1278.195,833.391801 1279.386,828.315801 1279.839,822.740801 C1277.567,823.804801 1276.277,825.167801 1276.216,827.251801 C1276.106,830.974801 1276.186,834.703801 1276.186,838.430801 Z M1119.117,631.850801 C1123.202,629.870801 1124.072,626.326801 1121.577,622.424801 C1117.195,624.911801 1116.85,626.183801 1119.117,631.850801 Z M1141.671,892.551801 C1144.875,889.882801 1149.092,882.844801 1149.08601,880.174801 C1144.391,882.652801 1140.18,887.423801 1141.671,892.551801 Z M1134.106,934.494801 C1138.775,933.913801 1143.295,928.891801 1144.41,923.257801 C1140.194,925.562801 1135.158,930.991801 1134.106,934.494801 Z M1280.401,804.091801 C1277.254,806.812801 1275.789,816.331801 1277.846,819.865801 C1281.711,815.083801 1280.141,809.572801 1280.401,804.091801 Z M1150.474,907.574801 C1145.449,911.189801 1139.654,919.336801 1139.568,922.781801 C1144.533,918.788801 1148.83,914.417801 1150.474,907.574801 Z M1106.979,559.135801 C1107.439,553.509801 1103.32,525.111801 1101.484,520.988801 C1103.051,533.724801 1104.264,546.511801 1106.979,559.135801 Z M1321.301,499.208801 C1316.314,501.873801 1314.73,505.570801 1316.259,510.703801 C1321.578,508.340801 1322.577,503.570801 1321.301,499.208801 Z M1134.338,1040.9478 C1128.379,1039.8828 1122.759,1038.8778 1116.871,1037.8258 C1117.136,1038.3608 1117.188,1038.6128 1117.34,1038.7528 C1121.309,1042.4008 1126.115,1043.4768 1131.319,1043.1878 C1132.535,1043.1198 1133.545,1042.4598 1134.338,1040.9478 Z M1216.326,984.122801 C1218.595,984.746801 1220.727,984.933801 1222.863,984.365801 C1224.965,983.807801 1225.994,982.601801 1226.176,980.473801 C1226.331,978.643801 1225.906,976.910801 1225.279,975.415801 C1222.305,978.308801 1219.406,981.127801 1216.326,984.122801 Z M1092.853,533.275801 C1092.746,532.386801 1092.693,531.761801 1092.592,531.144801 C1092.033,527.757801 1091.46,524.372801 1090.897,520.986801 C1089.795,514.370801 1088.713,507.752801 1087.581,501.142801 C1087.376,499.946801 1087.213,498.678801 1086.185,497.582801 C1085.499,503.391801 1090.277,529.110801 1092.853,533.275801 Z M1090.451,404.692801 C1087.764,405.261801 1087.369,405.798801 1087.75,408.155801 C1088.638,413.655801 1089.534,419.155801 1090.451,424.651801 C1090.561,425.306801 1090.818,425.937801 1091.001,426.559801 C1092.559,426.401801 1092.538,425.509801 1092.447,424.604801 C1091.794,418.034801 1091.131,411.465801 1090.451,404.692801 Z M1136.212,769.439801 C1134.717,775.323801 1134.916,803.339801 1136.347,809.348801 C1137.303,806.228801 1137.254,777.416801 1136.212,769.439801 Z M1095.122,546.346801 C1094.983,546.373801 1094.844,546.399801 1094.705,546.426801 C1094.795,547.529801 1094.83,548.640801 1094.984,549.734801 C1095.697,554.786801 1096.309,559.858801 1097.209,564.877801 C1098.487,572.014801 1099.982,579.112801 1101.406,586.222801 C1101.5,586.684801 1101.794,587.105801 1101.995,587.544801 C1102.154,587.504801 1102.315,587.463801 1102.475,587.422801 C1102.332,585.609801 1102.324,583.774801 1102.02,581.989801 C1101.268,577.589801 1100.395,573.210801 1099.541,568.829801 C1098.08,561.332801 1096.596,553.840801 1095.122,546.346801 Z M1279.113,871.137801 C1275.721,877.337801 1275.193,892.129801 1277.255,898.175801 C1279.152,889.401801 1280.04,880.558801 1279.113,871.137801 Z M1326.239,1019.3768 C1325.527,1017.1718 1324.801,1014.9258 1324,1012.4458 C1321.5,1013.8028 1319.169,1015.0678 1316.361,1016.5918 C1318.291,1017.1208 1319.556,1016.8008 1320.837,1016.4488 C1321.924,1016.1488 1322.999,1016.0538 1323.904,1017.4078 C1316.662,1021.5078 1308.623,1023.2408 1301.305,1026.6638 C1305.944,1026.2898 1322.096,1021.5068 1326.239,1019.3768 Z M1124.729,657.398801 C1125.193,657.159801 1125.551,657.063801 1125.552,656.962801 C1125.671,649.086801 1124.216,641.372801 1123.359,633.328801 C1122.821,633.674801 1122.54,633.798801 1122.332,633.997801 C1119.301,636.904801 1118.631,640.883801 1120.852,644.682801 C1122.622,647.712801 1123.572,650.936801 1124.101,654.345801 C1124.246,655.284801 1124.481,656.210801 1124.729,657.398801 Z M1347.24,358.522801 C1349.475,358.034801 1350.455,356.566801 1350.537,354.586801 C1350.643,352.058801 1351.406,350.174801 1353.932,349.107801 C1354.604,348.824801 1355.042,347.645801 1355.28,346.791801 C1355.482,346.066801 1355.338,345.157801 1354.383,344.816801 C1351.831,343.904801 1349.315,343.403801 1347.313,345.270801 C1347.313,347.198801 1347.473,348.840801 1347.276,350.438801 C1346.946,353.119801 1346.676,355.771801 1347.24,358.522801 Z M1317.783,544.814801 C1315.184,547.137801 1312.935,549.142801 1310.692,551.154801 C1310.397,551.419801 1310.117,551.707801 1309.857,552.008801 C1307.84,554.347801 1306.95,557.881801 1307.764,560.751801 C1309.748,559.168801 1311.655,557.621801 1313.59,556.109801 C1317.149,553.326801 1318.018,549.532801 1317.783,544.814801 Z M1313.697,529.184801 C1316.703,527.702801 1318.652,525.356801 1319.324,522.179801 C1319.883,519.538801 1319.997,516.801801 1320.269,514.103801 C1320.318,513.611801 1320.179,513.099801 1320.117,512.503801 C1314.578,515.844801 1311.681,523.382801 1313.697,529.184801 Z M1348.674,426.268801 C1351.524,422.491801 1354.229,382.783801 1352.594,373.080801 C1351.287,390.809801 1349.981,408.538801 1348.674,426.268801 Z M1094.274,438.421801 C1089.808,440.059801 1089.3,440.907801 1090.203,445.050801 C1091.09,449.108801 1091.988,453.163801 1092.928,457.208801 C1093.264,458.652801 1093.74,460.062801 1094.174,461.565801 C1096.683,459.836801 1096.881,459.501801 1096.607,456.920801 C1096.33,454.298801 1095.986,451.683801 1095.654,449.067801 C1095.212,445.586801 1094.753,442.107801 1094.274,438.421801 Z M1318.139,529.605801 C1317.111,530.338801 1316.076,530.921801 1315.231,531.707801 C1310.484,536.114801 1310.106,541.965801 1309.645,548.064801 C1316.805,544.428801 1320.207,536.998801 1318.139,529.605801 Z M1147.582,731.293801 C1144.897,732.529801 1144.277,733.374801 1144.291,736.045801 C1144.316,740.761801 1144.466,745.475801 1144.524,750.191801 C1144.637,759.384801 1144.715,768.577801 1144.831,777.770801 C1144.842,778.569801 1145.03,779.365801 1145.137,780.163801 C1147.179,763.961801 1147.53,747.759801 1147.582,731.293801 Z M1136.039,940.226801 C1135.404,940.790801 1135.095,941.026801 1134.833,941.307801 C1132.613,943.691801 1131.031,946.425801 1130.256,949.611801 C1129.496,952.725801 1128.609,955.797801 1126.77,958.484801 C1126.494,958.886801 1126.077,959.190801 1125.309,959.954801 L1125.309,955.285801 C1124.789,955.384801 1124.645,955.568801 1124.532,955.771801 C1122.404,959.616801 1120.271,963.459801 1118.164,967.317801 C1117.782,968.015801 1117.482,968.764801 1117.197,969.509801 C1116.254,971.972801 1116.547,972.664801 1118.984,973.801801 C1119.262,973.930801 1119.572,973.990801 1119.834,974.072801 C1123.046,970.271801 1135.23,945.032801 1136.039,940.226801 Z M1116.113,601.162801 C1118.48,600.188801 1119.133,598.861801 1118.598,595.782801 C1116.393,583.124801 1114.172,570.468801 1111.926,557.817801 C1111.554,555.719801 1111.027,553.650801 1110.571,551.567801 C1110.061,559.206801 1114.577,597.852801 1116.113,601.162801 Z M1141.901,605.014801 C1140.904,605.756801 1140.264,606.198801 1139.659,606.686801 C1136.175,609.495801 1132.682,612.294801 1129.225,615.137801 C1125.599,618.117801 1125.299,618.561801 1127.33,623.513801 C1127.386,623.651801 1127.527,623.752801 1127.781,624.049801 C1132.309,620.677801 1136.867,617.319801 1141.365,613.881801 C1141.863,613.500801 1142.28,612.663801 1142.277,612.040801 C1142.268,609.833801 1142.059,607.626801 1141.901,605.014801 Z M1117.263,1006.0008 C1117.049,1005.8688 1116.834,1005.7378 1116.62,1005.6048 C1117.109,1003.9478 1117.424,1002.2098 1118.139,1000.6558 C1118.858,999.088801 1119.878,997.627801 1120.947,996.261801 C1121.965,994.964801 1123.443,994.043801 1124.173,992.456801 C1122.51,993.456801 1121.087,994.703801 1119.623,995.899801 C1118.215,997.049801 1117.152,998.652801 1115.464,999.439801 C1115.318,999.325801 1115.174,999.213801 1115.029,999.100801 C1116.055,997.171801 1117.082,995.242801 1118.195,993.152801 C1117.502,992.617801 1116.857,992.119801 1116.064,991.508801 C1112.72,998.765801 1108.503,1005.2598 1105.429,1012.5478 C1111.357,1014.1168 1117.073,1015.0068 1123.177,1014.8518 C1123.865,1012.0738 1124.539,1009.3528 1125.344,1006.1068 C1123.813,1007.0528 1122.85,1007.7718 1121.783,1008.2718 C1120.846,1008.7108 1120.156,1010.1168 1118.529,1009.2028 C1119.02,1008.6138 1119.368,1008.1158 1119.795,1007.6968 C1122.077,1005.4558 1124.395,1003.2518 1126.668,1001.0008 C1127.811,999.869801 1128.678,998.595801 1128.2,996.588801 C1124.295,999.629801 1121.084,1003.1928 1117.263,1006.0008 Z M1349.461,370.009801 C1347.313,370.727801 1346.712,371.404801 1346.782,373.855801 C1346.989,381.077801 1346.273,388.224801 1345.363,395.371801 C1344.072,405.522801 1342.877,415.685801 1341.664,425.845801 C1341.267,429.177801 1340.938,432.518801 1340.596,435.857801 C1340.576,436.039801 1340.735,436.240801 1340.833,436.485801 C1341.529,436.165801 1342.138,435.885801 1342.998,435.490801 C1342.053,443.020801 1340.502,450.200801 1339.594,457.747801 C1341.113,457.120801 1341.401,456.200801 1341.555,455.115801 C1342.366,449.337801 1343.348,443.580801 1344.024,437.786801 C1345.33,426.592801 1346.62,415.390801 1347.636,404.166801 C1348.457,395.090801 1348.897,385.978801 1349.44,376.878801 C1349.576,374.600801 1349.461,372.306801 1349.461,370.009801 Z M1289.914,960.218801 C1288.246,955.819801 1287.533,951.577801 1286.749,947.347801 C1285.658,941.460801 1284.522,935.580801 1283.365,929.706801 C1283.191,928.822801 1282.801,927.981801 1282.511,927.119801 C1281.537,942.750801 1281.044,958.265801 1282.815,973.911801 C1287.184,974.147801 1291.011,973.211801 1294.695,970.944801 C1293.666,966.004801 1292.664,961.195801 1291.662,956.386801 C1291.496,956.386801 1291.328,956.384801 1291.162,956.383801 C1290.783,957.548801 1290.404,958.713801 1289.914,960.218801 Z M1273.256,731.461801 C1273.607,731.150801 1273.982,730.861801 1274.308,730.524801 C1278.414,726.269801 1282.53,722.024801 1286.606,717.740801 C1288.079,716.191801 1288.852,714.268801 1289.182,712.167801 C1289.963,707.198801 1290.734,702.226801 1291.518,697.257801 C1293.707,683.374801 1295.899,669.491801 1298.092,655.610801 C1298.329,654.111801 1298.57,652.613801 1298.83,651.118801 C1299.072,649.726801 1299.343,648.338801 1299.601,646.948801 C1287.71,674.157801 1279.658,702.521801 1273.256,731.461801 Z M1149.799,691.633801 C1152.574,690.373801 1152.695,690.276801 1152.48,687.710801 C1151.856,680.304801 1151.207,672.899801 1150.51,665.498801 C1149.176,651.329801 1147.247,637.240801 1144.621,623.251801 C1144.171,620.852801 1143.578,618.479801 1142.963,615.696801 C1141.902,616.334801 1141.122,616.680801 1140.49,617.205801 C1137.049,620.068801 1133.693,623.037801 1130.205,625.842801 C1128.258,627.407801 1127.754,629.172801 1128.428,631.536801 C1129.524,635.376801 1130.505,639.249801 1131.447,643.130801 C1133.578,651.898801 1135.723,660.664801 1137.727,669.462801 C1138.628,673.416801 1139.21,677.443801 1139.969,681.612801 C1141.723,681.089801 1142.44,680.061801 1142.44,678.564801 C1142.44,677.694801 1142.262,676.815801 1142.091,675.954801 C1139.962,665.219801 1137.812,654.488801 1135.691,643.751801 C1135.422,642.383801 1135.295,640.988801 1135.061,639.315801 C1136.604,639.999801 1136.82,641.121801 1137.162,642.156801 C1139.795,650.120801 1142.467,658.071801 1145.047,666.052801 C1147.241,672.836801 1148.969,679.718801 1149.124,686.915801 C1149.156,688.402801 1149.537,689.881801 1149.799,691.633801 Z M1274.187,895.892801 C1273.998,895.857801 1273.809,895.823801 1273.621,895.788801 C1273.191,896.958801 1272.635,898.099801 1272.356,899.304801 C1271.035,904.979801 1269.441,910.620801 1268.596,916.369801 C1267.087,926.641801 1265.785,936.959801 1264.897,947.301801 C1264.255,954.772801 1264.364,962.311801 1264.262,969.822801 C1264.228,972.335801 1264.529,974.863801 1265.459,977.478801 C1267.516,976.222801 1268.842,974.382801 1270.715,973.321801 C1270.857,973.433801 1271,973.545801 1271.143,973.658801 C1270.357,975.023801 1269.572,976.388801 1268.512,978.235801 C1271.815,977.379801 1274.504,976.688801 1277.19,975.985801 C1280.702,975.066801 1280.707,975.061801 1279.91,971.464801 C1278.043,963.026801 1276.481,954.524801 1276.137,945.884801 C1275.811,937.663801 1275.758,929.424801 1275.873,921.196801 C1275.993,912.700801 1275.508,904.274801 1274.187,895.892801 Z M1243.048,982.161801 C1243.18,982.292801 1243.313,982.423801 1243.445,982.554801 C1243.916,982.306801 1244.43,982.115801 1244.848,981.798801 C1246.123,980.834801 1247.382,979.847801 1248.609,978.823801 C1250.941,976.876801 1253.223,974.869801 1255.572,972.943801 C1256.811,971.927801 1258.121,970.967801 1260.162,970.960801 C1257.257,975.535801 1252.508,977.969801 1249.178,982.346801 C1253.914,982.176801 1257.907,981.277801 1261.982,979.595801 C1261.857,973.540801 1261.994,967.535801 1261.552,961.573801 C1260.916,953.002801 1261.115,944.486801 1262.045,935.960801 C1262.703,929.922801 1263.29,923.876801 1263.846,917.827801 C1263.931,916.904801 1264.02,915.641801 1263.509,915.068801 C1262.213,913.613801 1262.547,912.115801 1262.839,910.561801 C1264.488,901.766801 1266.172,892.979801 1267.819,884.184801 C1269.32,876.175801 1270.872,868.174801 1272.253,860.144801 C1273.848,850.866801 1273.317,841.488801 1273.299,832.140801 C1273.297,831.403801 1273.053,830.667801 1272.872,829.656801 C1269.699,832.003801 1268.303,834.939801 1267.566,838.311801 C1263.614,856.416801 1259.639,874.517801 1255.672,892.619801 C1253.568,902.219801 1251.389,911.802801 1250.129,921.563801 C1249.312,927.903801 1248.533,934.249801 1247.614,940.574801 C1246.029,951.486801 1244.338,962.381801 1242.729,973.289801 C1242.546,974.525801 1242.329,975.837801 1243.258,977.031801 C1245.809,976.302801 1246.941,972.991801 1250.365,973.174801 C1248.916,974.864801 1247.639,976.276801 1246.451,977.760801 C1245.293,979.205801 1243.748,980.381801 1243.048,982.161801 Z M1149.424,1013.9378 C1149.504,1013.2508 1149.482,1012.8448 1149.605,1012.4878 C1150.391,1010.1848 1150.669,1007.8468 1150.473,1005.4058 C1150.289,1003.1158 1150.987,1000.9558 1152.132,998.991801 C1153.016,997.477801 1154.082,996.070801 1155.059,994.608801 C1155.658,993.710801 1156.238,992.801801 1156.873,991.827801 C1153.568,990.936801 1152.141,991.503801 1150.481,994.312801 C1147.431,999.476801 1144.436,1004.6728 1141.384,1009.8348 C1140.818,1010.7918 1140.172,1011.7268 1139.423,1012.5428 C1138.691,1013.3398 1137.809,1014.0338 1136.346,1013.9458 C1136.524,1013.0388 1136.582,1012.2468 1136.839,1011.5258 C1137.909,1008.5178 1138.918,1005.4788 1140.18,1002.5508 C1141.665,999.102801 1143.399,995.761801 1145,992.363801 C1145.318,991.686801 1145.528,990.957801 1145.85,990.087801 C1143.416,990.721801 1142.449,991.250801 1141.426,992.745801 C1140.66,993.862801 1140.076,995.100801 1139.383,996.268801 C1138.982,996.945801 1138.524,997.589801 1138.09,998.247801 C1137.965,998.165801 1137.84,998.084801 1137.715,998.003801 C1138.328,995.891801 1138.942,993.780801 1139.56,991.656801 C1137.096,991.150801 1136.518,991.442801 1135.644,993.431801 C1132.783,999.943801 1129.914,1006.4508 1127.055,1012.9628 C1126.802,1013.5378 1126.594,1014.1328 1126.357,1014.7398 C1127.199,1016.0938 1128.49,1016.7158 1129.797,1017.3198 C1130.957,1017.8548 1132.158,1018.3208 1133.266,1018.9498 C1134.255,1019.5128 1135.214,1020.2008 1135.481,1021.6578 C1130.82,1021.1228 1126.461,1019.9428 1121.94,1019.7918 C1122.504,1020.2818 1123.123,1020.5398 1123.767,1020.7028 C1128.027,1021.7818 1132.295,1022.8308 1136.557,1023.9048 C1146.345,1026.3718 1156.206,1028.3388 1166.356,1028.4658 C1169.072,1028.4998 1171.788,1028.6688 1174.504,1028.8008 C1175.75,1028.8618 1176.983,1029.0118 1178.297,1029.9708 C1176.764,1030.3618 1175.531,1030.6758 1173.77,1031.1248 C1174.723,1031.4498 1175.14,1031.6748 1175.578,1031.7308 C1180.727,1032.3828 1185.865,1033.2028 1191.035,1033.5998 C1199.566,1034.2548 1208.119,1034.6128 1216.66,1035.1408 C1218.481,1035.2538 1220.276,1035.6028 1221.815,1036.8238 C1220.041,1037.8828 1219.951,1037.8428 1217.727,1037.9758 C1206.828,1038.6318 1195.984,1037.7658 1185.143,1036.8778 C1172.391,1035.8338 1159.641,1034.7738 1146.898,1033.6258 C1139.568,1032.9658 1132.275,1031.9538 1125.18,1029.9278 C1121.988,1029.0168 1118.802,1028.5448 1115.49,1028.6878 C1113.283,1028.7828 1111.068,1028.7058 1108.613,1028.7058 C1109.117,1030.5148 1110.129,1031.5168 1111.416,1032.1478 C1112.695,1032.7748 1114.064,1033.3238 1115.453,1033.6068 C1125.24,1035.5938 1135.042,1037.5068 1144.841,1039.4348 C1145.686,1039.6008 1146.527,1039.7308 1146.942,1041.0328 C1145.775,1041.1698 1144.779,1041.3498 1143.778,1041.3888 C1142.582,1041.4368 1141.378,1041.3118 1140.182,1041.3578 C1138.874,1041.4078 1137.671,1041.7608 1136.894,1043.0248 C1138.872,1045.7738 1140.745,1042.7158 1142.725,1042.9168 C1142.945,1043.9328 1143.154,1044.9018 1143.382,1045.9478 C1145.016,1045.3498 1146.488,1044.8098 1147.916,1044.2868 C1148.641,1045.2598 1149.243,1046.0678 1149.869,1046.9078 C1150.599,1046.5668 1151.184,1046.3208 1151.744,1046.0268 C1153.797,1044.9498 1155.84,1043.8528 1157.891,1042.7728 C1159.018,1042.1798 1160.121,1041.9208 1161.19,1043.1768 C1158.244,1046.6768 1154.404,1048.8318 1149.949,1050.6008 C1154.106,1052.6578 1157.685,1052.9448 1160.994,1049.8548 C1161.34,1049.5308 1161.762,1049.2798 1162.172,1049.0308 C1164.988,1047.3168 1168.016,1046.2668 1171.702,1045.9048 C1169.296,1049.5478 1164.941,1049.6418 1162.19,1052.3378 C1164.453,1053.8658 1166.394,1053.2898 1168.227,1052.2028 C1170.771,1050.6938 1173.221,1049.0278 1175.754,1047.4998 C1177.462,1046.4698 1179.232,1045.5378 1181.002,1044.6158 C1181.339,1044.4408 1181.805,1044.5118 1182.211,1044.4698 L1182.492,1044.9098 C1181.809,1045.5998 1181.209,1046.4108 1180.424,1046.9518 C1178.451,1048.3128 1176.375,1049.5238 1174.378,1050.8498 C1173.01,1051.7578 1171.521,1052.5518 1170.397,1054.2608 C1172.177,1054.6388 1173.705,1055.0818 1175.264,1055.2698 C1179.152,1055.7388 1183.051,1056.1268 1186.951,1056.4808 C1193.32,1057.0598 1199.7,1058.1108 1206.062,1058.0188 C1218.048,1057.8468 1230.025,1057.0398 1242.004,1056.4158 C1245.432,1056.2368 1248.928,1056.1368 1252.245,1055.3658 C1257.133,1054.2308 1261.889,1052.5318 1266.695,1051.0538 C1267.167,1050.9088 1267.596,1050.6248 1268.043,1050.4068 C1266.555,1049.9268 1265.152,1049.8568 1263.75,1049.8608 C1261.75,1049.8678 1259.75,1049.9928 1257.754,1049.9498 C1255.822,1049.9078 1255.069,1049.5798 1253.622,1048.4758 C1257.287,1047.3518 1261.406,1047.5368 1264.255,1044.1498 C1261.914,1042.4728 1263.027,1040.3118 1263.306,1038.0968 C1271.635,1037.7968 1279.729,1036.2948 1287.922,1033.5158 C1287.715,1033.0878 1287.276,1033.0188 1286.958,1032.7848 C1284.651,1031.0938 1282.077,1030.9708 1279.391,1031.4138 C1275.764,1032.0118 1272.141,1032.6318 1268.508,1033.1948 C1260.371,1034.4538 1252.232,1035.6828 1244.328,1038.1078 C1243.129,1038.4758 1241.813,1038.6058 1240.553,1038.5978 C1239.172,1038.5878 1237.725,1038.4898 1236.518,1037.2928 C1237.036,1037.0568 1237.383,1036.8528 1237.758,1036.7378 C1240.076,1036.0248 1242.138,1035.0018 1243.877,1033.1698 C1244.8,1032.1988 1246.299,1031.5948 1247.647,1031.2488 C1249.647,1030.7348 1251.743,1030.6058 1253.797,1030.2988 C1259.803,1029.4018 1265.931,1028.9818 1271.783,1027.4848 C1280.749,1025.1908 1289.522,1022.1388 1298.386,1019.4398 C1301.274,1018.5608 1303.79,1017.0608 1306.054,1015.1078 C1309.989,1011.7098 1313.905,1008.2888 1317.838,1004.8888 C1318.373,1004.4258 1318.959,1004.0208 1319.58,1003.5428 C1317.886,1001.0858 1316.406,998.940801 1314.93,996.800801 C1312.643,998.271801 1312.121,998.219801 1310.772,996.107801 C1310.002,994.905801 1309.348,993.601801 1308.836,992.268801 C1307.114,987.792801 1305.497,983.277801 1303.8,978.792801 C1303.366,977.646801 1303.033,976.386801 1301.375,975.386801 C1301.631,976.571801 1301.747,977.314801 1301.953,978.032801 C1303.164,982.257801 1304.402,986.474801 1305.613,990.699801 C1305.739,991.140801 1305.746,991.615801 1305.809,992.075801 C1305.674,992.110801 1305.537,992.145801 1305.4,992.179801 C1303.47,988.531801 1301.538,984.881801 1299.55,981.125801 C1298.789,983.177801 1298.66,983.301801 1299.568,984.298801 C1300.216,985.011801 1300.246,985.680801 1300.196,986.475801 C1300.046,988.857801 1300.844,990.886801 1302.537,992.537801 C1303.166,993.150801 1303.397,993.783801 1303.351,994.659801 C1303.198,997.577801 1304.59,999.754801 1306.941,1001.2878 C1308.406,1002.2418 1310.02,1002.9728 1311.592,1003.7538 C1312.376,1004.1428 1313.281,1004.3638 1313.129,1005.4378 C1312.19,1005.6398 1311.174,1005.6148 1310.478,1006.0738 C1309.672,1006.6038 1309.149,1007.5598 1308.34,1008.5248 C1305.653,1006.1288 1303.129,1003.9338 1300.685,1001.6528 C1300.207,1001.2058 1299.888,1000.4598 1299.749,999.798801 C1298.994,996.196801 1297.132,993.140801 1295.098,989.854801 C1294.601,990.604801 1294.191,991.169801 1293.836,991.767801 C1292.162,994.586801 1290.578,997.461801 1288.818,1000.2258 C1287.076,1002.9628 1286.271,1005.7058 1287.818,1008.8048 C1288.399,1009.9668 1288.242,1011.0918 1287.199,1012.1738 C1285.495,1010.8118 1284.475,1008.7318 1282.193,1007.9968 C1280.93,1009.9528 1279.709,1011.8438 1278.367,1013.9228 C1279.357,1014.1348 1279.979,1014.2468 1280.59,1014.4028 C1282.117,1014.7908 1282.628,1015.5168 1282.426,1016.9658 C1282.199,1018.5828 1281.162,1019.5828 1279.711,1019.3568 C1277.941,1019.0798 1276.319,1018.4398 1275.289,1016.8028 C1274.397,1015.3818 1273.481,1013.9718 1272.54,1012.5808 C1270.336,1009.3198 1268.488,1005.9098 1267.385,1002.0818 C1266.754,999.895801 1265.67,997.839801 1264.607,995.286801 C1263.935,996.505801 1263.52,997.258801 1263.103,998.011801 C1261.591,1000.7388 1260.092,1003.4718 1258.561,1006.1888 C1257.793,1007.5488 1256.742,1008.5258 1254.877,1008.6268 C1255.06,1008.1458 1255.135,1007.8478 1255.277,1007.5858 C1257.226,1004.0058 1259.193,1000.4358 1261.133,996.850801 C1261.988,995.269801 1262.824,993.669801 1262.591,991.288801 C1261.92,992.293801 1261.477,992.925801 1261.067,993.577801 C1259.074,996.763801 1257.102,999.962801 1255.098,1003.1408 C1254.124,1004.6838 1252.976,1006.0468 1250.774,1006.8088 C1251.875,1002.5868 1254.786,999.639801 1255.945,995.883801 C1251.231,1001.0678 1248.042,1007.2518 1244.39,1013.2548 C1241.891,1010.8238 1242.32,1008.1098 1243.066,1005.5198 C1241.389,1005.7658 1239.934,1005.9788 1238.152,1006.2398 C1237.926,1006.7188 1237.563,1007.5038 1237.186,1008.2818 C1236.209,1010.2958 1235.279,1012.3338 1234.228,1014.3078 C1233.657,1015.3798 1232.82,1016.4078 1231.462,1016.3008 C1230.063,1016.1898 1229.197,1015.1558 1228.716,1013.9068 C1228.287,1012.7938 1227.82,1011.6408 1227.703,1010.4728 C1227.311,1006.5778 1227.081,1002.6678 1226.763,998.765801 C1226.621,997.034801 1226.419,995.307801 1226.217,993.316801 C1223.184,993.649801 1220.404,993.954801 1217.553,994.267801 C1219.355,999.663801 1219.249,1000.4788 1216.379,1005.1498 C1215.416,1006.7168 1214.45,1008.2838 1213.561,1009.8928 C1213.086,1010.7508 1212.529,1011.6718 1213.254,1012.9728 C1215.539,1010.5068 1216.483,1007.2458 1219.195,1004.8628 C1219.354,1005.7038 1219.561,1006.1518 1219.494,1006.5538 C1218.982,1009.6288 1217.495,1012.2798 1215.648,1014.7098 C1214.717,1015.9358 1213.561,1015.9528 1212.238,1015.1258 C1210.346,1013.9418 1209.715,1012.0268 1209.561,1010.0038 C1209.269,1006.1818 1209.154,1002.3458 1208.984,998.515801 C1208.944,997.595801 1208.979,996.672801 1208.979,995.736801 C1206.449,995.456801 1205.023,996.606801 1203.875,998.281801 C1202.342,1000.5238 1200.797,1002.7578 1199.287,1005.0148 C1198.756,1005.8088 1198.26,1006.6388 1197.856,1007.5018 C1197.716,1007.7988 1197.9,1008.2468 1197.982,1009.0798 C1199.575,1007.1798 1200.827,1005.6368 1202.135,1004.1438 C1203.457,1002.6328 1204.531,1000.8708 1206.372,999.746801 C1206.561,1000.4518 1206.659,1001.1048 1206.436,1001.6168 C1205.925,1002.7808 1205.389,1003.9758 1204.627,1004.9778 C1202.652,1007.5708 1200.551,1010.0648 1198.423,1012.6958 C1194.226,1011.2928 1193.229,1006.6478 1189.811,1003.8718 C1189.625,1005.1528 1189.419,1006.0648 1189.377,1006.9848 C1189.295,1008.8218 1189.368,1010.6668 1189.258,1012.5008 C1189.14,1014.4568 1188.932,1016.4188 1187.553,1018.1778 C1186.563,1016.4518 1186.502,1014.7038 1186.369,1012.9548 C1186.121,1009.6908 1186.022,1006.3938 1185.458,1003.1798 C1185.066,1000.9448 1184.762,998.802801 1185.18,996.554801 C1185.472,994.990801 1185.049,993.585801 1183.474,992.256801 C1182.802,994.066801 1182.083,995.648801 1181.629,997.303801 C1180.891,999.999801 1180.161,1002.7168 1179.723,1005.4718 C1179.023,1009.8698 1176.833,1013.5498 1174.525,1017.1998 C1174.167,1017.7678 1173.66,1018.2418 1172.981,1019.0438 C1171.717,1013.7198 1174.023,1008.9348 1173.619,1003.4628 C1171.019,1006.4728 1168.768,1009.0778 1166.494,1011.7088 C1164.786,1010.6478 1163.301,1009.7248 1161.861,1008.8298 C1160.102,1009.7268 1159.027,1011.7078 1156.545,1011.3738 C1160.594,1005.6708 1165.615,1000.9758 1169.432,995.289801 C1168.427,995.801801 1167.588,996.476801 1166.852,997.248801 C1162.711,1001.5878 1158.59,1005.9468 1154.474,1010.3088 C1153.104,1011.7618 1151.785,1013.2688 1149.424,1013.9378 Z M1349.683,338.561801 C1353.709,339.551801 1357.208,341.965801 1361.573,340.582801 C1361.357,337.874801 1361.26,335.321801 1360.934,332.797801 C1359.441,321.280801 1358.71,309.722801 1358.869,298.108801 C1358.974,290.512801 1359.211,282.914801 1359.09,275.322801 C1358.845,260.041801 1357.724,244.811801 1355.8,229.647801 C1355.086,224.019801 1354.147,218.419801 1353.402,212.794801 C1353.086,210.389801 1351.928,209.115801 1349.482,208.742801 C1346.01,208.214801 1342.58,207.400801 1339.114,206.822801 C1329.973,205.295801 1320.862,203.451801 1311.662,202.436801 C1300.623,201.218801 1289.508,200.685801 1278.42,199.935801 C1269.404,199.325801 1260.381,198.843801 1251.363,198.286801 C1241.211,197.660801 1231.059,197.809801 1220.912,198.318801 C1215.804,198.573801 1210.711,199.207801 1205.602,199.337801 C1187.936,199.788801 1170.265,200.073801 1152.596,200.466801 C1148.199,200.563801 1143.801,200.737801 1139.414,201.032801 C1127.032,201.868801 1114.818,203.940801 1102.633,206.198801 C1097.574,207.136801 1092.647,208.351801 1088.318,211.357801 C1087.117,212.191801 1086.238,213.042801 1086.129,214.869801 C1088.469,214.412801 1090.715,214.002801 1092.949,213.531801 C1097.637,212.541801 1102.274,211.125801 1107.011,210.586801 C1121.386,208.951801 1135.799,207.648801 1150.198,206.222801 C1151.772,206.067801 1153.338,206.032801 1154.941,207.008801 C1153.797,208.005801 1152.516,208.351801 1151.195,208.553801 C1147.087,209.183801 1142.971,209.759801 1138.863,210.393801 C1122.279,212.955801 1105.697,215.522801 1089.117,218.111801 C1086.166,218.572801 1085.206,219.673801 1084.76,222.651801 C1084.016,227.629801 1083.258,232.605801 1082.45,237.573801 C1081,246.490801 1079.344,255.390801 1079.072,264.441801 C1078.58,280.849801 1076.428,297.108801 1074.865,313.419801 C1074.08,321.627801 1073.393,329.823801 1073.744,338.076801 C1073.788,339.084801 1073.75,340.095801 1073.75,341.473801 C1074.847,340.938801 1075.553,340.626801 1076.229,340.258801 C1079.316,338.574801 1082.396,336.874801 1085.48,335.182801 C1088.473,333.539801 1088.551,333.535801 1088.349,330.251801 C1087.492,316.365801 1089.127,302.627801 1090.663,288.876801 C1091.631,280.217801 1092.572,271.553801 1093.345,262.876801 C1093.812,257.623801 1093.938,252.341801 1094.201,247.071801 C1094.263,245.865801 1094.293,244.670801 1095.59,244.006801 C1097.371,244.505801 1097.664,245.869801 1097.583,247.392801 C1097.316,252.421801 1097.109,257.456801 1096.707,262.474801 C1095.911,272.436801 1095.015,282.391801 1094.135,292.346801 C1093.009,305.088801 1091.851,317.828801 1090.735,330.572801 C1090.649,331.565801 1090.787,332.579801 1090.828,333.779801 C1097.993,333.644801 1104.961,332.713801 1111.706,334.845801 C1112.049,334.529801 1112.303,334.337801 1112.506,334.101801 C1114.464,331.821801 1116.985,330.819801 1119.941,330.867801 C1121.619,330.894801 1123.303,330.943801 1124.971,331.102801 C1130.805,331.661801 1136.606,332.017801 1142.315,330.119801 C1143.096,329.859801 1144.348,330.012801 1144.971,330.499801 C1146.08,331.367801 1147.054,331.491801 1148.285,331.020801 C1148.77,330.834801 1149.335,330.861801 1149.875,330.789801 C1150.424,332.076801 1150.916,333.231801 1151.43,334.438801 C1152.624,334.438801 1153.66,334.432801 1154.695,334.438801 C1175.727,334.557801 1196.764,333.833801 1217.789,334.856801 C1220.692,334.997801 1223.504,335.007801 1226.066,333.207801 C1227.244,332.379801 1228.766,332.490801 1229.862,333.522801 C1231.999,335.535801 1234.54,335.682801 1237.246,335.526801 C1240.277,335.351801 1243.32,335.170801 1246.354,335.235801 C1256.746,335.456801 1267.135,335.933801 1277.527,336.038801 C1297.129,336.238801 1316.686,337.384801 1336.25,338.422801 C1339.261,338.582801 1342.287,338.444801 1345.578,338.444801 C1345.67,337.252801 1345.834,336.165801 1345.824,335.081801 C1345.634,313.728801 1345.42,292.377801 1345.233,271.024801 C1345.227,270.173801 1345.177,269.138801 1345.608,268.501801 C1346.727,266.852801 1346.816,265.095801 1346.781,263.229801 C1346.728,260.342801 1346.768,257.454801 1346.768,254.566801 C1350.731,282.402801 1350.244,310.374801 1349.683,338.561801 Z M1196.69,983.823801 C1199.665,984.393801 1201.482,984.152801 1203.848,982.953801 C1208.516,980.589801 1210.549,976.687801 1210.9,971.542801 C1211.643,960.676801 1213.369,949.954801 1215.988,939.371801 C1218.467,929.364801 1220.831,919.325801 1222.21,909.089801 C1223.416,900.137801 1224.558,891.177801 1225.801,882.230801 C1226.201,879.345801 1226.832,876.493801 1227.357,873.626801 C1228.037,880.539801 1226.723,887.359801 1227.023,894.237801 C1227.4,893.837801 1227.616,893.423801 1227.743,892.984801 C1231.911,878.552801 1236.063,864.115801 1240.235,849.685801 C1242.299,842.550801 1244.393,835.423801 1246.502,828.301801 C1246.732,827.523801 1247.155,826.802801 1247.489,826.055801 C1247.895,826.921801 1247.941,827.645801 1247.799,828.330801 C1246.472,834.746801 1245.384,841.228801 1243.711,847.554801 C1239.072,865.089801 1234.193,882.561801 1229.398,900.054801 C1226.841,909.380801 1224.158,918.680801 1222.674,928.255801 C1221.4,936.469801 1220.262,944.704801 1219.096,952.935801 C1218.501,957.126801 1217.914,961.320801 1217.44,965.526801 C1216.984,969.570801 1216.664,973.630801 1216.33,977.687801 C1216.297,978.092801 1216.582,978.523801 1216.826,979.268801 C1218.285,978.028801 1219.488,976.893801 1220.803,975.907801 C1224.307,973.279801 1226.031,969.738801 1226.322,965.444801 C1226.501,962.811801 1226.591,960.171801 1226.751,957.537801 C1227.116,951.513801 1228.121,945.639801 1230.678,940.095801 C1231.168,939.034801 1231.349,937.802801 1231.52,936.627801 C1231.993,933.385801 1232.186,930.090801 1232.844,926.888801 C1236.73,908.023801 1240.908,889.218801 1246.22,870.697801 C1251.197,853.338801 1256.449,836.058801 1261.582,818.744801 C1262.764,814.762801 1263.933,810.775801 1265.152,806.804801 C1265.337,806.201801 1265.342,805.323801 1266.687,805.237801 C1266.633,806.467801 1266.744,807.642801 1266.503,808.740801 C1265.576,812.953801 1264.707,817.191801 1263.504,821.328801 C1260.379,832.071801 1257.03,842.747801 1253.884,853.482801 C1251.614,861.225801 1249.066,868.928801 1247.464,876.817801 C1245.142,888.243801 1243.524,899.815801 1241.673,911.336801 C1239.441,925.225801 1237.313,939.131801 1235.077,953.019801 C1233.97,959.900801 1232.975,966.777801 1233.506,973.775801 C1233.557,974.438801 1233.693,975.094801 1233.799,975.814801 C1237.432,974.445801 1239.273,972.417801 1239.728,969.224801 C1240.879,961.153801 1241.904,953.062801 1243.1,944.997801 C1244.575,935.036801 1245.881,925.037801 1247.783,915.155801 C1250.666,900.168801 1253.941,885.256801 1257.161,870.336801 C1259.25,860.654801 1261.553,851.017801 1263.709,841.348801 C1263.929,840.365801 1264.084,839.212801 1263.777,838.303801 C1263.297,836.877801 1263.712,835.779801 1264.424,834.689801 C1265.931,832.381801 1266.818,829.826801 1267.555,827.200801 C1268.57,823.585801 1269.568,819.964801 1270.641,816.365801 C1271.09,814.859801 1271.254,813.359801 1270.743,811.887801 C1270.315,810.652801 1270.653,809.801801 1271.482,808.870801 C1273.382,806.739801 1274.579,804.182801 1275.163,801.419801 C1275.723,798.768801 1276.004,796.058801 1276.375,793.369801 C1276.441,792.886801 1276.342,792.380801 1276.299,791.458801 C1273.923,793.940801 1271.863,796.090801 1269.578,798.477801 C1269.311,796.639801 1269.91,795.466801 1270.847,794.611801 C1273.459,792.227801 1274.777,788.999801 1276.571,786.094801 C1278.475,783.012801 1278.297,779.490801 1278.526,775.656801 C1276.496,776.998801 1274.86,778.079801 1273.225,779.161801 C1273.635,777.632801 1274.273,776.428801 1275.053,775.326801 C1275.977,774.024801 1277.068,772.841801 1278.006,771.548801 C1279.535,769.442801 1280.272,767.133801 1279.723,764.258801 C1276.668,766.062801 1275.408,769.784801 1271.524,770.456801 C1271.842,769.773801 1271.969,769.301801 1272.244,768.944801 C1274.34,766.229801 1276.465,763.537801 1278.58,760.837801 C1279.268,759.958801 1280.045,759.131801 1280.616,758.181801 C1281.217,757.183801 1281.506,756.066801 1280.809,754.801801 C1277.3,757.369801 1275.67,761.709801 1271.416,763.174801 C1271.981,761.648801 1272.668,760.226801 1273.592,758.980801 C1275.497,756.411801 1277.539,753.945801 1279.504,751.419801 C1280.287,750.410801 1281.107,749.409801 1281.734,748.305801 C1282.294,747.322801 1282.791,746.206801 1281.863,744.747801 C1280.397,746.288801 1279.117,747.695801 1277.77,749.031801 C1276.489,750.299801 1275.416,751.901801 1273.116,752.340801 C1275.246,748.615801 1277.531,745.449801 1280.139,742.512801 C1282.254,740.127801 1283.756,737.461801 1284.118,734.220801 C1284.455,731.202801 1284.893,728.196801 1285.238,725.178801 C1285.293,724.702801 1285.099,724.198801 1284.97,723.401801 C1284.291,723.990801 1283.84,724.301801 1283.488,724.699801 C1279.299,729.430801 1275.125,734.174801 1270.945,738.913801 C1270.418,739.513801 1269.93,740.162801 1269.332,740.683801 C1268.069,741.781801 1267.126,741.708801 1265.449,740.417801 C1265.922,738.305801 1266.299,736.094801 1266.914,733.949801 C1271.537,717.818801 1275.823,701.574801 1280.97,685.610801 C1286.293,669.097801 1291.523,652.578801 1295.668,635.727801 C1296.947,630.529801 1298.339,625.357801 1299.678,620.173801 C1300.082,618.606801 1300.666,617.206801 1302.78,616.838801 C1302.373,619.799801 1301.995,622.558801 1301.616,625.318801 C1301.769,625.339801 1301.922,625.361801 1302.074,625.383801 C1307.121,603.454801 1311.602,581.416801 1314.852,559.038801 C1313.634,559.645801 1312.625,560.379801 1311.643,561.145801 C1307.283,564.540801 1304.533,568.850801 1303.924,574.449801 C1303.7,576.510801 1303.242,578.548801 1302.83,580.585801 C1300.172,593.744801 1297.514,606.905801 1294.818,620.056801 C1293.937,624.362801 1292.959,628.648801 1291.99,632.934801 C1291.834,633.627801 1291.861,634.522801 1290.525,634.880801 C1290.596,633.912801 1290.585,633.147801 1290.716,632.406801 C1292.996,619.500801 1295.175,606.575801 1297.621,593.700801 C1300.723,577.371801 1304.05,561.083801 1307.265,544.775801 C1307.535,543.407801 1307.69,542.015801 1307.939,540.368801 C1305.291,541.267801 1304.103,544.173801 1300.674,544.098801 C1302.508,541.980801 1303.915,540.154801 1305.535,538.542801 C1307.038,537.045801 1308.369,535.503801 1308.943,533.426801 C1309.873,530.063801 1309.791,526.666801 1309.368,522.963801 C1307.373,523.994801 1305.586,524.917801 1303.799,525.841801 C1303.679,525.734801 1303.559,525.627801 1303.438,525.520801 C1307.393,520.545801 1310.684,515.432801 1307.042,509.037801 C1307.774,507.711801 1308.486,506.552801 1309.069,505.331801 C1310.116,503.138801 1310.351,500.823801 1309.316,498.601801 C1308.711,497.301801 1308.871,496.414801 1309.779,495.392801 C1310.834,494.204801 1311.249,492.814801 1310.51,491.185801 C1309.479,491.382801 1308.561,491.556801 1307.345,491.788801 C1307.772,491.168801 1308.014,490.782801 1308.289,490.421801 C1310.656,487.318801 1312.297,483.956801 1312.701,479.977801 C1313.098,476.085801 1313.904,472.236801 1314.367,468.348801 C1315.774,456.521801 1317.2,444.695801 1318.428,432.848801 C1319.292,424.498801 1319.844,416.116801 1320.534,407.748801 C1321.435,396.830801 1322.33,385.911801 1323.235,374.993801 C1323.731,369.016801 1324.207,363.038801 1324.772,357.068801 C1324.883,355.884801 1324.937,354.513801 1326.562,353.758801 C1327.207,355.608801 1327.544,357.368801 1327.514,359.210801 C1327.382,367.206801 1327.127,375.203801 1327.15,383.199801 C1327.199,400.215801 1324.93,417.005801 1322.531,433.793801 C1320.949,444.871801 1319.514,455.970801 1318.027,467.061801 C1317.922,467.849801 1317.932,468.653801 1317.889,469.448801 C1319.277,466.769801 1319.265,463.734801 1320.986,461.231801 C1320.957,463.922801 1320.62,466.569801 1320.447,469.227801 C1320.275,471.873801 1319.547,474.521801 1320.156,477.274801 C1323.789,475.352801 1326.014,472.275801 1326.612,468.416801 C1327.028,465.730801 1327.361,463.032801 1327.79,460.348801 C1329.125,451.982801 1330.676,443.646801 1331.793,435.251801 C1333.363,423.446801 1334.701,411.608801 1335.973,399.767801 C1336.611,393.813801 1337.221,387.844801 1336.731,381.816801 C1336.525,379.289801 1336.912,376.718801 1336.959,374.165801 C1336.974,373.358801 1336.759,372.547801 1336.65,371.744801 C1334.816,372.045801 1333.668,373.390801 1331.479,373.468801 C1332.296,372.347801 1332.685,371.382801 1333.399,370.911801 C1336.338,368.979801 1337.182,366.228801 1337.244,362.882801 C1337.31,359.454801 1337.744,356.032801 1338.061,352.610801 C1338.173,351.402801 1338.583,350.318801 1340.131,349.653801 C1341.177,354.226801 1340.717,358.845801 1341.652,363.349801 C1343.042,362.718801 1343.377,361.727801 1343.434,360.537801 C1343.616,356.705801 1343.849,352.876801 1344.009,349.044801 C1344.078,347.382801 1344.021,345.715801 1344.021,343.911801 C1342.878,343.744801 1341.951,343.542801 1341.016,343.484801 C1336.944,343.235801 1332.871,343.009801 1328.797,342.807801 C1309.068,341.830801 1289.338,340.878801 1269.61,339.877801 C1266.901,339.740801 1264.19,339.485801 1261.504,339.102801 C1257.279,338.500801 1253.081,338.354801 1248.84,338.950801 C1246.206,339.321801 1243.582,339.232801 1241.129,337.886801 C1240.545,337.566801 1239.756,337.530801 1239.059,337.519801 C1233.384,337.429801 1227.707,337.427801 1222.033,337.298801 C1217.957,337.205801 1213.875,336.693801 1209.813,336.836801 C1200.703,337.158801 1191.603,337.764801 1182.5,338.276801 C1180.904,338.365801 1179.309,338.519801 1177.725,338.731801 C1177.395,338.775801 1177.115,339.203801 1176.381,339.812801 C1180.359,340.216801 1183.79,340.565801 1187.259,340.917801 C1186.856,343.010801 1185.647,343.518801 1184.029,343.441801 C1180.337,343.266801 1176.711,342.771801 1173.266,341.318801 C1171.617,340.621801 1169.901,340.092801 1168.178,340.989801 C1166.95,341.628801 1165.743,341.529801 1164.451,341.366801 C1161.6,341.008801 1158.733,340.483801 1155.876,340.500801 C1147,340.554801 1138.125,340.833801 1129.249,341.014801 C1127.805,341.043801 1126.605,341.503801 1125.719,342.702801 C1124.18,344.787801 1122.19,345.282801 1119.787,344.358801 C1117.422,343.448801 1114.967,343.333801 1112.463,343.552801 C1107.048,344.027801 1101.628,344.446801 1096.212,344.913801 C1094.555,345.057801 1092.905,345.285801 1091.373,345.460801 C1091.217,345.802801 1091.088,345.948801 1091.098,346.083801 C1091.562,352.863801 1092.01,359.645801 1092.546,366.419801 C1092.61,367.234801 1092.95,368.223801 1093.514,368.764801 C1094.957,370.145801 1094.86,371.520801 1094.002,373.086801 C1092.59,375.666801 1092.963,378.134801 1094.516,380.674801 C1096.221,380.250801 1097.884,379.837801 1099.713,379.383801 C1099.542,379.856801 1099.516,380.116801 1099.376,380.284801 C1098.611,381.208801 1097.803,382.095801 1097.039,383.020801 C1096.176,384.066801 1095.213,385.059801 1094.526,386.214801 C1093.279,388.309801 1093.609,390.158801 1095.374,392.047801 C1098.425,390.831801 1100.356,387.497801 1103.957,387.250801 C1105.127,389.391801 1104.75,391.089801 1102.958,392.622801 C1101.078,394.232801 1099.363,396.036801 1097.484,397.648801 C1095.76,399.128801 1095.011,400.877801 1095.25,403.150801 C1095.784,408.239801 1096.211,413.339801 1096.746,418.427801 C1096.885,419.749801 1097.262,421.046801 1097.551,422.462801 C1101.902,421.132801 1104.877,417.565801 1109.309,416.860801 C1108.551,418.097801 1107.724,419.256801 1106.688,420.179801 C1104.779,421.879801 1102.746,423.439801 1100.77,425.061801 C1099.742,425.904801 1098.729,426.759801 1098.529,428.655801 C1102.719,426.163801 1105.944,422.865801 1110.234,421.256801 C1110.067,421.824801 1109.813,422.281801 1109.468,422.653801 C1106.756,425.588801 1104.162,428.649801 1101.262,431.386801 C1099.064,433.459801 1098.178,435.675801 1098.637,438.644801 C1099.089,441.564801 1099.246,444.528801 1099.578,447.467801 C1099.885,450.189801 1100.251,452.905801 1100.661,456.184801 C1102.634,454.415801 1104.122,452.992801 1105.706,451.685801 C1107.24,450.419801 1108.832,449.215801 1110.479,448.100801 C1111.128,447.661801 1111.953,447.228801 1113.111,447.767801 C1112.188,448.891801 1111.455,449.933801 1110.573,450.825801 C1108.211,453.214801 1105.742,455.497801 1103.406,457.909801 C1102.599,458.743801 1101.869,459.760801 1101.44,460.827801 C1100.9,462.167801 1101.82,466.601801 1102.733,468.211801 C1107.109,465.573801 1110.484,461.484801 1115.307,459.165801 C1115.467,460.804801 1114.553,461.512801 1113.746,462.262801 C1110.875,464.931801 1107.982,467.576801 1105.123,470.257801 C1104.131,471.189801 1103.024,472.180801 1103.052,473.641801 C1103.096,475.995801 1103.487,478.320801 1104.318,480.741801 C1105.135,480.114801 1105.768,479.637801 1106.391,479.146801 C1108.211,477.710801 1110.018,476.254801 1111.85,474.833801 C1112.846,474.062801 1113.912,473.488801 1115.476,473.995801 C1113.352,476.633801 1111.299,478.986801 1108.725,480.748801 C1105.381,483.039801 1104.412,485.954801 1105.303,489.881801 C1107.104,497.830801 1108.703,505.824801 1110.33,513.811801 C1110.984,517.018801 1111.512,520.252801 1112.047,523.482801 C1112.123,523.940801 1111.914,524.445801 1111.807,525.118801 C1111.389,524.799801 1111.131,524.701801 1111.05,524.523801 C1110.553,523.434801 1109.961,522.365801 1109.648,521.221801 C1107.531,513.521801 1105.471,505.804801 1103.403,498.091801 C1102.824,495.930801 1102.3,493.756801 1101.705,491.600801 C1101.533,490.971801 1101.206,490.385801 1100.949,489.778801 C1100.832,491.298801 1100.949,492.731801 1101.237,494.128801 C1102.881,502.110801 1104.511,510.095801 1106.244,518.058801 C1111.408,541.801801 1116.344,565.588801 1120.291,589.569801 C1120.637,591.670801 1121.072,593.757801 1121.494,596.008801 C1124.924,595.363801 1126.973,591.793801 1131.071,592.317801 C1130.209,593.235801 1129.682,593.920801 1129.031,594.457801 C1128.108,595.219801 1127.065,595.832801 1126.126,596.575801 C1122.664,599.315801 1122.465,600.305801 1124.515,604.285801 C1124.578,604.407801 1124.754,604.471801 1125.031,604.677801 C1128.51,603.194801 1131.016,599.837801 1135.076,598.618801 C1134.862,600.113801 1134.111,600.887801 1133.277,601.603801 C1131.152,603.426801 1129.001,605.218801 1126.899,607.066801 C1124.308,609.344801 1124.219,610.636801 1126.381,613.552801 C1130.932,610.177801 1135.514,606.844801 1140.019,603.409801 C1141.788,602.061801 1142.544,600.157801 1142.244,597.891801 C1142.134,597.056801 1141.911,596.160801 1143.024,595.503801 C1143.61,596.854801 1144.164,598.130801 1144.716,599.402801 C1145.727,599.178801 1146.488,599.011801 1147.438,598.801801 C1147.634,599.567801 1147.893,600.234801 1147.966,600.921801 C1148.18,602.908801 1148.303,604.905801 1148.49,606.895801 C1149.334,615.810801 1150.078,624.736801 1151.063,633.636801 C1152.741,648.811801 1154.773,663.949801 1156.276,679.141801 C1157.505,691.552801 1158.206,704.015801 1159.092,716.458801 C1159.711,725.153801 1160.281,733.852801 1160.807,742.552801 C1161.076,747.019801 1161.675,751.536801 1161.288,755.957801 C1160.559,764.287801 1160.969,772.571801 1161.276,780.877801 C1161.419,784.713801 1161.514,788.551801 1161.554,792.388801 C1161.57,793.941801 1161.301,795.466801 1159.903,796.991801 C1159.741,795.994801 1159.604,795.394801 1159.552,794.786801 C1159.024,788.491801 1158.568,782.191801 1157.982,775.902801 C1156.615,761.244801 1155.844,746.552801 1155.168,731.851801 C1154.914,726.339801 1154.503,720.835801 1154.131,715.329801 C1154.077,714.521801 1153.844,713.724801 1153.649,712.688801 C1151.471,713.982801 1150.156,715.302801 1150.388,717.638801 C1150.529,719.068801 1150.557,720.511801 1150.736,721.936801 C1151.07,724.581801 1151.841,727.197801 1150.692,729.864801 C1150.397,730.550801 1150.506,731.445801 1150.553,732.237801 C1150.643,733.753801 1150.905,735.261801 1150.948,736.777801 C1151.356,751.005801 1151.92,765.234801 1152.065,779.466801 C1152.215,794.341801 1151.974,809.220801 1151.857,824.098801 C1151.827,827.853801 1151.631,831.606801 1151.467,835.358801 C1151.451,835.710801 1151.121,836.049801 1150.691,836.854801 C1150.514,835.868801 1150.381,835.430801 1150.363,834.988801 C1150.241,831.951801 1150.072,828.914801 1150.049,825.877801 C1149.963,814.678801 1149.951,803.479801 1149.86,792.281801 C1149.836,789.307801 1149.631,786.334801 1149.509,783.361801 C1149.041,783.913801 1149.002,784.459801 1148.961,785.005801 C1148.588,789.949801 1148.099,794.888801 1147.867,799.838801 C1147.484,808.064801 1147.209,816.295801 1147.002,824.527801 C1146.873,829.642801 1147.305,834.792801 1146.873,839.874801 C1145.932,850.945801 1144.589,861.982801 1143.434,873.034801 C1143.163,875.615801 1142.982,878.205801 1142.719,881.279801 C1143.475,880.751801 1143.804,880.576801 1144.067,880.330801 C1146.404,878.144801 1148.688,875.900801 1151.068,873.765801 C1153.654,871.447801 1155.365,868.651801 1156.193,865.283801 C1156.879,862.490801 1157.631,859.713801 1158.337,856.925801 C1160.945,846.623801 1163.731,836.361801 1166.1,826.004801 C1168.508,815.479801 1169.89,804.765801 1171.1,794.036801 C1171.244,792.762801 1171.257,791.395801 1172.588,789.936801 C1172.697,791.218801 1172.865,792.050801 1172.826,792.873801 C1172.408,801.511801 1171.307,810.073801 1169.897,818.597801 C1167.705,831.851801 1164.712,844.939801 1161.683,858.020801 C1161.166,860.249801 1161.052,862.591801 1160.953,864.888801 C1160.902,866.065801 1160.563,867.004801 1160.022,868.017801 C1159.05,869.835801 1158.154,871.717801 1157.475,873.659801 C1156.738,875.765801 1156.209,877.953801 1155.724,880.135801 C1154.263,886.707801 1152.324,893.113801 1149.482,899.234801 C1148.708,900.899801 1148.049,902.620801 1147.381,904.332801 C1147.201,904.794801 1147.18,905.319801 1147.086,905.814801 C1147.241,905.896801 1147.397,905.979801 1147.553,906.061801 C1148.631,904.631801 1149.72,903.208801 1150.787,901.770801 C1151.883,900.292801 1152.953,898.796801 1154.042,897.314801 C1155.113,895.856801 1156.195,894.405801 1157.274,892.950801 C1157.596,893.861801 1157.593,894.637801 1157.396,895.361801 C1156.682,897.979801 1155.947,900.594801 1155.129,903.181801 C1154.739,904.412801 1154.336,905.563801 1154.713,906.902801 C1155.223,908.709801 1154.73,910.379801 1153.658,911.892801 C1150.811,915.916801 1149.066,920.452801 1147.354,925.036801 C1145.539,929.895801 1143.629,934.740801 1141.39,939.413801 C1136.07,950.515801 1130.527,961.509801 1125.09,972.554801 C1124.568,973.614801 1124.152,974.725801 1123.666,975.863801 C1124.108,976.070801 1124.381,976.253801 1124.68,976.330801 C1126.873,976.898801 1128.924,976.740801 1130.838,975.340801 C1132.119,974.403801 1133.536,973.929801 1134.955,975.243801 C1134.674,976.302801 1134.404,977.315801 1134.04,978.691801 C1135.453,977.823801 1136.393,976.882801 1137.483,976.648801 C1139.811,976.149801 1141.022,974.709801 1141.893,972.681801 C1146.845,961.150801 1151.981,949.696801 1156.765,938.096801 C1164.048,920.437801 1171.051,902.663801 1178.266,884.976801 C1180.893,878.539801 1183.772,872.205801 1186.574,865.842801 C1186.888,865.131801 1187.04,864.185801 1188.362,863.801801 C1188.17,864.650801 1188.1,865.251801 1187.899,865.805801 C1185.741,871.739801 1183.607,877.680801 1181.382,883.587801 C1178.313,891.737801 1174.657,899.705801 1172.163,908.025801 C1166.682,926.309801 1159.57,943.907801 1151.34,961.090801 C1149.303,965.343801 1147.291,969.609801 1145.229,973.850801 C1144.053,976.266801 1144.49,978.404801 1146.066,980.547801 C1147.119,979.894801 1148.031,979.328801 1149.117,978.654801 C1149.04,979.805801 1148.981,980.698801 1148.908,981.784801 C1150.682,980.954801 1151.647,979.715801 1152.371,978.266801 C1156.016,970.973801 1159.957,963.809801 1163.222,956.349801 C1171.106,938.338801 1178.701,920.199801 1186.357,902.089801 C1194.293,883.315801 1202.275,864.557801 1208.19,845.008801 C1208.406,844.291801 1208.832,843.638801 1209.334,842.598801 C1210.133,844.260801 1209.696,845.522801 1209.367,846.675801 C1206.932,855.203801 1204.834,863.857801 1201.852,872.193801 C1195.578,889.723801 1188.91,907.115801 1182.246,924.503801 C1177.213,937.635801 1172.375,950.854801 1166.274,963.552801 C1163.781,968.740801 1161.313,973.940801 1158.857,979.145801 C1158.366,980.185801 1157.982,981.275801 1157.549,982.342801 C1158.77,982.157801 1159.648,981.782801 1160.396,981.232801 C1161.617,980.332801 1162.742,979.304801 1163.929,978.355801 C1165.231,977.312801 1166.563,976.312801 1168.732,976.097801 C1166.693,978.505801 1164.894,980.633801 1163.092,982.763801 C1167.426,984.594801 1170.798,983.716801 1173.635,980.343801 C1174.649,979.136801 1175.85,977.894801 1177.236,977.237801 C1179.644,976.095801 1180.838,974.240801 1181.637,971.872801 C1183.297,966.950801 1184.963,962.028801 1186.752,957.152801 C1193.555,938.619801 1200.395,920.094801 1205.918,901.131801 C1210.969,883.791801 1215.771,866.380801 1221.483,849.239801 C1223.58,842.947801 1225.563,836.616801 1227.619,830.311801 C1227.943,829.316801 1228.086,828.160801 1229.507,827.479801 C1229.507,828.188801 1229.589,828.645801 1229.494,829.060801 C1228.817,832.020801 1228.213,835.002801 1227.386,837.919801 C1222.326,855.754801 1217.113,873.546801 1212.154,891.408801 C1208.627,904.111801 1205.275,916.866801 1202.123,929.666801 C1200.5,936.253801 1199.688,943.035801 1198.14,949.643801 C1196.283,957.575801 1194.024,965.413801 1191.961,973.298801 C1191.502,975.053801 1191.139,976.834801 1190.739,978.563801 C1191.672,979.127801 1192.404,979.570801 1193.109,979.997801 C1192.605,981.657801 1190.987,982.653801 1190.844,984.713801 C1191.496,984.442801 1191.947,984.351801 1192.277,984.101801 C1193.55,983.133801 1194.803,982.138801 1196.027,981.109801 C1198.109,979.359801 1200.145,977.554801 1202.236,975.818801 C1203.174,975.040801 1204.188,974.316801 1206.016,974.910801 C1202.797,977.987801 1199.879,980.776801 1196.69,983.823801 Z M1290.895,982.386801 C1289.042,986.979801 1286.316,991.195801 1284.922,996.007801 C1285.426,995.693801 1285.822,995.324801 1286.094,994.879801 C1287.457,992.644801 1288.732,990.355801 1290.145,988.152801 C1291.322,986.316801 1291.897,984.472801 1290.893,982.387801 C1288.805,981.406801 1287.793,981.377801 1286.709,982.972801 C1284.607,986.062801 1282.712,989.296801 1280.824,992.525801 C1280.188,993.615801 1280.672,994.459801 1282.074,994.999801 C1284.637,990.457801 1286.362,985.404801 1290.895,982.386801 Z M1314.083,674.837801 C1314.297,673.086801 1314.51,671.335801 1314.729,669.540801 C1313.497,669.530801 1313.656,670.337801 1313.545,670.881801 C1311.973,678.634801 1310.327,686.374801 1308.889,694.153801 C1307.64,700.910801 1306.633,707.712801 1305.512,714.493801 C1305.232,716.189801 1305.371,717.813801 1306.022,719.432801 C1306.332,720.204801 1306.503,721.122801 1306.422,721.944801 C1306.147,724.720801 1305.731,727.483801 1305.356,730.344801 C1304.764,730.377801 1304.248,730.406801 1303.38,730.454801 C1303.229,735.038801 1303.148,739.586801 1302.912,744.126801 C1302.643,749.313801 1302.247,754.494801 1301.884,759.677801 C1301.749,761.591801 1301.585,763.504801 1301.369,765.410801 C1301.239,766.562801 1301.261,767.691801 1300.306,768.715801 C1299.791,769.266801 1299.606,770.830801 1300.018,771.401801 C1300.95,772.697801 1300.661,773.967801 1300.552,775.258801 C1299.973,782.110801 1299.34,788.957801 1298.707,796.010801 C1298.406,796.048801 1298.073,796.090801 1297.38,796.177801 C1296.899,799.522801 1296.129,802.953801 1295.964,806.415801 C1295.589,814.238801 1295.535,822.075801 1295.305,829.906801 C1295.195,833.572801 1295.166,837.255801 1294.75,840.890801 C1294.406,843.887801 1294.678,846.787801 1295.086,849.719801 C1295.328,851.457801 1295.641,853.193801 1295.754,854.941801 C1296.117,860.527801 1296.403,866.117801 1296.715,871.707801 C1296.766,872.622801 1297.131,873.702801 1295.506,873.779801 C1295.707,874.583801 1295.726,875.355801 1296.072,875.928801 C1297.856,878.873801 1297.016,882.159801 1297.386,885.283801 C1297.413,885.511801 1297.403,885.821801 1297.274,885.977801 C1296.228,887.231801 1296.182,888.342801 1297.469,889.516801 C1297.791,889.809801 1297.741,890.564801 1297.774,891.112801 C1298.57,904.924801 1299.352,918.738801 1300.155,932.550801 C1300.206,933.417801 1300.33,934.303801 1300.576,935.134801 C1301.277,937.506801 1302.059,939.853801 1302.854,942.349801 C1303.504,942.295801 1304.08,942.246801 1304.77,942.188801 C1305.799,944.068801 1306.832,945.953801 1308.062,948.197801 C1307.218,948.742801 1306.346,949.306801 1305.474,949.869801 C1306.412,952.340801 1322.004,987.636801 1322.652,988.703801 C1325.142,992.805801 1327.768,996.827801 1330.145,1000.9928 C1332.12,1004.4548 1333.939,1008.0208 1335.606,1011.6428 C1337.555,1015.8738 1337.574,1020.3148 1336.424,1024.7868 C1335.098,1029.9438 1332.674,1034.6458 1330.137,1039.2558 C1328.022,1043.0978 1324.367,1045.3168 1320.549,1047.3178 C1311.881,1051.8588 1302.606,1054.4918 1293.051,1056.1988 C1281.093,1058.3358 1269.107,1060.3158 1257.125,1062.3178 C1255.555,1062.5798 1253.94,1062.6668 1252.345,1062.6738 C1237.788,1062.7318 1223.231,1062.8748 1208.674,1062.7498 C1194.754,1062.6308 1180.865,1061.7588 1167.03,1060.1678 C1154.713,1058.7508 1142.359,1057.7978 1129.978,1057.1558 C1123.877,1056.8398 1117.934,1055.7668 1112.263,1053.3188 C1110.303,1052.4718 1108.158,1051.9868 1106.053,1051.5558 C1102.036,1050.7338 1098.443,1049.0318 1095.371,1046.3858 C1091.619,1043.1528 1088.018,1039.7418 1084.389,1036.3668 C1083.888,1035.9008 1083.408,1035.2468 1083.252,1034.5998 C1082.561,1031.7448 1081.025,1029.3118 1079.607,1026.8108 C1078.383,1024.6558 1077.171,1022.4938 1076.007,1020.3068 C1074.601,1017.6648 1074.31,1014.8338 1074.781,1011.9138 C1076.329,1002.3518 1079.655,993.469801 1085.789,985.920801 C1094.543,975.148801 1100.45,962.913801 1105.158,949.996801 C1105.186,949.921801 1105.207,949.842801 1105.245,949.773801 C1106.733,947.125801 1111.902,931.532801 1112.609,928.796801 C1112.843,927.891801 1116.535,914.681801 1116.631,914.105801 C1118.153,904.800801 1119.749,895.504801 1121.129,886.177801 C1122.937,873.962801 1123.062,861.643801 1123.184,849.320801 C1123.311,836.366801 1123.688,823.415801 1123.906,810.462801 C1124.113,798.214801 1123.641,785.990801 1122.244,773.818801 C1120.469,758.331801 1118.668,742.846801 1116.754,727.376801 C1115.409,716.508801 1113.885,705.663801 1112.371,694.817801 C1112.153,693.253801 1111.533,691.748801 1111.129,690.207801 C1110.846,689.132801 1110.549,688.053801 1110.365,686.958801 C1109.218,680.101801 1108.1,673.240801 1107.334,666.478801 C1107.612,665.847801 1108.158,665.201801 1108.122,664.590801 C1107.969,661.961801 1107.85,659.299801 1107.315,656.734801 C1106.933,654.906801 1105.91,653.210801 1105.166,651.459801 C1104.829,650.666801 1104.308,649.910801 1104.156,649.085801 C1103.509,645.548801 1102.965,641.992801 1102.393,638.441801 C1102.334,638.073801 1102.347,637.695801 1102.326,637.321801 C1102.514,637.175801 1102.703,637.029801 1102.891,636.883801 L1103.465,638.773801 C1103.668,638.670801 1103.871,638.568801 1104.074,638.466801 C1104.198,638.266801 1104.441,638.057801 1104.428,637.866801 C1104.142,633.955801 1103.549,630.106801 1102.08,626.311801 C1101.55,626.430801 1101.121,626.525801 1100.458,626.673801 C1099.909,623.381801 1099.361,620.100801 1098.799,616.724801 C1099.414,616.386801 1099.952,616.091801 1100.537,615.770801 C1100.567,615.571801 1100.672,615.325801 1100.625,615.114801 C1099.832,611.526801 1099.097,607.923801 1098.193,604.364801 C1097.167,600.323801 1095.982,596.323801 1097.253,592.011801 C1096.694,591.815801 1096.28,591.589801 1095.846,591.534801 C1094.992,591.427801 1094.567,590.964801 1094.448,590.153801 C1094.193,588.420801 1093.938,586.686801 1093.662,584.818801 C1094.386,584.574801 1095.015,584.364801 1095.694,584.136801 C1095.002,580.922801 1094.363,577.795801 1093.635,574.689801 C1093.457,573.931801 1093.082,573.175801 1092.633,572.532801 C1090.553,569.554801 1090.412,566.230801 1090.69,562.783801 C1090.763,561.871801 1090.824,560.728801 1090.365,560.046801 C1088.6,557.427801 1089.064,554.364801 1088.375,551.544801 C1090.348,549.319801 1088.649,547.006801 1088.438,544.765801 C1088.325,543.575801 1087.511,542.459801 1087.065,541.290801 C1086.756,540.485801 1086.429,539.663801 1086.293,538.820801 C1085.092,531.403801 1083.932,523.980801 1082.758,516.559801 C1082.608,515.612801 1082.4,514.671801 1082.31,513.718801 C1082.187,512.423801 1081.775,511.211801 1082.356,509.797801 C1082.761,508.808801 1082.33,507.436801 1082.143,506.255801 C1081.906,504.757801 1081.684,503.231801 1081.201,501.802801 C1078.904,495.011801 1078.287,487.895801 1077.078,480.897801 C1076.113,475.305801 1075.248,469.695801 1074.456,464.076801 C1074.066,461.315801 1073.982,458.512801 1073.691,455.735801 C1073.558,454.467801 1073.359,453.188801 1073.022,451.961801 C1070.704,443.531801 1069.868,434.835801 1068.402,426.254801 C1067.125,418.770801 1065.904,411.272801 1064.884,403.750801 C1064.359,399.881801 1064.162,395.947801 1064.117,392.039801 C1064.053,386.524801 1064.27,381.006801 1064.363,375.489801 C1064.374,374.869801 1064.365,374.248801 1064.365,373.518801 C1063.216,373.376801 1062.223,373.253801 1061,373.101801 C1061.292,372.545801 1061.404,372.056801 1061.711,371.792801 C1063.69,370.090801 1064.277,367.821801 1064.457,365.362801 C1065.552,350.370801 1066.652,335.379801 1067.746,320.387801 C1068.607,308.583801 1069.445,296.778801 1070.324,284.975801 C1071.364,271.020801 1072.354,257.060801 1073.525,243.115801 C1074.416,232.521801 1075.55,221.947801 1076.592,211.365801 C1077.135,205.862801 1077.573,205.408801 1082.871,204.290801 C1090.924,202.590801 1098.924,200.586801 1107.033,199.223801 C1117.746,197.421801 1128.523,195.940801 1139.31,194.632801 C1158.881,192.258801 1178.567,192.297801 1198.243,192.140801 C1203.992,192.094801 1209.738,191.642801 1215.485,191.372801 C1225.56,190.898801 1235.641,190.806801 1245.7,191.511801 C1259.258,192.460801 1272.813,193.507801 1286.348,194.745801 C1299.482,195.947801 1312.596,197.400801 1325.709,198.828801 C1333.975,199.729801 1342.215,200.840801 1350.479,201.754801 C1354.234,202.169801 1356.649,203.987801 1357.826,207.610801 C1360.211,214.954801 1361.609,222.488801 1362.085,230.172801 C1362.524,237.274801 1362.596,244.398801 1363.031,251.500801 C1363.485,258.921801 1364.14,266.330801 1364.778,273.738801 C1365.941,287.217801 1366.803,300.718801 1365.806,314.231801 C1365.266,321.543801 1365.992,328.758801 1366.285,336.023801 C1366.705,346.408801 1366.875,356.809801 1366.882,367.204801 C1366.891,378.575801 1365.639,389.874801 1364.197,401.141801 C1362.607,413.589801 1360.945,426.029801 1359.193,438.455801 C1357.452,450.802801 1355.658,463.143801 1353.707,475.458801 C1352.068,485.796801 1350.481,496.158801 1348.305,506.390801 C1345.613,519.047801 1342.311,531.573801 1339.322,544.168801 C1335.614,559.795801 1331.93,575.427801 1328.293,591.072801 C1326.983,596.708801 1326.34,602.473801 1326.9,608.223801 C1327.531,614.714801 1326.507,620.929801 1325.074,627.196801 C1321.671,642.073801 1318.436,656.990801 1315.13,671.891801 C1314.908,672.892801 1314.662,673.887801 1314.426,674.886801 C1314.313,674.869801 1314.197,674.853801 1314.083,674.837801 Z" id="Fill-2854-Copy-2"></path>
        </g>
    </g>
</svg>